<svg width="21" height="22" viewBox="0 0 21 22" fill="none" xmlns="http://www.w3.org/2000/svg">
<g clip-path="url(#clip0_14:969)">
<path fill-rule="evenodd" clip-rule="evenodd" d="M15.5045 2.20885C14.459 1.77578 13.4441 2.04608 12.7221 2.68402C12.017 3.30715 11.5861 4.27638 11.5861 5.30615V6.1506C11.5861 8.68599 13.6414 10.7413 16.1768 10.7413H17.0213C18.0511 10.7413 19.0203 10.3105 19.6434 9.60529C20.2814 8.88336 20.5517 7.86842 20.1186 6.82289C19.6901 5.78852 19.0621 4.84866 18.2705 4.05698C17.4788 3.2653 16.5389 2.63731 15.5045 2.20885ZM12.8977 5.30615C12.8977 4.6291 13.1842 4.02605 13.5907 3.66689C13.9804 3.32255 14.4712 3.20055 15.0026 3.42065C15.8778 3.78318 16.6731 4.31456 17.343 4.98445C18.0129 5.65433 18.5443 6.44959 18.9068 7.32483C19.1269 7.8562 19.0049 8.34707 18.6605 8.73675C18.3014 9.14319 17.6983 9.42969 17.0213 9.42969H16.1768C14.3658 9.42969 12.8977 7.9616 12.8977 6.1506V5.30615Z" fill="#418544" fill-opacity="0.87"/>
<path fill-rule="evenodd" clip-rule="evenodd" d="M10.2745 6.58782C10.2745 5.31172 9.19306 4.06437 7.73959 4.3928C6.72507 4.62205 5.75575 5.03621 4.88207 5.61998C3.48003 6.55679 2.38728 7.88831 1.742 9.44617C1.09671 11.004 0.927876 12.7182 1.25684 14.3721C1.5858 16.0259 2.39779 17.545 3.59012 18.7373C4.78245 19.9296 6.30157 20.7416 7.95538 21.0706C9.60919 21.3996 11.3234 21.2307 12.8813 20.5854C14.4391 19.9402 15.7706 18.8474 16.7075 17.4454C17.2912 16.5717 17.7054 15.6024 17.9346 14.5878C18.2631 13.1344 17.0157 12.053 15.7396 12.053H13.9908C11.9383 12.053 10.2745 10.3891 10.2745 8.33666V6.58782ZM8.02869 5.67218C8.45943 5.57485 8.96284 5.93219 8.96284 6.58782V8.33666C8.96284 11.1135 11.2139 13.3646 13.9908 13.3646H15.7396C16.3952 13.3646 16.7526 13.868 16.6553 14.2988C16.4613 15.1572 16.1108 15.9774 15.6169 16.7167C14.8242 17.903 13.6975 18.8276 12.3793 19.3736C11.0611 19.9197 9.61065 20.0625 8.21127 19.7842C6.81189 19.5058 5.52648 18.8187 4.51759 17.8098C3.50869 16.801 2.82163 15.5155 2.54327 14.1162C2.26492 12.7168 2.40778 11.2663 2.95379 9.94811C3.4998 8.62992 4.42444 7.50325 5.61077 6.71056C6.35003 6.21661 7.17022 5.86616 8.02869 5.67218Z" fill="#418544" fill-opacity="0.87"/>
</g>
<defs>
<clipPath id="clip0_14:969">
<rect width="20.9862" height="20.9862" fill="white" transform="translate(0 0.905273)"/>
</clipPath>
</defs>
</svg>
