<svg width="424" height="176" viewBox="0 0 424 176" fill="none" xmlns="http://www.w3.org/2000/svg">
<rect width="424" height="176" rx="10" fill="#151522"/>
<path d="M119.386 72.544H130.65C131.221 72.544 131.648 72.9717 131.72 73.4708L138.92 105.055L147.69 73.4708C147.761 72.9004 148.189 72.544 148.759 72.544H157.457C158.028 72.544 158.527 72.9004 158.741 73.4708L167.439 106.409L174.568 73.3282C174.639 72.8291 175.067 72.4727 175.637 72.4727H186.902C187.544 72.4727 187.758 72.9004 187.615 73.3995L174.354 120.668C174.212 121.167 173.713 121.524 173.213 121.524H162.519C161.949 121.524 161.45 121.239 161.236 120.668L153.108 89.1557L144.838 120.668C144.695 121.239 144.125 121.595 143.555 121.524H133.288C132.718 121.524 132.219 121.239 132.005 120.668L118.601 73.3995C118.459 73.043 118.673 72.6152 119.029 72.4727C119.172 72.544 119.243 72.4727 119.386 72.544Z" fill="white"/>
<path d="M200.092 48.1616C204.797 48.1616 207.721 51.156 207.721 55.7902C207.721 60.4244 204.797 63.5614 200.092 63.5614C195.386 63.5614 192.321 60.4244 192.321 55.7902C192.321 51.156 195.529 48.1616 200.092 48.1616Z" fill="white"/>
<path d="M206.08 120.526C206.08 121.096 205.724 121.524 205.153 121.595C205.082 121.595 205.082 121.595 205.011 121.595H195.172C194.602 121.595 194.174 121.239 194.103 120.668C194.103 120.597 194.103 120.597 194.103 120.526V73.5421C194.031 72.9717 194.459 72.544 194.958 72.4727C195.029 72.4727 195.172 72.4727 195.243 72.4727H204.939C205.581 72.4727 206.009 72.7578 206.009 73.3995L206.08 120.526Z" fill="white"/>
<path d="M219.413 46.0225H229.323C229.822 45.9512 230.321 46.3789 230.392 46.878C230.392 46.878 230.392 46.878 230.392 46.9493V92.2218L245.721 73.1146C245.934 72.6869 246.362 72.473 246.861 72.473H260.122C261.263 72.473 261.406 72.9721 260.621 73.8276L242.441 95.5727L263.972 120.17C264.828 121.096 264.614 121.524 263.331 121.524H250.426C249.927 121.595 249.428 121.382 249.071 121.025L230.463 99.4939V120.597C230.463 121.096 230.036 121.524 229.537 121.524H219.484C218.985 121.524 218.557 121.096 218.557 120.597V47.0206C218.486 46.4502 218.914 46.0225 219.413 46.0225Z" fill="white"/>
<path d="M291.92 111.543C296.911 111.4 300.832 109.903 303.114 107.693C303.399 107.408 303.755 107.265 304.183 107.265C304.468 107.265 304.682 107.408 304.896 107.55L311.099 113.967C311.526 114.395 311.598 115.036 311.17 115.536C306.536 120.455 299.763 122.665 291.279 122.665C275.736 122.736 265.256 112.327 265.256 97.0701C265.256 81.8129 275.522 71.5464 290.637 71.5464C306.037 71.5464 316.161 80.7435 316.018 100.706C316.089 101.205 315.733 101.704 315.163 101.776C315.091 101.776 315.02 101.776 314.949 101.776H277.804C279.444 107.55 284.363 111.543 291.92 111.543ZM303.613 92.935C302.329 86.8749 297.838 82.811 290.637 82.811C283.436 82.811 278.945 86.8749 277.661 92.935H303.613Z" fill="white"/>
<path d="M345.748 83.5245C342.397 83.5245 339.046 85.7346 337.264 89.5133V120.598C337.335 121.097 336.979 121.596 336.408 121.667C336.337 121.667 336.266 121.667 336.194 121.667H326.356C325.785 121.667 325.357 121.311 325.286 120.741C325.286 120.669 325.286 120.669 325.286 120.598V73.5432C325.286 72.9728 325.643 72.545 326.213 72.4737C326.284 72.4737 326.284 72.4737 326.356 72.4737H333.129C333.77 72.4024 334.341 72.9015 334.483 73.5432L335.553 76.7514C338.832 73.4006 343.324 71.4756 348.029 71.4043C350.596 71.4756 353.091 71.9034 355.587 72.6876C356.157 72.8302 356.442 73.4006 356.371 73.8996C356.371 73.9709 356.371 73.9709 356.3 74.0422L353.804 84.3087C353.733 84.7365 353.305 85.0217 352.877 85.0217C352.664 85.0217 352.592 84.8791 352.378 84.8791C350.239 84.0236 348.029 83.5958 345.748 83.5245Z" fill="white"/>
<path d="M383.606 83.5245C380.255 83.5245 376.904 85.7346 375.122 89.5133V120.598C375.193 121.097 374.836 121.596 374.266 121.667C374.195 121.667 374.124 121.667 374.052 121.667H364.213C363.643 121.667 363.215 121.311 363.144 120.741C363.144 120.669 363.144 120.669 363.144 120.598V73.5432C363.144 72.9728 363.501 72.545 364.071 72.4737C364.142 72.4737 364.142 72.4737 364.213 72.4737H370.987C371.628 72.4024 372.199 72.9015 372.341 73.5432L373.411 76.7514C376.69 73.4006 381.182 71.4756 385.887 71.4043C388.454 71.4756 390.949 71.9034 393.445 72.6876C394.015 72.8302 394.3 73.4006 394.157 73.9709V74.0422L391.662 84.3087C391.591 84.7365 391.163 85.0217 390.735 85.0217C390.521 85.0217 390.45 84.8791 390.236 84.8791C388.097 84.0236 385.887 83.5958 383.606 83.5245Z" fill="white"/>
<path d="M104.556 109.761L95.7865 101.062L80.0303 85.3775C79.3886 84.7359 78.4618 84.3081 77.5349 84.3081H65.1296C64.3453 84.3794 63.7037 85.0211 63.775 85.8053C63.775 86.1618 63.9175 86.447 64.1314 86.6608L85.7339 108.335L94.931 117.532L98.7096 121.31C98.8522 121.453 98.9948 121.524 99.2087 121.524H114.537C114.965 121.524 115.25 121.239 115.25 120.811C115.25 120.597 115.179 120.455 115.036 120.312L104.556 109.761Z" fill="#FF6F3D"/>
<path d="M74.5408 46.0226C53.4374 46.9494 37.1107 64.7732 38.0376 85.8766C38.9644 106.98 56.7882 123.307 77.8916 122.451C80.1731 122.38 82.4545 122.023 84.6647 121.524C86.7322 121.025 88.7285 120.455 90.6535 119.599C91.01 119.457 91.1525 119.029 91.01 118.672C90.9387 118.601 90.9387 118.53 90.8674 118.459L82.1693 109.761C82.0268 109.618 81.7416 109.547 81.5277 109.547C67.5538 112.47 53.7938 103.558 50.8707 89.584C48.6606 79.0323 53.1522 68.1954 62.278 62.4205C66.8409 59.4974 72.188 58.1428 77.6064 58.428C90.7248 59.2122 101.205 69.6926 101.989 82.7396C102.275 87.9442 100.991 93.1487 98.2821 97.569C98.1395 97.8542 98.1395 98.2107 98.3534 98.4246L106.267 106.267C106.552 106.552 106.98 106.552 107.265 106.267L107.337 106.196C119.457 88.9423 115.322 65.0584 98.0682 52.8669C91.1526 48.1614 82.9536 45.7374 74.5408 46.0226Z" fill="white"/>
<path d="M394.371 106.624C399.077 106.624 402 109.618 402 114.252C402 118.886 399.077 122.023 394.371 122.023C389.666 122.023 386.6 118.886 386.6 114.252C386.6 109.618 389.808 106.624 394.371 106.624Z" fill="white"/>
</svg>
