<svg width="51" height="14" viewBox="0 0 51 14" fill="none" xmlns="http://www.w3.org/2000/svg">
<path d="M26.0223 3.62574L24.423 8.62354H22.6166L21.8098 5.95328L20.9602 8.62354H19.1539L17.5546 3.62574H19.2895L20.1606 6.46734L21.0816 3.62574H22.6309L23.5019 6.50304L24.423 3.62574H26.0223ZM26.4361 3.62574H28.1211V8.62354H26.4361V3.62574ZM31.0067 6.96712L30.6283 7.38836V8.62354H28.9719V3.62574H30.6283V5.43922L32.2704 3.62574H34.1053L32.1062 5.82477L34.2053 8.62354H32.2561L31.0067 6.96712ZM36.5057 6.96712L36.1273 7.38836V8.62354H34.4709V3.62574H36.1273V5.43922L37.7695 3.62574H39.6044L37.6052 5.82477L39.7043 8.62354H37.7552L36.5057 6.96712ZM44.1253 7.35267V8.62354H39.9699V3.62574H44.0324V4.89661H41.6264V5.48206H43.7397V6.69581H41.6264V7.35267H44.1253ZM46.9555 7.36695H46.4985V8.62354H44.8136V3.62574H47.2197C47.6814 3.62574 48.0836 3.70189 48.4263 3.85421C48.769 4.00652 49.0331 4.22547 49.2188 4.51106C49.4044 4.79665 49.4972 5.12984 49.4972 5.51062C49.4972 5.86761 49.4163 6.17937 49.2545 6.44592C49.0926 6.71247 48.8594 6.92428 48.5548 7.08136L49.6043 8.62354H47.8051L46.9555 7.36695ZM47.798 5.51062C47.798 5.32499 47.7409 5.18219 47.6266 5.08224C47.5124 4.97752 47.341 4.92516 47.1126 4.92516H46.4985V6.09608H47.1126C47.341 6.09608 47.5124 6.0461 47.6266 5.94614C47.7409 5.84143 47.798 5.69625 47.798 5.51062Z" fill="#001AA0"/>
<path d="M14.8725 9.29471C14.9913 9.41444 15.1846 9.41523 15.3044 9.29649C15.4241 9.17774 15.4249 8.98441 15.3061 8.86468L13.2993 6.84134C13.1806 6.72162 12.9872 6.72082 12.8675 6.83957C12.7478 6.95832 12.747 7.15165 12.8657 7.27138L14.8725 9.29471Z" fill="#2D264B"/>
<path d="M15.9481 6.73729C15.9237 6.90415 16.0392 7.05919 16.2061 7.0836C16.3729 7.108 16.528 6.99252 16.5524 6.82567C16.7446 5.51117 16.3381 4.12403 15.3297 3.10733C13.6277 1.39123 10.8567 1.37987 9.14058 3.08194C7.42448 4.78402 7.41312 7.555 9.11519 9.2711C10.1161 10.2802 11.5186 10.6929 12.8208 10.5245C12.9881 10.5029 13.1061 10.3498 13.0845 10.1826C13.0629 10.0153 12.9098 9.89729 12.7425 9.91891C11.6152 10.0647 10.4062 9.70558 9.54877 8.84107C8.08419 7.36443 8.09397 4.9801 9.57061 3.51552C11.0473 2.05094 13.4316 2.06072 14.8962 3.53736C15.7635 4.41189 16.1138 5.60455 15.9481 6.73729Z" fill="#2D264B"/>
<path d="M14.8725 9.29471C14.9913 9.41444 15.1846 9.41523 15.3044 9.29649C15.4241 9.17774 15.4249 8.98441 15.3061 8.86468L13.2993 6.84134C13.1806 6.72162 12.9872 6.72082 12.8675 6.83957C12.7478 6.95832 12.747 7.15165 12.8657 7.27138L14.8725 9.29471Z" stroke="#001896" stroke-width="0.733804" stroke-linecap="round"/>
<path d="M15.9481 6.73729C15.9237 6.90415 16.0392 7.05919 16.2061 7.0836C16.3729 7.108 16.528 6.99252 16.5524 6.82567C16.7446 5.51117 16.3381 4.12403 15.3297 3.10733C13.6277 1.39123 10.8567 1.37987 9.14058 3.08194C7.42448 4.78402 7.41312 7.555 9.11519 9.2711C10.1161 10.2802 11.5186 10.6929 12.8208 10.5245C12.9881 10.5029 13.1061 10.3498 13.0845 10.1826C13.0629 10.0153 12.9098 9.89729 12.7425 9.91891C11.6152 10.0647 10.4062 9.70558 9.54877 8.84107C8.08419 7.36443 8.09397 4.9801 9.57061 3.51552C11.0473 2.05094 13.4316 2.06072 14.8962 3.53736C15.7635 4.41189 16.1138 5.60455 15.9481 6.73729Z" stroke="#001896" stroke-width="0.733804" stroke-linecap="round"/>
</svg>
