<svg width="51" height="56" viewBox="0 0 51 56" fill="none" xmlns="http://www.w3.org/2000/svg">
<circle cx="14.5573" cy="14.5573" r="14.5573" fill="#E5F7FF"/>
<path d="M42.6617 37.4092L45.0657 38.8512C45.214 38.94 45.3368 39.0657 45.422 39.216C45.5072 39.3664 45.552 39.5363 45.552 39.7092C45.552 39.882 45.5072 40.0519 45.422 40.2023C45.3368 40.3527 45.214 40.4784 45.0657 40.5672L27.5257 51.0912C27.2146 51.2781 26.8586 51.3768 26.4957 51.3768C26.1328 51.3768 25.7767 51.2781 25.4657 51.0912L7.92568 40.5672C7.77737 40.4784 7.65461 40.3527 7.56937 40.2023C7.48414 40.0519 7.43933 39.882 7.43933 39.7092C7.43933 39.5363 7.48414 39.3664 7.56937 39.216C7.65461 39.0657 7.77737 38.94 7.92568 38.8512L10.3297 37.4092L26.4957 47.1092L42.6617 37.4092ZM42.6617 28.0092L45.0657 29.4512C45.214 29.54 45.3368 29.6657 45.422 29.816C45.5072 29.9664 45.552 30.1363 45.552 30.3092C45.552 30.482 45.5072 30.6519 45.422 30.8023C45.3368 30.9527 45.214 31.0784 45.0657 31.1672L26.4957 42.3092L7.92568 31.1672C7.77737 31.0784 7.65461 30.9527 7.56937 30.8023C7.48414 30.6519 7.43933 30.482 7.43933 30.3092C7.43933 30.1363 7.48414 29.9664 7.56937 29.816C7.65461 29.6657 7.77737 29.54 7.92568 29.4512L10.3297 28.0092L26.4957 37.7092L42.6617 28.0092ZM27.5237 9.62717L45.0657 20.1512C45.214 20.24 45.3368 20.3657 45.422 20.516C45.5072 20.6664 45.552 20.8363 45.552 21.0092C45.552 21.182 45.5072 21.3519 45.422 21.5023C45.3368 21.6527 45.214 21.7784 45.0657 21.8672L26.4957 33.0092L7.92568 21.8672C7.77737 21.7784 7.65461 21.6527 7.56937 21.5023C7.48414 21.3519 7.43933 21.182 7.43933 21.0092C7.43933 20.8363 7.48414 20.6664 7.56937 20.516C7.65461 20.3657 7.77737 20.24 7.92568 20.1512L25.4657 9.62717C25.7767 9.44029 26.1328 9.34155 26.4957 9.34155C26.8586 9.34155 27.2146 9.44029 27.5257 9.62717H27.5237ZM26.4957 13.6732L14.2697 21.0092L26.4957 28.3452L38.7217 21.0092L26.4957 13.6732Z" fill="#1E266D"/>
</svg>
