<svg width="51" height="48" viewBox="0 0 51 48" fill="none" xmlns="http://www.w3.org/2000/svg">
<circle cx="14.5573" cy="15.5573" r="14.5573" fill="#E5F7FF"/>
<path d="M26.0686 44C15.0226 44 6.0686 35.046 6.0686 24C6.0686 12.954 15.0226 4 26.0686 4C37.1146 4 46.0686 12.954 46.0686 24C46.0686 35.046 37.1146 44 26.0686 44ZM26.0686 40C30.3121 40 34.3817 38.3143 37.3823 35.3137C40.3829 32.3131 42.0686 28.2435 42.0686 24C42.0686 19.7565 40.3829 15.6869 37.3823 12.6863C34.3817 9.68571 30.3121 8 26.0686 8C21.8251 8 17.7555 9.68571 14.7549 12.6863C11.7543 15.6869 10.0686 19.7565 10.0686 24C10.0686 28.2435 11.7543 32.3131 14.7549 35.3137C17.7555 38.3143 21.8251 40 26.0686 40ZM19.0686 28H30.0686C30.3338 28 30.5882 27.8946 30.7757 27.7071C30.9632 27.5196 31.0686 27.2652 31.0686 27C31.0686 26.7348 30.9632 26.4804 30.7757 26.2929C30.5882 26.1054 30.3338 26 30.0686 26H22.0686C20.7425 26 19.4707 25.4732 18.5331 24.5355C17.5954 23.5979 17.0686 22.3261 17.0686 21C17.0686 19.6739 17.5954 18.4021 18.5331 17.4645C19.4707 16.5268 20.7425 16 22.0686 16H24.0686V12H28.0686V16H33.0686V20H22.0686C21.8034 20 21.549 20.1054 21.3615 20.2929C21.174 20.4804 21.0686 20.7348 21.0686 21C21.0686 21.2652 21.174 21.5196 21.3615 21.7071C21.549 21.8946 21.8034 22 22.0686 22H30.0686C31.3947 22 32.6665 22.5268 33.6041 23.4645C34.5418 24.4021 35.0686 25.6739 35.0686 27C35.0686 28.3261 34.5418 29.5979 33.6041 30.5355C32.6665 31.4732 31.3947 32 30.0686 32H28.0686V36H24.0686V32H19.0686V28Z" fill="#1E266D"/>
</svg>
