<svg width="56" height="64" viewBox="0 0 56 64" fill="none" xmlns="http://www.w3.org/2000/svg">
<path fill-rule="evenodd" clip-rule="evenodd" d="M28 0C25.24 0 20.628 1.06 16.288 2.24C11.848 3.44 7.37202 4.86 4.74002 5.72C3.63959 6.08341 2.66398 6.74986 1.92529 7.6428C1.18659 8.53575 0.714771 9.61896 0.564022 10.768C-1.81998 28.676 3.71202 41.948 10.424 50.728C13.2704 54.4838 16.6641 57.7913 20.492 60.54C22.036 61.632 23.468 62.468 24.684 63.04C25.804 63.568 27.008 64 28 64C28.992 64 30.192 63.568 31.316 63.04C32.782 62.3275 34.1844 61.4911 35.508 60.54C39.336 57.7914 42.7298 54.4839 45.576 50.728C52.288 41.948 57.82 28.676 55.436 10.768C55.2855 9.6184 54.8139 8.53456 54.0752 7.64093C53.3365 6.7473 52.3608 6.08012 51.26 5.716C47.4393 4.46325 43.5888 3.30292 39.712 2.236C35.372 1.064 30.76 0 28 0ZM36.584 20.584C36.9596 20.2085 37.4689 19.9975 38 19.9975C38.5311 19.9975 39.0405 20.2085 39.416 20.584C39.7916 20.9595 40.0026 21.4689 40.0026 22C40.0026 22.5311 39.7916 23.0405 39.416 23.416L27.416 35.416C27.2302 35.6023 27.0095 35.75 26.7666 35.8508C26.5236 35.9517 26.2631 36.0036 26 36.0036C25.737 36.0036 25.4765 35.9517 25.2335 35.8508C24.9905 35.75 24.7698 35.6023 24.584 35.416L18.584 29.416C18.3981 29.23 18.2506 29.0093 18.1499 28.7663C18.0493 28.5234 17.9975 28.263 17.9975 28C17.9975 27.737 18.0493 27.4766 18.1499 27.2337C18.2506 26.9907 18.3981 26.77 18.584 26.584C18.77 26.398 18.9907 26.2505 19.2337 26.1499C19.4766 26.0493 19.737 25.9975 20 25.9975C20.263 25.9975 20.5234 26.0493 20.7664 26.1499C21.0093 26.2505 21.2301 26.398 21.416 26.584L26 31.172L36.584 20.584V20.584Z" fill="#26C928"/>
</svg>
