<svg width="18" height="18" viewBox="0 0 18 18" fill="none" xmlns="http://www.w3.org/2000/svg">
<path fill-rule="evenodd" clip-rule="evenodd" d="M16.2831 5.33691C16.726 3.0276 14.6986 1.00018 12.3893 1.44307L5.75901 2.71465C4.31771 2.99107 3.16505 4.08206 2.79884 5.49968C2.06769 8.33004 4.69256 10.9168 7.51097 10.088C7.5888 10.0651 7.66111 10.1374 7.63822 10.2152C6.8094 13.0336 9.39615 15.6585 12.2265 14.9274C13.6442 14.5612 14.7351 13.4085 15.0116 11.9672L16.2831 5.33691ZM12.594 2.51065C14.1488 2.21248 15.5137 3.57743 15.2155 5.13216L13.944 11.7624C13.7473 12.7878 12.9688 13.6129 11.9546 13.8749C9.92758 14.3985 8.09453 12.5166 8.68111 10.5219C8.94673 9.61866 8.10753 8.77946 7.20428 9.04508C5.20962 9.63167 3.32769 7.79862 3.85133 5.77157C4.11331 4.75741 4.93839 3.97888 5.96375 3.78223L12.594 2.51065Z" fill="#5351B1"/>
<path d="M3.58334 11.8369C3.7956 11.6247 3.7956 11.2805 3.58334 11.0683C3.37108 10.856 3.02694 10.856 2.81468 11.0683L1.78981 12.0931C1.57755 12.3054 1.57755 12.6495 1.78981 12.8618C2.00207 13.074 2.34621 13.074 2.55846 12.8618L3.58334 11.8369Z" fill="#5351B1"/>
<path d="M6.14552 12.3493C6.35778 12.1371 6.35778 11.7929 6.14552 11.5807C5.93326 11.3684 5.58912 11.3684 5.37687 11.5807L4.35199 12.6056C4.13973 12.8178 4.13973 13.162 4.35199 13.3742C4.56425 13.5865 4.90839 13.5865 5.12065 13.3742L6.14552 12.3493Z" fill="#5351B1"/>
<path d="M6.65796 14.9115C6.87021 14.6993 6.87021 14.3551 6.65796 14.1429C6.4457 13.9306 6.10156 13.9306 5.8893 14.1429L4.86443 15.1677C4.65217 15.38 4.65217 15.7241 4.86443 15.9364C5.07669 16.1487 5.42083 16.1487 5.63308 15.9364L6.65796 14.9115Z" fill="#5351B1"/>
</svg>
