<svg width="18" height="19" viewBox="0 0 18 19" fill="none" xmlns="http://www.w3.org/2000/svg">
<path fill-rule="evenodd" clip-rule="evenodd" d="M10.6746 1.60383C9.98052 1.59004 9.20896 1.83347 7.94223 2.2331L7.77717 2.28516C7.28128 2.44148 6.97616 2.53766 6.69379 2.67536C6.11006 2.96002 5.59983 3.37545 5.20276 3.88936C5.01068 4.13796 4.85465 4.41724 4.60106 4.87115L2.80472 8.08587C2.23272 9.10919 1.88366 9.73365 1.74981 10.3476C1.45408 11.7043 1.84399 13.1196 2.79275 14.1334C3.22214 14.5923 3.84174 14.9499 4.8571 15.5359L5.04936 15.6469C6.06454 16.2332 6.68404 16.591 7.29609 16.7334C8.64845 17.0482 10.0691 16.6782 11.0962 15.7438C11.561 15.3208 11.9272 14.7063 12.5274 13.6993L14.4133 10.5363C14.6796 10.0897 14.8435 9.81492 14.9627 9.52427C15.2092 8.92344 15.3139 8.27386 15.2686 7.626C15.2466 7.31261 15.1774 7.00027 15.0648 6.49264L15.0273 6.3237C14.7401 5.02687 14.5651 4.23695 14.2061 3.64272C13.4567 2.40224 12.1236 1.6326 10.6746 1.60383ZM8.15197 3.32234C9.5789 2.87241 10.1636 2.69577 10.6528 2.70549C11.7238 2.72675 12.7091 3.29562 13.263 4.21249C13.516 4.63124 13.6554 5.22595 13.9792 6.68668C14.1046 7.25249 14.1538 7.48109 14.1694 7.70294C14.2029 8.18179 14.1255 8.66191 13.9433 9.10601C13.8589 9.31175 13.7403 9.51332 13.4436 10.0111L11.6379 13.0397C10.9626 14.1722 10.6824 14.6305 10.3546 14.9287C9.59551 15.6194 8.54544 15.8929 7.54587 15.6603C7.11425 15.5598 6.64604 15.2964 5.50417 14.6371C4.36231 13.9779 3.90008 13.7041 3.59727 13.3805C2.89601 12.6312 2.60782 11.5851 2.8264 10.5823C2.92079 10.1493 3.17761 9.67748 3.82077 8.52647L5.54073 5.44841C5.82343 4.94248 5.93872 4.73903 6.07469 4.56306C6.36818 4.18321 6.74531 3.87615 7.17676 3.66575C7.37664 3.56828 7.59924 3.49662 8.15197 3.32234Z" fill="#FF9C08"/>
<path fill-rule="evenodd" clip-rule="evenodd" d="M8.26903 5.97859C7.76191 6.85696 8.06286 7.98012 8.94122 8.48724C9.81958 8.99436 10.9427 8.69341 11.4499 7.81505C11.957 6.93668 11.656 5.81352 10.7777 5.3064C9.89931 4.79928 8.77615 5.10023 8.26903 5.97859ZM9.22328 6.52953C9.02043 6.88087 9.14081 7.33014 9.49216 7.53299C9.8435 7.73584 10.2928 7.61546 10.4956 7.26411C10.6985 6.91277 10.5781 6.4635 10.2267 6.26065C9.8754 6.0578 9.42613 6.17818 9.22328 6.52953Z" fill="#FF9C08"/>
</svg>
