<svg width="556" height="506" viewBox="0 0 556 506" fill="none" xmlns="http://www.w3.org/2000/svg">
<g clip-path="url(#clip0)">
<path d="M538.734 78.9258L536.406 80.6711C536.406 80.6711 536.406 80.6711 536.212 80.6711L408.173 6.7871C404.487 4.65397 398.085 5.04181 394.011 7.36886L184.881 127.988C184.299 128.182 183.911 128.57 183.523 128.957L181.389 127.406V132.642C181.389 133.999 182.165 135.357 183.911 136.326L311.95 210.21C315.636 212.344 322.038 211.956 326.112 209.629L535.242 88.8158C537.57 87.4583 538.734 85.713 538.734 84.1617V78.9258V78.9258Z" fill="white"/>
<path d="M535.242 83.5797L326.112 204.393C321.844 206.914 315.636 207.108 311.95 204.974L183.911 131.09C180.225 128.957 180.807 125.273 184.881 122.946L394.011 1.93892C398.279 -0.582058 404.487 -0.775979 408.173 1.35715L536.212 75.2411C539.898 77.3743 539.51 81.0588 535.242 83.5797Z" fill="url(#paint0_linear)"/>
<path d="M492.074 66.0813L497.176 71.1483L498.456 69.8591L492.078 63.5254L485.677 69.971L486.953 71.2378L492.074 66.0813Z" fill="black"/>
<path d="M492.055 76.3043L495.896 72.437L492.069 68.6367L488.228 72.5041L492.055 76.3043ZM492.064 71.1926L493.34 72.4593L492.06 73.7485L490.784 72.4817L492.064 71.1926Z" fill="black"/>
<path d="M503.235 77.1651L508.656 82.5488L503.536 87.7053L504.811 88.972L511.212 82.5264L504.515 75.876L503.235 77.1651Z" fill="black"/>
<path d="M502.26 86.4381L506.101 82.5707L502.274 78.7705L498.433 82.6379L502.26 86.4381ZM502.269 81.3264L503.545 82.5931L502.265 83.8823L500.989 82.6155L502.269 81.3264Z" fill="black"/>
<path d="M480.534 87.9063L475.431 82.8393L480.552 77.6828L479.276 76.416L472.875 82.8616L479.253 89.1954L480.534 87.9063Z" fill="black"/>
<path d="M485.654 82.7495L481.828 78.9492L477.987 82.8166L481.814 86.6168L485.654 82.7495ZM481.818 84.061L480.543 82.7942L481.823 81.5051L483.099 82.7718L481.818 84.061Z" fill="black"/>
<path d="M492.014 99.3068L486.593 93.9231L485.313 95.2122L492.01 101.863L498.411 95.417L497.135 94.1503L492.014 99.3068Z" fill="black"/>
<path d="M490.762 85.2608L495.864 90.3278L493.304 92.9061L494.579 94.1728L498.42 90.3054L492.042 83.9717L490.762 85.2608Z" fill="black"/>
<path d="M492.018 96.751L493.299 95.4618L485.645 87.8613L490.766 82.7048L484.388 76.3711L483.108 77.6602L488.21 82.7272L483.089 87.8837L492.018 96.751Z" fill="black"/>
<path d="M497.171 73.7031L498.447 74.9699L494.606 78.8373L493.331 77.5705L497.171 73.7031Z" fill="black"/>
<path d="M485.668 75.0824L494.597 83.9496L500.998 77.5039L499.722 76.2372L494.602 81.3937L486.948 73.7932L485.668 75.0824Z" fill="black"/>
<path d="M497.153 83.9277L500.98 87.728L499.7 89.0171L495.873 85.2169L497.153 83.9277Z" fill="black"/>
<path d="M492.033 89.084L493.308 90.3507L492.028 91.6399L490.753 90.3731L492.033 89.084Z" fill="black"/>
<path d="M489.481 86.5498L490.757 87.8166L489.476 89.1057L488.201 87.8389L489.481 86.5498Z" fill="black"/>
<g clip-path="url(#clip1)">
<path d="M395.437 24.822C395.793 25.2828 396.456 25.3673 396.917 25.0107C397.378 24.6542 397.462 23.9915 397.106 23.5307C396.749 23.0699 396.086 22.9853 395.626 23.3419C395.165 23.6985 395.08 24.3611 395.437 24.822Z" fill="black"/>
<path d="M396.892 20.0078L396.759 21.0539C397.557 21.1756 398.278 21.5991 398.772 22.237C399.267 22.8749 399.498 23.6785 399.417 24.4817L400.463 24.615C400.579 23.5343 400.272 22.4504 399.606 21.5913C398.94 20.7322 397.967 20.1647 396.891 20.0081L396.892 20.0078Z" fill="black"/>
<path d="M397.292 16.869L397.159 17.9151C398.789 18.1419 400.267 18.9975 401.275 20.2991C402.284 21.6007 402.743 23.2451 402.555 24.8809L403.601 25.0142C403.824 23.101 403.289 21.1763 402.109 19.6534C400.93 18.1306 399.2 17.1309 397.292 16.869V16.869Z" fill="black"/>
<path d="M406.739 25.414C407.07 22.6698 406.307 19.9058 404.615 17.7198C402.924 15.5337 400.44 14.1013 397.7 13.7323L397.691 13.7397L397.558 14.7787C400.022 15.1098 402.256 16.3972 403.778 18.3625C405.3 20.3278 405.987 22.8131 405.691 25.2811L406.738 25.4147L406.739 25.414Z" fill="black"/>
</g>
<path d="M216.585 130.06C215.465 130.727 214.363 130.885 213.278 130.536C212.198 130.185 211.277 129.371 210.518 128.094C209.762 126.825 209.489 125.629 209.697 124.505C209.906 123.376 210.567 122.48 211.68 121.818C212.785 121.16 213.882 121.009 214.971 121.366C216.058 121.719 216.979 122.53 217.734 123.799C218.2 124.581 218.487 125.341 218.596 126.079C218.709 126.814 218.638 127.477 218.383 128.067L220.206 128.858L219.104 129.514L217.85 128.983C217.519 129.396 217.098 129.755 216.585 130.06ZM216.052 129.151C216.346 128.976 216.602 128.769 216.82 128.531L214.938 127.739L216.05 127.076L217.33 127.6C217.492 127.169 217.52 126.679 217.416 126.131C217.312 125.577 217.082 125 216.725 124.4C216.136 123.411 215.437 122.766 214.628 122.464C213.818 122.163 213.015 122.25 212.219 122.724C211.415 123.202 210.951 123.87 210.826 124.727C210.704 125.582 210.938 126.505 211.527 127.494C212.118 128.486 212.817 129.132 213.624 129.429C214.435 129.724 215.244 129.632 216.052 129.151ZM225.559 116.505L227.411 123.366L226.457 123.934L222.435 120.167L222.347 120.219L223.746 125.547L222.797 126.112L217.65 121.212L218.599 120.647L222.554 124.661L222.641 124.609L221.157 119.125L222.057 118.589L226.17 122.509L226.257 122.457L224.615 117.067L225.559 116.505ZM230.335 121.625L226.835 115.745L227.774 115.187L231.273 121.067L230.335 121.625ZM226.944 113.805C226.892 114.008 226.775 114.163 226.594 114.272C226.412 114.38 226.219 114.408 226.016 114.357C225.811 114.301 225.655 114.185 225.549 114.007C225.443 113.828 225.416 113.638 225.468 113.435C225.517 113.228 225.633 113.071 225.814 112.962C225.996 112.854 226.19 112.828 226.395 112.883C226.598 112.934 226.752 113.049 226.859 113.227C226.965 113.406 226.993 113.598 226.944 113.805ZM232.172 116.048L233.196 111.96L234.347 111.275L233.315 115.301L238.015 117.054L236.821 117.765L232.978 116.322L232.727 117.18L234.055 119.411L233.117 119.97L228.228 111.755L229.166 111.197L232.085 116.1L232.172 116.048ZM238.133 110.004C237.664 110.283 237.372 110.671 237.259 111.167C237.145 111.663 237.225 112.182 237.498 112.723L240.738 110.795C240.418 110.281 240.02 109.952 239.544 109.806C239.069 109.661 238.598 109.727 238.133 110.004ZM241.844 112.715L242.782 112.156C242.944 112.75 242.891 113.32 242.626 113.867C242.364 114.412 241.913 114.875 241.273 115.256C240.459 115.74 239.651 115.852 238.85 115.59C238.047 115.324 237.368 114.726 236.814 113.795C236.262 112.868 236.062 111.985 236.213 111.147C236.364 110.308 236.843 109.649 237.65 109.168C238.443 108.696 239.224 108.589 239.992 108.846C240.76 109.102 241.417 109.689 241.963 110.605L242.177 110.965L237.95 113.481L237.976 113.525C238.347 114.092 238.786 114.456 239.291 114.618C239.8 114.778 240.304 114.71 240.802 114.414C241.562 113.961 241.909 113.395 241.844 112.715ZM245.237 112.756L241.738 106.876L242.632 106.344L243.152 107.216L243.239 107.164C243.155 106.825 243.212 106.474 243.409 106.11C243.606 105.747 243.9 105.449 244.289 105.217C244.467 105.111 244.629 105.027 244.774 104.965L245.332 105.904C245.183 105.943 244.973 106.044 244.7 106.206C244.253 106.472 243.964 106.827 243.833 107.269C243.702 107.711 243.76 108.14 244.007 108.554L246.175 112.198L245.237 112.756ZM249.601 110.159L246.101 104.279L246.996 103.746L247.515 104.619L247.603 104.567C247.519 104.228 247.576 103.877 247.773 103.513C247.97 103.149 248.263 102.852 248.652 102.62C248.831 102.514 248.992 102.43 249.138 102.368L249.696 103.306C249.547 103.346 249.336 103.447 249.064 103.609C248.616 103.875 248.327 104.229 248.197 104.672C248.066 105.114 248.124 105.542 248.371 105.957L250.539 109.601L249.601 110.159Z" fill="#151522"/>
<path d="M254.663 107.22C254.47 107.335 254.262 107.366 254.037 107.312C253.815 107.252 253.646 107.126 253.531 106.933C253.415 106.737 253.384 106.529 253.44 106.308C253.5 106.085 253.626 105.917 253.819 105.802C254.015 105.685 254.223 105.655 254.444 105.711C254.664 105.767 254.833 105.893 254.95 106.089C255.064 106.282 255.095 106.49 255.041 106.714C254.985 106.935 254.859 107.103 254.663 107.22Z" fill="#FF6F3D"/>
<path d="M341.316 109.228C340.794 109.538 340.244 109.724 339.666 109.786C339.088 109.848 338.515 109.8 337.948 109.644C337.383 109.475 336.858 109.203 336.372 108.827C335.886 108.45 335.472 107.975 335.131 107.402C334.807 106.858 334.6 106.291 334.51 105.699C334.416 105.099 334.435 104.513 334.568 103.94C334.701 103.367 334.94 102.836 335.285 102.348C335.63 101.861 336.078 101.453 336.629 101.125C337.366 100.686 338.098 100.467 338.825 100.468C339.548 100.462 340.198 100.639 340.776 101.001L340.131 102.535C339.699 102.267 339.239 102.138 338.75 102.147C338.264 102.143 337.809 102.268 337.384 102.521C336.937 102.787 336.616 103.144 336.42 103.594C336.231 104.039 336.159 104.521 336.205 105.038C336.258 105.551 336.426 106.046 336.71 106.523C337.007 107.021 337.376 107.412 337.816 107.695C338.257 107.977 338.723 108.133 339.215 108.163C339.71 108.182 340.184 108.055 340.638 107.785C341.406 107.328 341.883 106.555 342.071 105.465L341.739 104.906L340.141 105.857L339.47 104.729L342.341 103.02L344.768 107.097L343.494 107.855L342.962 106.962C342.699 107.976 342.15 108.731 341.316 109.228ZM348.717 104.898C348.084 105.275 347.455 105.463 346.829 105.462C346.211 105.457 345.64 105.302 345.116 104.999C344.588 104.688 344.165 104.264 343.846 103.728C343.518 103.177 343.339 102.597 343.31 101.989C343.284 101.369 343.42 100.784 343.718 100.234C344.011 99.6761 344.478 99.2066 345.118 98.8254C345.759 98.4442 346.39 98.2599 347.013 98.2725C347.631 98.2777 348.197 98.4403 348.71 98.7602C349.226 99.0682 349.642 99.4866 349.957 100.015C350.072 100.209 350.16 100.383 350.222 100.538L345.698 103.231C346.006 103.663 346.386 103.921 346.839 104.004C347.299 104.083 347.727 104.005 348.122 103.77C348.42 103.593 348.657 103.356 348.833 103.059C349.013 102.751 349.08 102.448 349.035 102.152L350.532 101.745C350.582 102.321 350.455 102.895 350.152 103.47C349.843 104.036 349.365 104.512 348.717 104.898ZM345.099 102.301L348.16 100.479C347.854 100.067 347.476 99.8125 347.026 99.7173C346.579 99.6102 346.151 99.6785 345.741 99.9223C345.339 100.162 345.074 100.506 344.948 100.954C344.825 101.391 344.875 101.84 345.099 102.301ZM355.897 100.065C355.75 100.274 355.553 100.512 355.309 100.778C355.071 101.041 354.796 101.265 354.483 101.451C354.208 101.615 353.926 101.717 353.637 101.758C353.349 101.799 353.072 101.757 352.806 101.632C352.544 101.496 352.31 101.257 352.106 100.914L350.105 97.5517L349.334 98.0105L348.65 96.8599L349.42 96.4011L348.29 94.502L349.787 93.6111L350.917 95.5102L352.146 94.7788L352.831 95.9294L351.602 96.6608L353.304 99.5206C353.424 99.7217 353.562 99.8359 353.72 99.8632C353.885 99.8861 354.045 99.851 354.202 99.7579C354.358 99.6648 354.495 99.5479 354.613 99.4071C354.731 99.2663 354.824 99.1507 354.891 99.0603L355.897 100.065ZM356.812 94.4831C356.523 93.9991 356.325 93.4714 356.217 92.9003C356.117 92.3247 356.121 91.7473 356.23 91.168C356.339 90.5888 356.57 90.0434 356.921 89.5318C357.267 89.0128 357.75 88.5694 358.368 88.2015C359.09 87.7716 359.815 87.5571 360.542 87.5582C361.268 87.5593 361.915 87.7393 362.482 88.098L361.783 89.6182C361.471 89.4001 361.157 89.2697 360.839 89.227C360.521 89.1842 360.213 89.2009 359.916 89.2772C359.626 89.349 359.365 89.4536 359.134 89.591C358.747 89.8215 358.455 90.1013 358.257 90.4306C358.067 90.7554 357.951 91.1021 357.908 91.4705C357.865 91.839 357.888 92.2084 357.978 92.5788C358.074 92.9448 358.216 93.2842 358.402 93.597C358.681 94.0662 359.04 94.448 359.477 94.7423C359.91 95.0293 360.377 95.1952 360.878 95.24C361.378 95.2849 361.86 95.17 362.321 94.8952C362.56 94.7533 362.781 94.5661 362.986 94.3335C363.197 94.0964 363.358 93.8242 363.468 93.5169C363.577 93.2097 363.608 92.8791 363.558 92.5251L365.253 92.5C365.324 92.9922 365.266 93.4802 365.08 93.9641C364.89 94.4406 364.619 94.884 364.269 95.2945C363.913 95.6975 363.52 96.0275 363.088 96.2846C362.522 96.6215 361.936 96.8141 361.329 96.8625C360.725 96.899 360.137 96.8255 359.564 96.6422C358.987 96.4514 358.457 96.1715 357.975 95.8027C357.496 95.422 357.109 94.9821 356.812 94.4831ZM365.766 92.2551C365.54 91.8753 365.447 91.4818 365.487 91.0747C365.53 90.6557 365.695 90.255 365.982 89.8726C366.268 89.4901 366.658 89.1526 367.149 88.8601C367.395 88.7138 367.658 88.5876 367.937 88.4816C368.213 88.3682 368.466 88.2933 368.696 88.2569L368.51 87.9441C368.289 87.5718 368.006 87.3515 367.663 87.2834C367.327 87.2109 366.944 87.3031 366.512 87.5602C366.191 87.7508 365.919 87.9884 365.695 88.273C365.471 88.5576 365.264 88.9031 365.072 89.3097L364.006 88.6125C364.243 88.1288 364.525 87.704 364.851 87.3381C365.186 86.9677 365.576 86.6495 366.023 86.3835C366.857 85.8871 367.629 85.71 368.339 85.8523C369.057 85.9901 369.646 86.4462 370.107 87.2208L371.217 89.0864C371.315 89.2502 371.409 89.3501 371.501 89.3861C371.589 89.4147 371.704 89.3965 371.847 89.3316L372.572 90.5493C372.456 90.6588 372.344 90.7506 372.237 90.8245C372.141 90.9015 372.056 90.9621 371.982 91.0064C371.684 91.1837 371.417 91.2519 371.181 91.2109C370.944 91.17 370.754 91.0615 370.609 90.8856L370.396 90.6039C370.335 91.0942 370.167 91.5417 369.894 91.9465C369.623 92.3395 369.291 92.6534 368.896 92.8883C368.501 93.1232 368.105 93.2533 367.706 93.2787C367.304 93.2966 366.931 93.2209 366.588 93.0517C366.248 92.8707 365.974 92.6051 365.766 92.2551ZM369.587 90.3893C369.667 90.0997 369.658 89.873 369.561 89.7092L369.208 89.1171C368.728 89.1912 368.29 89.3457 367.896 89.5806C367.501 89.8155 367.232 90.0918 367.088 90.4093C366.94 90.7195 366.947 91.0123 367.111 91.2878C367.244 91.5113 367.454 91.6592 367.739 91.7315C368.024 91.8039 368.334 91.7403 368.669 91.5409C368.892 91.4079 369.084 91.2384 369.244 91.0324C369.411 90.8219 369.525 90.6075 369.587 90.3893ZM374.386 83.2973C373.932 83.5676 373.579 83.8986 373.328 84.2901C373.072 84.6741 372.964 85.0765 373.003 85.4973L375.11 89.0386L373.613 89.9295L370.129 84.0758L371.503 83.258L372.248 84.5092C372.21 83.9873 372.282 83.5157 372.465 83.0942C372.655 82.6683 372.922 82.3378 373.267 82.1027C373.423 82.0096 373.526 81.9535 373.575 81.9344L374.386 83.2973ZM375.779 84.6767C375.447 84.1181 375.255 83.5415 375.204 82.9468C375.152 82.3521 375.244 81.8032 375.479 81.3002C375.714 80.7971 376.085 80.3949 376.592 80.0935C377.024 79.8364 377.475 79.7139 377.946 79.726C378.42 79.7262 378.852 79.8325 379.24 80.045L377.259 76.716L378.756 75.825L382.612 82.3043C382.71 82.4681 382.805 82.5681 382.897 82.6041C382.984 82.6326 383.096 82.6167 383.231 82.5562L383.956 83.7739C383.719 83.9856 383.522 84.138 383.366 84.231C383.098 84.3906 382.834 84.4566 382.576 84.4289C382.325 84.3968 382.124 84.2794 381.973 84.0767L381.731 83.7214C381.732 84.2148 381.604 84.6692 381.347 85.0844C381.098 85.4953 380.772 85.8204 380.369 86.0597C379.826 86.3833 379.266 86.5351 378.689 86.5152C378.108 86.4879 377.563 86.318 377.054 86.0055C376.541 85.6856 376.116 85.2427 375.779 84.6767ZM380.836 82.726L380.005 81.3296C379.691 81.0729 379.324 80.9229 378.905 80.8798C378.486 80.8367 378.124 80.906 377.819 81.0878C377.513 81.2695 377.296 81.5147 377.167 81.8234C377.034 82.1247 376.986 82.4507 377.023 82.8016C377.056 83.1451 377.166 83.4732 377.352 83.786C377.543 84.1063 377.789 84.3583 378.09 84.5422C378.386 84.7187 378.7 84.8142 379.032 84.8287C379.366 84.8314 379.69 84.7397 380.002 84.5535C380.285 84.3851 380.509 84.1257 380.674 83.7756C380.846 83.4209 380.9 83.0711 380.836 82.726ZM385.045 83.1254L384.088 81.5168L385.317 80.7854L386.274 82.3941L385.045 83.1254Z" fill="#151522"/>
</g>
<defs>
<linearGradient id="paint0_linear" x1="574.197" y1="4.09532" x2="327.683" y2="321.7" gradientUnits="userSpaceOnUse">
<stop offset="0.359375" stop-color="#FF962E" stop-opacity="0.38"/>
<stop offset="1" stop-color="#00A3FF"/>
</linearGradient>
<clipPath id="clip0">
<rect width="556" height="505.359" fill="white"/>
</clipPath>
<clipPath id="clip1">
<rect width="16.8805" height="16.8805" fill="white" transform="translate(401.536 9.43066) rotate(52.2687)"/>
</clipPath>
</defs>
</svg>
