<svg width="339" height="342" viewBox="0 0 339 342" fill="none" xmlns="http://www.w3.org/2000/svg">
<path d="M199.109 126.099H186.472C186.178 126.099 185.982 125.906 185.982 125.615C185.982 125.324 186.178 125.13 186.472 125.13H199.109C199.403 125.13 199.599 125.324 199.599 125.615C199.599 125.906 199.403 126.099 199.109 126.099Z" fill="#2C163A"/>
<path d="M182.162 123.337C181.966 123.337 181.819 123.24 181.721 123.046L171.239 100.269C170.798 99.2997 169.818 98.6697 168.741 98.6697H163.353C163.059 98.6697 162.863 98.4758 162.863 98.1851C162.863 97.8943 163.059 97.7004 163.353 97.7004H168.741C170.21 97.7004 171.533 98.5243 172.121 99.8328L182.603 122.61C182.7 122.852 182.603 123.143 182.358 123.24C182.309 123.337 182.26 123.337 182.162 123.337Z" fill="#2C163A"/>
<path d="M172.267 101.287H205.869V111.706C205.869 115.147 203.028 117.958 199.55 117.958H179.957L172.267 101.287Z" fill="#F3ECDB"/>
<path d="M199.55 118.491H179.958C179.762 118.491 179.615 118.394 179.517 118.2L171.827 101.529C171.778 101.384 171.778 101.19 171.876 101.044C171.974 100.899 172.121 100.802 172.267 100.802H205.869C206.163 100.802 206.358 100.996 206.358 101.287V111.706C206.358 115.438 203.273 118.491 199.55 118.491ZM180.251 117.522H199.55C202.783 117.522 205.379 114.953 205.379 111.755V101.771H173.002L180.251 117.522Z" fill="#2C163A"/>
<path d="M183.435 129.153C181.476 129.153 179.908 127.553 179.908 125.663C179.908 123.725 181.525 122.174 183.435 122.174C185.394 122.174 186.962 123.773 186.962 125.663C187.011 127.553 185.394 129.153 183.435 129.153ZM183.435 123.095C182.015 123.095 180.888 124.258 180.888 125.615C180.888 126.972 182.064 128.135 183.435 128.135C184.807 128.135 185.982 126.972 185.982 125.615C185.982 124.258 184.856 123.095 183.435 123.095Z" fill="#2C163A"/>
<path d="M202.195 129.153C200.236 129.153 198.668 127.553 198.668 125.663C198.668 123.725 200.285 122.174 202.195 122.174C204.154 122.174 205.722 123.773 205.722 125.663C205.722 127.553 204.154 129.153 202.195 129.153ZM202.195 123.095C200.775 123.095 199.648 124.258 199.648 125.615C199.648 126.972 200.824 128.135 202.195 128.135C203.567 128.135 204.742 126.972 204.742 125.615C204.742 124.258 203.616 123.095 202.195 123.095Z" fill="#2C163A"/>
<path d="M131.221 168.02C131.074 168.601 130.878 169.183 130.682 169.813C120.543 170.297 111.874 170.782 101.783 171.218C98.5017 171.364 95.3179 170.249 92.9178 168.117L73.7171 151.155C74.6967 154.111 73.913 157.358 71.7088 159.539C71.0231 160.217 70.4353 161.041 70.0435 161.913C69.6516 162.786 69.4067 163.755 69.3088 164.724L68.0842 180.184H37.9117L34.63 150.864C29.6339 157.552 24.6867 164.191 19.6906 170.879C24.4908 178.197 29.242 185.563 34.0422 192.881C34.7279 193.947 35.4137 195.013 36.0994 196.079C36.0014 196.322 35.9035 196.709 35.6586 197.146C35.1198 198.357 34.1401 200.053 32.2789 201.507C29.9277 203.349 27.4297 203.785 26.2541 203.93C26.1562 203.93 26.0092 203.93 25.9113 203.979L4.21253 176.452C2.15531 173.641 2.00837 169.861 3.86966 166.953L20.2784 140.784C22.7275 136.858 26.4501 133.902 30.8094 132.303L36.7362 130.17L45.6508 126.972L45.9447 126.875C47.4631 130.51 50.353 133.805 54.2225 134.629C56.4267 135.114 58.9247 134.629 60.688 133.224C62.3044 131.915 63.1861 129.734 62.7942 127.699C62.7453 127.505 62.6963 127.311 62.6473 127.166L70.6313 130.994L80.8194 135.841C82.9256 136.858 84.8848 138.264 86.4522 139.96L102.175 156.922H130.731C130.976 157.649 131.319 158.618 131.515 159.733C131.711 160.799 131.858 162.01 131.858 163.367C131.809 164.53 131.711 166.13 131.221 168.02Z" fill="#F3ECDB"/>
<path d="M85.7176 323.536C87.285 326.831 74.8927 327.897 69.6027 325.717C64.3127 323.536 57.2104 318.69 57.2104 318.69H57.1124C56.7696 316.121 56.2308 313.359 55.3491 310.596C56.4757 311.662 61.0799 315.879 65.9291 318.69C69.4558 320.725 73.4232 321.549 78.0275 320.143C79.8398 319.61 80.4766 317.478 79.301 316.218C82.3379 318.496 84.2971 320.677 85.7176 323.536Z" fill="#2C163A"/>
<path d="M62.5984 127.166C62.6473 127.36 62.6963 127.553 62.7453 127.699C61.4718 127.408 60.2962 126.681 59.4636 125.663C58.5819 124.597 58.1411 123.143 58.239 121.786V121.399C59.7574 121.399 61.3248 120.962 62.5984 120.042C65.3413 118.103 66.6148 114.614 66.7128 111.318C66.7618 110.252 66.5169 108.362 66.125 106.181C66.125 106.133 66.174 106.036 66.174 105.939C66.174 105.697 66.125 105.503 65.9781 105.358C65.1944 100.947 63.9698 95.6651 63.3821 93.5812L63.1861 93.4358C64.2147 92.3696 64.9005 90.9157 65.0474 89.4619H65.0964C69.4557 92.7088 77.0479 109.041 70.6803 130.897L62.5984 127.166Z" fill="#2C163A"/>
<path d="M66.1254 105.988C66.1254 106.084 66.1254 106.133 66.0763 106.23C66.0272 105.939 65.9781 105.697 65.929 105.406C66.0272 105.6 66.1254 105.794 66.1254 105.988Z" fill="#2C163A"/>
<path d="M66.076 106.23C65.978 106.714 65.5372 107.102 64.9984 107.102C64.3616 107.102 63.8718 106.618 63.8718 105.988C63.8718 105.358 64.3616 104.873 64.9984 104.873C65.3902 104.873 65.7331 105.067 65.929 105.406C65.978 105.697 66.027 105.939 66.076 106.23Z" fill="#2C163A"/>
<path d="M45.8467 126.778C45.8467 126.826 45.8956 126.875 45.8956 126.923L45.6017 127.02L36.6871 130.219C33.2584 123.822 29.9767 117.425 29.9277 110.155C29.8787 101.626 33.6993 92.0788 40.8506 87.281C48.0018 82.4832 57.3573 81.9017 64.4596 86.8449C64.9004 87.7172 64.9984 88.638 64.9494 89.5588C64.8024 91.0127 64.1167 92.4665 63.0881 93.5327C61.4227 95.3258 59.0716 96.3435 56.7695 97.1189C54.4674 97.9428 52.0673 98.5728 49.9611 99.8813C47.9039 101.141 46.1405 103.225 45.9446 105.648V105.697C45.6507 105.648 45.4058 105.648 45.1119 105.648C44.2303 105.648 43.2996 106.036 42.7118 106.715C42.1241 107.393 41.9771 108.459 42.4669 109.235C42.8098 109.768 43.3976 110.107 44.0343 110.252C44.5731 110.398 45.1119 110.398 45.6507 110.398V110.688C45.3568 112.869 45.7487 115.147 46.4834 117.231C47.1202 119.072 48.0018 120.866 48.9325 122.562L48.8835 122.61C48.7855 124.403 47.561 126.148 45.8467 126.778Z" fill="#2C163A"/>
<path d="M56.9654 106.811C57.6022 106.811 58.092 107.296 58.092 107.926C58.092 108.556 57.6022 109.041 56.9654 109.041C56.3287 109.041 55.8389 108.556 55.8389 107.926C55.8389 107.296 56.3287 106.811 56.9654 106.811Z" fill="#2C163A"/>
<path d="M55.349 310.596C56.2306 313.407 56.7694 316.121 57.1123 318.69C59.3165 335.991 50.8427 347.573 45.6996 338.22C39.6749 327.267 43.8384 313.892 45.2588 308.173C43.7894 314.376 43.4955 321.258 45.3568 327.316C46.4833 331.048 50.2059 332.259 52.0182 329.109C55.7898 322.712 56.1817 318.496 54.6632 308.464C54.9081 309.191 55.1531 309.869 55.349 310.596Z" fill="#2C163A"/>
<path d="M25.9112 204.415C25.7643 204.415 25.6173 204.366 25.5194 204.221L3.82063 176.791C1.61647 173.787 1.46952 169.813 3.42878 166.711L19.8375 140.541C22.3356 136.567 26.1561 133.466 30.6134 131.867L45.4058 126.536C45.6507 126.439 45.9446 126.584 46.0426 126.826C46.1405 127.069 45.9936 127.36 45.7487 127.456L30.9563 132.787C26.6949 134.338 23.0703 137.246 20.6702 141.074L4.26146 167.196C2.49813 170.007 2.64507 173.496 4.60433 176.161L26.1071 203.397H26.1561C27.6256 203.252 29.8297 202.719 31.9359 201.071C33.6993 199.666 34.6789 198.018 35.1687 196.903C35.3156 196.612 35.4136 196.37 35.5116 196.079L33.5523 193.075C28.7521 185.757 24.0009 178.391 19.2008 171.073C19.1028 170.927 19.1028 170.685 19.2008 170.54L35.8544 148.247C36.0014 148.053 36.3442 148.005 36.5402 148.15C36.7361 148.295 36.7851 148.635 36.6381 148.828L20.1804 170.83C24.8826 178.051 29.5848 185.321 34.336 192.542L36.3932 195.74C36.4912 195.837 36.4912 196.031 36.4422 196.128C36.3442 196.516 36.1973 196.903 36.0014 197.243C35.4626 198.503 34.385 200.296 32.4747 201.798C30.1726 203.591 27.7725 204.173 26.2051 204.318C26.1561 204.415 26.0092 204.415 25.9112 204.415Z" fill="#2C163A"/>
<path d="M101.147 171.751C97.9629 171.751 94.926 170.588 92.5259 168.504L73.3253 151.542C73.1293 151.348 73.1293 151.058 73.2763 150.864C73.4722 150.67 73.7661 150.67 73.962 150.815L93.1627 167.777C95.5138 169.861 98.5507 170.927 101.685 170.782C106.731 170.54 111.433 170.297 116.135 170.055C120.739 169.813 125.343 169.57 130.242 169.377C130.389 168.892 130.535 168.407 130.682 167.923C131.074 166.42 131.27 164.918 131.27 163.367C131.27 162.204 131.172 160.992 130.927 159.829C130.78 159.006 130.535 158.182 130.291 157.406H102.077C101.93 157.406 101.832 157.358 101.734 157.261L86.0114 140.347C84.444 138.651 82.6317 137.294 80.5255 136.325L62.0595 127.456C61.8146 127.36 61.7167 127.069 61.8146 126.826C61.9126 126.584 62.2065 126.487 62.4514 126.584L62.7943 126.73L80.9664 135.404C83.1705 136.47 85.1298 137.876 86.7462 139.669L102.322 156.437H130.682C130.878 156.437 131.074 156.582 131.123 156.776C131.466 157.697 131.76 158.715 131.956 159.684C132.201 160.944 132.299 162.156 132.299 163.416C132.299 165.015 132.103 166.663 131.711 168.213C131.564 168.843 131.368 169.473 131.123 170.055C131.074 170.249 130.878 170.346 130.682 170.394C125.637 170.637 120.935 170.879 116.233 171.121C111.531 171.363 106.829 171.606 101.783 171.848C101.539 171.751 101.343 171.751 101.147 171.751Z" fill="#2C163A"/>
<path d="M68.0352 180.668H37.9116C37.6667 180.668 37.4708 180.474 37.4218 180.232L34.1401 150.912C34.0911 150.67 34.287 150.428 34.5809 150.379C34.8258 150.331 35.0707 150.525 35.1197 150.815L38.3525 179.748H67.5943L68.8189 164.724C68.9168 163.706 69.1618 162.689 69.6026 161.768C70.0434 160.847 70.6312 159.975 71.3659 159.248C73.4721 157.164 74.1579 154.111 73.2762 151.348L70.6802 143.449C70.5822 143.207 70.7291 142.916 70.9741 142.819C71.219 142.722 71.5129 142.868 71.6108 143.11L74.2068 151.009C75.2354 154.159 74.4028 157.552 72.0517 159.878C71.4149 160.556 70.8761 161.283 70.4842 162.107C70.0924 162.931 69.8475 163.852 69.7985 164.724L68.574 180.184C68.476 180.474 68.2801 180.668 68.0352 180.668Z" fill="#2C163A"/>
<path d="M55.9367 135.307C55.3489 135.307 54.7121 135.259 54.0754 135.114C50.4508 134.338 47.218 131.333 45.4057 127.069C45.4057 127.02 45.3567 126.972 45.3567 126.923C45.3567 126.875 45.3077 126.826 45.3077 126.778C45.2098 126.536 45.3077 126.245 45.6016 126.148C45.8465 126.051 46.1404 126.148 46.2384 126.39V126.439C46.2384 126.487 46.2384 126.487 46.2874 126.536C46.2874 126.536 46.2874 126.584 46.3363 126.584C46.3363 126.633 46.3363 126.633 46.3853 126.681C48.0507 130.655 51.0385 133.466 54.3203 134.144C56.5245 134.629 58.7776 134.144 60.345 132.836C61.8634 131.624 62.5981 129.589 62.2553 127.796C62.2063 127.602 62.1573 127.456 62.1083 127.311C62.0104 127.069 62.1573 126.778 62.4512 126.681C62.6961 126.584 62.99 126.73 63.088 127.02C63.1369 127.214 63.1859 127.408 63.2349 127.65C63.6268 129.783 62.7451 132.157 60.9818 133.611C59.5613 134.726 57.798 135.307 55.9367 135.307Z" fill="#2C163A"/>
<path d="M33.9931 193.365C33.9441 193.365 33.8951 193.365 33.8461 193.365C33.6012 193.317 33.4543 193.026 33.5033 192.784C33.6502 192.299 33.7482 191.863 33.8951 191.427L37.4218 180.135C37.5197 179.893 37.7647 179.748 38.0096 179.796C38.2545 179.893 38.4014 180.135 38.3524 180.378L34.8258 191.718C34.6788 192.154 34.5319 192.639 34.4339 193.075C34.3849 193.22 34.189 193.365 33.9931 193.365Z" fill="#2C163A"/>
<path d="M53.9287 251.908C47.1203 251.908 41.6833 249.776 38.2057 247.886C37.7648 247.644 37.324 247.401 36.8342 247.11C36.6872 247.014 36.6382 246.917 36.5893 246.771L31.985 216.385C31.7891 215.174 31.6422 213.962 31.5442 212.751C31.5442 212.46 31.7401 212.266 31.985 212.217C32.2789 212.217 32.4748 212.411 32.5238 212.654C32.6218 213.865 32.7687 215.077 32.9646 216.24L37.5689 246.384C37.9607 246.626 38.3036 246.82 38.6955 247.014C42.3691 249.001 48.2958 251.278 55.741 250.891C56.3288 250.842 56.9655 250.794 57.6023 250.745C61.6677 250.261 65.5862 249.049 69.2109 247.062C69.6027 246.868 69.9456 246.626 70.2884 246.432L75.5295 205.433C76.1172 200.829 75.3335 196.128 73.2763 191.96L67.5945 180.426C67.4965 180.184 67.5945 179.893 67.8394 179.796C68.0843 179.699 68.3782 179.796 68.4761 180.038L74.158 191.572C76.3132 195.934 77.1458 200.78 76.5091 205.578L71.2191 246.82C71.2191 246.965 71.1211 247.11 70.9742 247.159C70.5823 247.401 70.1415 247.644 69.6517 247.934C65.8801 249.97 61.8637 251.278 57.6513 251.763C56.9655 251.86 56.3288 251.908 55.692 251.908C55.1532 251.908 54.5164 251.908 53.9287 251.908Z" fill="#2C163A"/>
<path d="M62.9901 128.232C62.9411 128.232 62.9411 128.232 62.8922 128.232L62.6473 128.183C61.2268 127.893 59.9533 127.117 59.0716 126.003C58.141 124.84 57.6022 123.289 57.7001 121.786C57.7001 121.496 57.945 121.302 58.2389 121.35C58.5328 121.35 58.7287 121.593 58.6798 121.883C58.5818 123.143 59.0226 124.452 59.8063 125.421C60.5411 126.342 61.6186 127.02 62.8432 127.263L63.0881 127.311C63.333 127.36 63.5289 127.602 63.4799 127.893C63.431 128.086 63.235 128.232 62.9901 128.232Z" fill="#2C163A"/>
<path d="M45.9446 127.214C45.7487 127.214 45.5528 127.117 45.5038 126.923C45.4058 126.681 45.5038 126.39 45.7977 126.293C47.3161 125.712 48.4427 124.161 48.4916 122.513C48.4916 122.223 48.7365 122.029 48.9814 122.029C49.2753 122.029 49.4713 122.271 49.4713 122.513C49.3733 124.5 48.0018 126.39 46.1405 127.117C46.0426 127.214 45.9936 127.214 45.9446 127.214Z" fill="#2C163A"/>
<path d="M65.929 105.891C65.684 105.891 65.4881 105.745 65.4391 105.503C64.6554 101.044 63.3819 95.762 62.8431 93.775C62.7941 93.5327 62.9411 93.2419 63.186 93.1935C63.4309 93.0965 63.7248 93.2904 63.7738 93.5327C64.3126 95.5197 65.5861 100.851 66.4188 105.358C66.4677 105.6 66.2718 105.891 66.0269 105.939C65.9779 105.891 65.9779 105.891 65.929 105.891Z" fill="#2C163A"/>
<path d="M58.2388 121.932C58.1899 121.932 58.1899 121.932 58.2388 121.932C56.0837 121.932 54.2224 121.108 53.0468 119.654C52.8999 119.46 52.8999 119.121 53.1448 118.976C53.3407 118.83 53.6836 118.83 53.8305 119.072C54.8101 120.284 56.4265 120.962 58.2388 121.011C59.7083 121.011 61.1287 120.575 62.2553 119.751C64.6064 118.055 66.0759 114.953 66.1738 111.367C66.2228 110.446 66.0269 108.75 65.586 106.327C65.5371 106.085 65.733 105.794 65.9779 105.745C66.2228 105.697 66.5167 105.891 66.5657 106.133C67.0065 108.605 67.1535 110.349 67.1535 111.367C67.0555 115.244 65.4391 118.636 62.8431 120.478C61.5206 121.399 59.9042 121.932 58.2388 121.932Z" fill="#2C163A"/>
<path d="M45.9937 106.133C45.9447 106.133 45.9447 106.133 45.9937 106.133C45.6998 106.133 45.5039 105.891 45.5039 105.6C45.6998 103.274 47.2672 100.996 49.7653 99.4451C51.5286 98.379 53.4879 97.7005 55.3981 97.0705C55.839 96.9251 56.2308 96.7797 56.6717 96.6343C58.7779 95.9074 61.1779 94.9381 62.7943 93.1935C63.774 92.1273 64.4107 90.8188 64.5087 89.4619C64.6066 88.5895 64.4597 87.7657 64.0678 87.0387C63.9699 86.7964 64.0678 86.5056 64.3128 86.4087C64.5577 86.3118 64.8515 86.4087 64.9495 86.651C65.3903 87.5234 65.5863 88.5411 65.4393 89.6072C65.2924 91.1096 64.5577 92.6604 63.4801 93.8719C61.7167 95.762 59.1697 96.8282 56.9655 97.6036C56.5247 97.7489 56.1329 97.8943 55.692 98.0397C53.8307 98.6697 51.9205 99.2998 50.2551 100.317C48.0509 101.674 46.6305 103.71 46.4835 105.697C46.4346 105.939 46.2386 106.133 45.9937 106.133Z" fill="#2C163A"/>
<path d="M45.4548 110.834C44.965 110.834 44.4262 110.834 43.9364 110.688C43.1037 110.495 42.4669 110.058 42.0751 109.477C41.4873 108.556 41.6343 107.296 42.369 106.424C43.0057 105.697 44.0343 105.212 45.1609 105.212C45.4548 105.212 45.7487 105.212 46.0916 105.261C46.6793 105.358 47.3161 105.551 48.0018 105.842C48.2467 105.939 48.3447 106.23 48.2467 106.472C48.1488 106.714 47.8549 106.811 47.61 106.714C47.0222 106.424 46.4834 106.278 45.9446 106.181C45.6997 106.133 45.4548 106.133 45.2099 106.133C44.3772 106.133 43.5935 106.472 43.1527 107.005C42.6629 107.587 42.6139 108.411 42.9567 108.944C43.2017 109.331 43.6425 109.622 44.2303 109.719C44.7201 109.816 45.2099 109.816 45.7487 109.816C45.8467 109.816 45.9446 109.816 45.9936 109.816C46.2385 109.816 46.4834 110.01 46.4834 110.301C46.4834 110.592 46.2875 110.785 45.9936 110.785C45.8956 110.785 45.7977 110.785 45.6997 110.785C45.6017 110.834 45.5038 110.834 45.4548 110.834Z" fill="#2C163A"/>
<path d="M49.3734 123.676C49.1775 123.676 49.0305 123.579 48.9325 123.434L48.5897 122.756C47.708 121.059 46.7774 119.266 46.0916 117.328C45.2589 114.905 44.965 112.627 45.21 110.543C45.2589 110.301 45.5038 110.107 45.7488 110.107C45.9937 110.155 46.1896 110.398 46.1896 110.64C45.9447 112.53 46.2386 114.662 47.0223 116.94C47.659 118.782 48.5897 120.575 49.4713 122.223L49.8142 122.901C49.9612 123.143 49.8632 123.434 49.6183 123.531C49.5203 123.628 49.4224 123.676 49.3734 123.676Z" fill="#2C163A"/>
<path d="M36.6871 130.703C36.4912 130.703 36.3443 130.607 36.2463 130.461C32.4258 123.289 29.4869 117.279 29.4379 110.155C29.3889 100.705 33.8462 91.3519 40.6057 86.8449C48.2467 81.7078 57.7491 81.5625 64.8025 86.4087C65.0474 86.5541 65.0963 86.8449 64.9004 87.0872C64.7535 87.3295 64.4596 87.378 64.2147 87.1841C57.5042 82.5802 48.4427 82.7256 41.1445 87.6203C34.6789 91.9334 30.3685 100.996 30.4175 110.107C30.4665 116.989 33.3564 122.901 37.128 129.928C37.2749 130.17 37.177 130.461 36.9321 130.607C36.8341 130.655 36.7851 130.703 36.6871 130.703Z" fill="#2C163A"/>
<path d="M70.5823 131.479C70.5333 131.479 70.4844 131.479 70.4354 131.479C70.1905 131.382 70.0435 131.14 70.0925 130.897C76.4111 109.235 68.868 93.0965 64.6556 89.9949C64.4596 89.8496 64.4107 89.5103 64.5576 89.3165C64.7046 89.1226 65.0474 89.0742 65.2433 89.2195C67.5455 90.9157 70.5823 95.9074 72.2477 103.225C73.6192 109.283 74.5498 119.072 71.0231 131.188C70.9742 131.333 70.7782 131.479 70.5823 131.479Z" fill="#2C163A"/>
<path d="M62.5983 111.125C62.5493 111.125 62.5493 111.125 62.5003 111.125C62.2065 111.125 62.0105 110.882 62.0595 110.592C62.0595 110.301 62.3044 110.107 62.5983 110.155C62.9902 110.204 63.284 109.768 63.333 109.38C63.382 108.944 63.1861 108.459 62.7942 107.926C62.6473 107.732 62.5003 107.587 62.4024 107.393C62.1085 107.054 61.8146 106.715 61.6187 106.327C60.5901 104.534 61.2268 102.062 62.9902 100.948C63.2351 100.802 63.529 100.851 63.6759 101.093C63.8228 101.335 63.7739 101.626 63.529 101.771C62.2065 102.595 61.7166 104.534 62.5003 105.891C62.6963 106.23 62.9412 106.521 63.1861 106.86C63.333 107.054 63.48 107.248 63.6269 107.393C64.1657 108.168 64.4106 108.847 64.3616 109.525C64.1657 110.301 63.48 111.125 62.5983 111.125Z" fill="#2C163A"/>
<path d="M52.5081 105.551C52.4102 105.551 52.3122 105.503 52.2142 105.454C52.0183 105.309 51.9693 104.97 52.1653 104.776C53.5857 103.031 56.1327 102.353 58.2389 103.177C58.4838 103.274 58.6308 103.564 58.5328 103.807C58.4349 104.049 58.141 104.194 57.8961 104.098C56.2307 103.468 54.0755 104.001 52.9 105.406C52.802 105.454 52.6551 105.551 52.5081 105.551Z" fill="#2C163A"/>
<path d="M60.8349 118.152C60.688 118.152 60.59 118.152 60.4431 118.103C59.4145 117.958 58.4348 117.328 57.945 116.359C57.7981 116.116 57.896 115.825 58.1409 115.729C58.3858 115.583 58.6797 115.68 58.7777 115.922C59.1206 116.552 59.8063 117.037 60.492 117.134C61.2268 117.231 62.0105 116.94 62.5003 116.407C62.6962 116.213 62.9901 116.213 63.186 116.359C63.382 116.552 63.382 116.843 63.235 117.037C62.6962 117.764 61.7656 118.152 60.8349 118.152Z" fill="#2C163A"/>
<path d="M66.076 106.714C65.7821 106.714 65.5862 106.521 65.5862 106.23C65.5862 105.939 65.7821 105.745 66.076 105.745C66.3699 105.745 66.5658 105.939 66.5658 106.23C66.5658 106.472 66.3699 106.714 66.076 106.714Z" fill="#2C163A"/>
<path d="M73.4722 321.307C70.8272 321.307 68.2312 320.58 65.6842 319.077C60.6391 316.121 55.9369 311.759 55.0063 310.936C54.8103 310.79 54.7124 310.693 54.7124 310.693C54.5164 310.499 54.5164 310.209 54.7124 310.015C54.9083 309.821 55.2022 309.821 55.3981 310.015C55.3981 310.015 55.4961 310.112 55.643 310.257C56.5247 311.081 61.1779 315.394 66.125 318.302C69.8966 320.483 73.7171 320.967 77.8316 319.707C78.5663 319.465 79.1051 318.932 79.301 318.253C79.448 317.623 79.35 317.042 78.9092 316.557C78.8112 316.412 78.6643 316.315 78.5173 316.218C78.3214 316.121 78.1744 315.976 77.9785 315.879L77.5867 315.636C73.2763 312.826 67.4965 308.706 64.3617 306.477C63.676 305.992 63.1372 305.605 62.7943 305.362C62.6474 305.265 62.5494 305.072 62.5984 304.926L68.917 247.45C68.9659 247.207 69.1619 247.013 69.4558 247.013C69.7007 247.062 69.8966 247.304 69.8966 247.547L63.627 304.732C63.9698 304.975 64.4107 305.314 64.9495 305.702C68.0353 307.931 73.8641 312.05 78.1255 314.813L78.5173 315.055C78.7132 315.152 78.8602 315.297 79.0561 315.394C79.252 315.539 79.448 315.685 79.6439 315.879C80.2806 316.557 80.5255 317.526 80.2806 318.447C79.9868 319.465 79.2031 320.24 78.1744 320.58C76.5581 321.064 74.9907 321.307 73.4722 321.307Z" fill="#2C163A"/>
<path d="M45.6017 307.301C45.3568 307.301 45.1119 307.107 45.1119 306.816C45.0629 305.508 44.1812 299.741 43.0547 292.471C39.7239 270.712 36.883 250.842 37.9606 247.353C38.0586 247.11 38.3035 246.965 38.5484 247.014C38.7933 247.11 38.9402 247.353 38.8912 247.595C37.7647 251.181 41.6832 276.915 44.0343 292.326C45.2098 299.935 46.0425 305.411 46.0915 306.768C46.0915 307.059 45.8956 307.301 45.6017 307.301Z" fill="#2C163A"/>
<path d="M54.5164 306.865C54.4674 306.865 54.4674 306.865 54.5164 306.865C54.2225 306.865 54.0266 306.622 54.0266 306.332L57.5533 244.445C57.5533 244.154 57.7982 243.96 58.0921 244.009C58.386 244.009 58.5819 244.251 58.5329 244.542L55.0062 306.428C54.9573 306.671 54.7613 306.865 54.5164 306.865Z" fill="#2C163A"/>
<path d="M49.2754 331.387C49.1285 331.387 49.0305 331.387 48.8836 331.387C47.1203 331.193 45.5529 329.642 44.8671 327.461C43.1528 321.888 43.1528 315.006 44.7692 308.076C44.8181 307.834 45.112 307.64 45.3569 307.737C45.6018 307.786 45.7978 308.076 45.6998 308.319C44.0834 315.103 44.1324 321.791 45.7978 327.171C46.3366 328.964 47.6101 330.272 48.9816 330.418C50.0102 330.514 50.9408 329.981 51.5776 328.867C55.2022 322.712 55.692 318.738 54.1736 308.561C54.0756 307.931 53.9777 307.252 53.8797 306.526C53.8797 306.477 53.8797 306.429 53.8797 306.429C53.8797 306.138 54.0756 305.944 54.3695 305.944C54.6144 305.944 54.8103 306.138 54.8593 306.332C54.8593 306.332 54.8593 306.332 54.8593 306.38C54.9573 307.107 55.1042 307.786 55.1532 308.416C56.7206 318.738 56.1328 323.051 52.4592 329.351C51.6755 330.66 50.5 331.387 49.2754 331.387Z" fill="#2C163A"/>
<path d="M45.3079 308.464C45.2589 308.464 45.2099 308.464 45.2099 308.464C44.965 308.416 44.7691 308.125 44.8671 307.882C44.965 307.495 45.063 307.107 45.161 306.719C45.2099 306.477 45.5038 306.283 45.7487 306.38C45.9936 306.429 46.1896 306.719 46.0916 306.962C45.9936 307.349 45.8957 307.737 45.7977 308.125C45.7487 308.27 45.5528 308.464 45.3079 308.464Z" fill="#2C163A"/>
<path d="M49.9121 342C48.6386 342 46.8752 341.322 45.3078 338.414C39.626 328.091 42.7608 315.927 44.4752 309.385C44.6221 308.9 44.7201 308.415 44.818 308.028C44.818 307.979 44.818 307.979 44.867 307.931V307.834C44.916 307.592 45.2099 307.398 45.4548 307.446C45.6997 307.495 45.8956 307.737 45.8466 308.028L45.7977 308.222C45.6997 308.658 45.5527 309.142 45.4548 309.627C43.7894 316.024 40.7036 327.946 46.1895 337.978C47.1202 339.674 48.6876 341.564 50.7937 340.885C54.7612 339.625 58.1409 330.224 56.6715 318.738C56.3286 316.073 55.7409 313.359 54.9082 310.693C54.7123 310.015 54.4673 309.336 54.2224 308.609C54.1245 308.367 54.2714 308.076 54.5163 307.979C54.7612 307.882 55.0551 308.028 55.1531 308.27C55.398 308.997 55.6429 309.724 55.8388 310.402C56.6715 313.116 57.2593 315.879 57.6022 318.593C59.1696 330.708 55.447 340.401 51.0387 341.806C50.7448 341.952 50.3529 342 49.9121 342Z" fill="#2C163A"/>
<path d="M76.9008 327.316C74.1088 327.316 71.3169 326.928 69.4066 326.153C64.1656 323.972 57.0143 319.126 56.9164 319.077C56.6715 318.932 56.6225 318.641 56.7694 318.399C56.9164 318.156 57.2103 318.108 57.4552 318.253C57.5041 318.302 64.6064 323.1 69.7495 325.232C74.2068 327.074 83.3173 326.395 85.0317 324.602C85.3255 324.311 85.3745 324.069 85.1786 323.73C83.8561 321.016 81.9948 318.883 78.909 316.606C78.4682 316.266 77.9783 315.927 77.4885 315.588C77.2436 315.443 77.1946 315.152 77.3416 314.909C77.4885 314.667 77.7824 314.619 78.0273 314.764C78.5171 315.103 79.007 315.443 79.4968 315.782C82.6806 318.156 84.6398 320.386 86.0603 323.293C86.4031 323.972 86.2562 324.699 85.7174 325.28C84.5418 326.589 80.7703 327.316 76.9008 327.316Z" fill="#2C163A"/>
<path d="M169.524 175.967H143.907C141.017 175.967 138.666 173.738 138.519 170.927C138.519 170.83 138.519 170.734 138.519 170.637V162.253C138.519 161.962 138.715 161.768 139.009 161.768C139.303 161.768 139.499 161.962 139.499 162.253V170.637C139.499 170.734 139.499 170.782 139.499 170.879C139.597 173.205 141.556 174.998 143.907 174.998H169.524C171.974 174.998 173.933 173.06 173.933 170.637V157.891C173.933 155.468 171.974 153.529 169.524 153.529H143.907C141.948 153.529 140.185 154.838 139.646 156.728C139.597 156.97 139.303 157.116 139.058 157.067C138.813 157.019 138.666 156.728 138.715 156.486C139.352 154.159 141.507 152.56 143.907 152.56H169.524C172.512 152.56 174.912 154.935 174.912 157.891V170.637C174.912 173.544 172.512 175.967 169.524 175.967Z" fill="#2C163A"/>
<path d="M135.532 164.191C135.238 164.191 135.042 163.997 135.042 163.706C135.042 163.416 135.238 163.222 135.532 163.222C136.56 163.222 137.589 162.834 138.372 162.156C138.421 162.107 138.47 162.059 138.519 162.01L138.617 161.913C138.911 161.623 139.156 161.38 139.548 161.186C140.528 160.605 141.605 160.799 142.634 160.993C143.026 161.041 143.369 161.138 143.711 161.138C144.348 161.186 144.838 161.089 145.181 160.847C145.475 160.605 145.72 160.169 145.524 159.829C145.377 159.587 145.034 159.393 144.74 159.199C143.613 158.569 142.438 157.939 141.164 157.552C140.528 157.358 139.793 157.261 139.058 157.261C136.315 157.164 133.572 158.279 132.103 160.023C131.956 160.217 131.613 160.266 131.417 160.072C131.221 159.878 131.172 159.587 131.368 159.393C133.034 157.358 136.021 156.146 139.107 156.243C139.94 156.243 140.724 156.389 141.458 156.582C142.83 156.97 144.054 157.649 145.23 158.327C145.622 158.569 146.161 158.86 146.405 159.393C146.748 160.12 146.503 161.089 145.769 161.623C145.23 162.01 144.544 162.156 143.662 162.107C143.271 162.059 142.879 162.01 142.487 161.962C141.556 161.816 140.724 161.671 140.038 162.059C139.793 162.204 139.597 162.398 139.352 162.64L139.303 162.689L139.205 162.786C139.156 162.834 139.058 162.931 139.009 162.979C138.079 163.706 136.805 164.191 135.532 164.191Z" fill="#2C163A"/>
<path d="M138.519 171.364H138.47C135.776 171.024 133.18 170.007 130.976 168.407C130.78 168.262 130.682 167.923 130.829 167.729C130.976 167.535 131.27 167.438 131.466 167.583L131.515 167.632C133.621 169.134 136.07 170.103 138.568 170.394C138.813 170.443 139.009 170.685 139.009 170.927C138.96 171.17 138.764 171.364 138.519 171.364Z" fill="#2C163A"/>
<path d="M32.0828 213.09C31.0541 213.09 30.1235 212.557 29.3398 212.169L24.9315 209.746C24.6866 209.6 24.5886 209.31 24.7355 209.067C24.8825 208.825 25.1764 208.728 25.4213 208.873L29.8296 211.297C30.5153 211.684 31.299 212.12 32.0828 212.12C32.1807 212.12 32.2297 212.12 32.3277 212.12C33.4052 211.975 34.1889 211.006 34.7767 210.182C36.3441 207.953 37.2258 205.82 37.4217 203.785C37.6666 201.362 36.9319 199.036 35.4135 197.533C35.2176 197.339 35.2176 197.049 35.4135 196.855C35.6094 196.661 35.9033 196.661 36.0992 196.855C37.8136 198.551 38.6952 201.168 38.4013 203.882C38.1564 206.063 37.2258 208.389 35.5604 210.715C34.8747 211.733 33.8461 212.896 32.4256 213.041C32.2787 213.09 32.1807 213.09 32.0828 213.09Z" fill="#2C163A"/>
<path d="M24.9805 209.697C24.9315 209.697 24.8826 209.697 24.7846 209.649C24.1968 209.407 23.805 208.728 23.9029 208.05C24.0009 207.516 24.3438 207.032 24.8826 206.693C24.9805 206.644 25.1275 206.547 25.2254 206.499C25.5193 206.353 25.8622 206.256 26.303 206.208C27.3806 206.063 28.4092 206.063 29.4868 206.256C29.7317 206.305 29.9276 206.547 29.8787 206.838C29.8297 207.08 29.5848 207.274 29.2909 207.226C28.3602 207.032 27.4296 207.032 26.45 207.177C26.1071 207.226 25.8132 207.274 25.6173 207.371C25.5193 207.42 25.4703 207.468 25.3724 207.468C25.0785 207.613 24.8826 207.904 24.8336 208.147C24.7846 208.389 24.9315 208.631 25.0785 208.68C25.3234 208.777 25.4703 209.067 25.3724 209.31C25.3724 209.552 25.1765 209.697 24.9805 209.697Z" fill="#2C163A"/>
<path d="M31.2993 208.583C31.2013 208.583 31.1034 208.534 31.0054 208.486C30.6625 208.195 30.2707 207.904 29.9278 207.613C29.6829 207.42 29.487 207.226 29.2421 207.032C28.5074 206.402 27.5767 205.53 27.2338 204.318C27.1359 204.076 27.2828 203.785 27.5767 203.736C27.8216 203.64 28.1155 203.785 28.1645 204.076C28.4584 205.045 29.1931 205.723 29.8788 206.353C30.0748 206.547 30.3197 206.741 30.5156 206.887C30.8585 207.177 31.2503 207.468 31.5932 207.759C31.7891 207.953 31.8381 208.243 31.6422 208.437C31.5442 208.486 31.3973 208.583 31.2993 208.583Z" fill="#2C163A"/>
<path d="M25.3235 207.177H25.2745C24.5888 207.08 24.05 206.45 24.05 205.723C24.001 205.142 24.2949 204.56 24.8337 204.173C25.1765 203.882 25.5684 203.688 26.1072 203.543C26.1562 203.543 26.2051 203.494 26.2051 203.494C26.4501 203.446 26.7439 203.591 26.7929 203.833C26.8419 204.076 26.7439 204.366 26.4501 204.415H26.4011H26.3521C25.9113 204.512 25.6174 204.657 25.4214 204.851C25.1765 205.093 24.9806 205.384 24.9806 205.626C24.9806 205.869 25.1765 206.111 25.3725 206.16C25.6174 206.208 25.8133 206.45 25.8133 206.693C25.7643 206.983 25.5684 207.177 25.3235 207.177Z" fill="#2C163A"/>
<path d="M166.782 161.671H164.724C163.549 161.671 162.618 160.75 162.618 159.587V159.296C162.618 158.133 163.549 157.212 164.724 157.212H166.782C167.957 157.212 168.888 158.133 168.888 159.296V159.587C168.888 160.702 167.908 161.671 166.782 161.671ZM164.675 158.133C164.039 158.133 163.549 158.618 163.549 159.248V159.539C163.549 160.169 164.039 160.653 164.675 160.653H166.733C167.369 160.653 167.859 160.169 167.859 159.539V159.248C167.859 158.618 167.369 158.133 166.733 158.133H164.675Z" fill="#2C163A"/>
<path d="M151.548 170.297H145.769C145.475 170.297 145.279 170.103 145.279 169.813C145.279 169.522 145.475 169.328 145.769 169.328H151.548C151.842 169.328 152.038 169.522 152.038 169.813C152.038 170.103 151.842 170.297 151.548 170.297Z" fill="#2C163A"/>
<path d="M159.679 170.297H153.899C153.606 170.297 153.41 170.103 153.41 169.813C153.41 169.522 153.606 169.328 153.899 169.328H159.679C159.973 169.328 160.169 169.522 160.169 169.813C160.169 170.103 159.924 170.297 159.679 170.297Z" fill="#2C163A"/>
<path d="M167.712 170.297H161.932C161.639 170.297 161.443 170.103 161.443 169.813C161.443 169.522 161.639 169.328 161.932 169.328H167.712C168.006 169.328 168.202 169.522 168.202 169.813C168.202 170.103 168.006 170.297 167.712 170.297Z" fill="#2C163A"/>
<path d="M272.434 201.653L268.271 187.356L247.699 214.01C245.641 216.724 242.507 218.081 239.372 218.081C236.825 218.081 234.278 217.161 232.221 215.27L205.967 189.537L208.122 187.259L215.714 179.311L217.379 177.567L237.755 196.564L251.176 176.791C254.605 171.703 259.209 167.486 264.548 164.482L273.169 159.587V159.636C273.169 159.684 273.218 159.732 273.218 159.829C274.687 163.609 278.704 166.275 282.818 166.178C286.982 166.081 290.949 163.173 292.174 159.199L292.321 159.296L311.423 168.94C315.881 171.267 319.162 175.24 320.632 180.038L327.049 201.119C329.645 209.697 323.179 218.324 314.166 218.324H271.112C270.426 216.821 269.495 214.156 269.348 210.763C269.299 209.697 269.348 208.583 269.495 207.42C269.691 205.966 270.034 204.609 270.426 203.494C270.671 202.816 270.916 202.234 271.161 201.653C271.602 201.653 272.042 201.653 272.434 201.653Z" fill="#F3ECDB"/>
<path d="M265.087 129.783C264.94 130.849 264.842 132.06 264.891 133.272C262.197 131.576 259.16 128.91 258.328 125.857C257.495 122.756 257.838 119.363 259.356 116.552C260.728 113.887 263.373 111.609 266.41 111.609C270.279 111.561 273.561 114.953 277.381 114.759C279.439 114.662 281.741 113.548 283.357 114.808C284.435 115.632 284.582 117.182 285.316 118.297C286.1 119.557 287.57 120.284 288.745 121.205C290.949 122.949 292.419 125.566 292.762 128.28C293.104 131.043 292.272 133.902 290.508 136.083L289.137 136.277C288.255 135.937 287.227 135.937 286.345 136.277C284.435 134.047 283.014 131.43 282.231 128.571L282.133 128.329C276.598 131.721 270.573 132.593 265.087 129.783Z" fill="#2C163A"/>
<path d="M274.981 139.669C275.604 139.669 276.108 139.17 276.108 138.554C276.108 137.939 275.604 137.44 274.981 137.44C274.359 137.44 273.855 137.939 273.855 138.554C273.855 139.17 274.359 139.669 274.981 139.669Z" fill="#2C163A"/>
<path d="M272.483 307.107V317.575H232.71L234.62 314.522C235.943 312.438 238.147 311.129 240.596 310.984L244.613 310.742C247.062 310.596 249.364 309.627 251.127 307.931L253.38 305.847C253.723 305.556 254.164 305.362 254.605 305.362H255.046C255.633 305.362 256.221 305.653 256.515 306.186L258.132 308.755C258.719 309.724 259.797 310.257 260.923 310.257H264.548C265.626 310.257 266.605 309.772 267.242 308.9L269.299 306.041C269.495 305.798 269.789 305.556 270.083 305.459C270.279 305.362 270.524 305.362 270.72 305.362C271.699 305.362 272.483 306.138 272.483 307.107Z" fill="#2C163A"/>
<path d="M266.165 136.373C266.801 136.373 267.291 136.858 267.291 137.488C267.291 138.118 266.801 138.603 266.165 138.603C265.871 138.603 265.577 138.506 265.381 138.312C265.283 137.876 265.234 137.44 265.185 137.003C265.381 136.567 265.773 136.373 266.165 136.373Z" fill="#2C163A"/>
<path d="M265.43 138.264C265.234 138.07 265.087 137.779 265.087 137.488C265.087 137.294 265.136 137.1 265.234 136.955C265.283 137.391 265.332 137.827 265.43 138.264Z" fill="#2C163A"/>
<path d="M221.885 307.107V317.575H182.113L184.023 314.522C185.296 312.438 187.549 311.129 189.999 310.984L194.015 310.742C196.464 310.596 198.766 309.627 200.579 307.931L202.783 305.847C203.126 305.556 203.566 305.362 204.007 305.362H204.448C205.036 305.362 205.624 305.653 205.918 306.186L207.534 308.755C208.122 309.724 209.199 310.257 210.326 310.257H213.95C215.028 310.257 216.008 309.772 216.595 308.9L218.653 306.041C218.849 305.75 219.143 305.556 219.436 305.459C219.632 305.362 219.877 305.362 220.073 305.362C221.102 305.362 221.885 306.138 221.885 307.107Z" fill="#2C163A"/>
<path d="M305.105 261.94C304.811 261.94 304.615 261.746 304.615 261.455C304.615 261.164 304.811 260.971 305.105 260.971C311.864 260.971 317.938 257.821 321.758 252.296C325.579 246.82 326.363 240.083 323.963 233.832L321.465 228.113C321.367 227.871 321.465 227.58 321.709 227.483C321.954 227.386 322.248 227.483 322.346 227.725L324.893 233.444C327.44 239.986 326.608 247.062 322.591 252.829C318.526 258.644 312.158 261.94 305.105 261.94Z" fill="#2C163A"/>
<path d="M241.135 279.677C241.037 279.677 240.939 279.629 240.841 279.58C240.645 279.435 240.596 279.096 240.743 278.902L254.458 261.165C254.556 261.068 254.703 260.971 254.85 260.971H285.806C286.1 260.971 286.296 261.165 286.296 261.455C286.296 261.746 286.1 261.94 285.806 261.94H255.095L241.527 279.483C241.429 279.58 241.282 279.677 241.135 279.677Z" fill="#2C163A"/>
<path d="M223.061 303.085H201.999C201.803 303.085 201.656 302.988 201.558 302.842C201.46 302.697 201.46 302.503 201.558 302.358L231.143 256.367C231.29 256.124 231.584 256.076 231.829 256.221C232.074 256.367 232.123 256.657 231.976 256.9L202.881 302.115H222.816L240.792 278.902C240.939 278.708 241.282 278.659 241.478 278.805C241.674 278.95 241.723 279.289 241.576 279.483L223.453 302.891C223.355 302.988 223.208 303.085 223.061 303.085Z" fill="#2C163A"/>
<path d="M231.584 257.094C231.486 257.094 231.388 257.045 231.339 256.997C231.094 256.851 231.045 256.561 231.192 256.318L235.943 248.904C239.813 243.185 245.691 239.259 252.499 237.854C252.744 237.806 253.038 237.951 253.087 238.242C253.136 238.484 252.989 238.775 252.695 238.823C246.131 240.18 240.498 243.96 236.776 249.485L232.025 256.9C231.878 256.997 231.731 257.094 231.584 257.094Z" fill="#2C163A"/>
<path d="M252.597 238.823C252.352 238.823 252.156 238.678 252.107 238.436C252.058 238.193 252.205 237.902 252.499 237.854C254.311 237.466 256.123 237.272 257.985 237.272H300.696C300.99 237.272 301.186 237.466 301.186 237.757C301.186 238.048 300.99 238.242 300.696 238.242H257.985C256.221 238.242 254.458 238.436 252.695 238.775C252.646 238.823 252.597 238.823 252.597 238.823Z" fill="#2C163A"/>
<path d="M221.886 318.06H182.113C181.917 318.06 181.77 317.963 181.672 317.817C181.574 317.672 181.574 317.478 181.672 317.333L183.582 314.279C184.954 312.099 187.354 310.693 189.95 310.548L193.966 310.305C196.268 310.16 198.521 309.239 200.187 307.64L202.391 305.556C202.832 305.168 203.371 304.926 203.958 304.926H204.399C205.183 304.926 205.869 305.314 206.309 305.944L207.926 308.512C208.416 309.336 209.346 309.821 210.326 309.821H213.951C214.832 309.821 215.714 309.385 216.204 308.658L218.31 305.798C218.555 305.459 218.898 305.168 219.29 305.023C219.534 304.926 219.828 304.878 220.122 304.878C221.347 304.878 222.375 305.847 222.375 307.107V317.575C222.375 317.866 222.13 318.06 221.886 318.06ZM182.994 317.09H221.396V307.107C221.396 306.429 220.808 305.847 220.122 305.847C219.975 305.847 219.828 305.895 219.681 305.944C219.436 306.041 219.241 306.186 219.143 306.38L217.085 309.191C216.4 310.16 215.224 310.742 214 310.742H210.375C209.101 310.742 207.877 310.063 207.191 308.997L205.575 306.428C205.33 306.089 204.938 305.847 204.497 305.847H204.056C203.713 305.847 203.42 305.992 203.175 306.186L200.97 308.27C199.109 310.015 196.66 311.081 194.113 311.226L190.097 311.469C187.795 311.614 185.688 312.826 184.513 314.764L182.994 317.09Z" fill="#2C163A"/>
<path d="M221.885 322.906H182.113C181.819 322.906 181.623 322.712 181.623 322.421V317.575C181.623 317.284 181.819 317.09 182.113 317.09C182.407 317.09 182.602 317.284 182.602 317.575V321.937H221.396V317.575C221.396 317.284 221.592 317.09 221.885 317.09C222.179 317.09 222.375 317.284 222.375 317.575V322.421C222.375 322.663 222.13 322.906 221.885 322.906Z" fill="#2C163A"/>
<path d="M204.448 305.847C204.399 305.847 204.399 305.847 204.35 305.847C204.105 305.798 203.91 305.556 203.958 305.265L204.448 302.455C204.497 302.212 204.742 302.018 205.036 302.067C205.281 302.115 205.477 302.358 205.428 302.648L204.938 305.459C204.889 305.702 204.693 305.847 204.448 305.847Z" fill="#2C163A"/>
<path d="M219.437 305.847C219.388 305.847 219.388 305.847 219.339 305.847C219.094 305.798 218.898 305.556 218.947 305.265L219.486 302.455C219.535 302.212 219.779 302.018 220.073 302.067C220.318 302.115 220.514 302.358 220.465 302.648L219.926 305.459C219.877 305.702 219.681 305.847 219.437 305.847Z" fill="#2C163A"/>
<path d="M272.483 318.06H232.71C232.514 318.06 232.367 317.963 232.27 317.817C232.172 317.672 232.172 317.478 232.27 317.333L234.18 314.279C235.551 312.099 237.951 310.693 240.547 310.548L244.564 310.306C246.915 310.16 249.119 309.239 250.784 307.64L253.038 305.556C253.478 305.169 254.017 304.926 254.605 304.926H255.046C255.83 304.926 256.515 305.314 256.956 305.944L258.572 308.512C259.111 309.336 259.993 309.821 260.973 309.821H264.597C265.479 309.821 266.361 309.385 266.85 308.658L268.908 305.847C269.152 305.508 269.495 305.265 269.887 305.072C270.132 304.975 270.426 304.926 270.72 304.926C271.944 304.926 272.973 305.895 272.973 307.155V317.623C272.973 317.866 272.728 318.06 272.483 318.06ZM233.592 317.09H271.993V307.107C271.993 306.429 271.406 305.847 270.72 305.847C270.573 305.847 270.426 305.895 270.279 305.944C270.034 306.041 269.838 306.186 269.691 306.38L267.634 309.191C266.899 310.16 265.773 310.742 264.548 310.742H260.924C259.601 310.742 258.426 310.063 257.691 308.997L256.074 306.429C255.83 306.041 255.438 305.847 254.997 305.847H254.556C254.213 305.847 253.919 305.992 253.674 306.186L251.421 308.27C249.56 310.015 247.111 311.081 244.564 311.226L240.547 311.469C238.245 311.614 236.139 312.826 234.963 314.764L233.592 317.09Z" fill="#2C163A"/>
<path d="M272.483 322.906H232.71C232.416 322.906 232.22 322.712 232.22 322.421V317.575C232.22 317.284 232.416 317.09 232.71 317.09C233.004 317.09 233.2 317.284 233.2 317.575V321.937H271.993V317.575C271.993 317.284 272.189 317.09 272.483 317.09C272.777 317.09 272.973 317.284 272.973 317.575V322.421C272.973 322.663 272.728 322.906 272.483 322.906Z" fill="#2C163A"/>
<path d="M255.046 305.847C254.85 305.847 254.654 305.702 254.605 305.508L253.625 302.697C253.527 302.455 253.674 302.164 253.919 302.067C254.164 301.97 254.458 302.115 254.556 302.358L255.536 305.168C255.634 305.411 255.487 305.702 255.242 305.799C255.144 305.847 255.095 305.847 255.046 305.847Z" fill="#2C163A"/>
<path d="M270.034 305.847C269.838 305.847 269.642 305.702 269.544 305.508L268.614 302.697C268.516 302.455 268.663 302.164 268.908 302.067C269.152 301.97 269.446 302.115 269.544 302.358L270.475 305.168C270.573 305.411 270.426 305.702 270.181 305.799C270.132 305.847 270.083 305.847 270.034 305.847Z" fill="#2C163A"/>
<path d="M269.936 303.085H252.303C252.107 303.085 251.96 302.988 251.862 302.794L240.694 279.386C240.645 279.338 240.645 279.241 240.645 279.193C240.645 278.902 240.841 278.708 241.135 278.708C241.331 278.708 241.527 278.853 241.576 279.047L252.597 302.115H269.201L254.36 261.649C254.262 261.407 254.409 261.116 254.654 261.019C254.899 260.922 255.193 261.068 255.291 261.31L270.377 302.406C270.426 302.551 270.426 302.697 270.328 302.842C270.23 302.988 270.083 303.085 269.936 303.085Z" fill="#2C163A"/>
<path d="M319.995 322.906H285.806C281.839 322.906 278.557 319.707 278.557 315.733V268.143C278.557 264.218 281.79 260.971 285.806 260.971H319.995C323.963 260.971 327.244 264.169 327.244 268.143V315.733C327.244 319.707 324.012 322.906 319.995 322.906ZM285.806 261.94C282.377 261.94 279.537 264.702 279.537 268.143V315.733C279.537 319.126 282.328 321.937 285.806 321.937H319.995C323.424 321.937 326.265 319.174 326.265 315.733V268.143C326.265 264.751 323.473 261.94 319.995 261.94H285.806Z" fill="#2C163A"/>
<path d="M333.612 228.452H167.957C164.969 228.452 162.569 226.078 162.569 223.121C162.569 221.716 163.108 220.359 164.137 219.341C165.165 218.324 166.488 217.791 167.957 217.791H271.161C271.455 217.791 271.651 217.984 271.651 218.275C271.651 218.566 271.455 218.76 271.161 218.76H167.957C166.781 218.76 165.655 219.196 164.822 220.02C163.99 220.844 163.549 221.958 163.549 223.121C163.549 225.545 165.508 227.483 167.957 227.483H333.612C334.788 227.483 335.914 227.047 336.747 226.223C337.58 225.399 338.02 224.284 338.02 223.121C338.02 220.698 336.061 218.76 333.612 218.76H314.215C313.922 218.76 313.726 218.566 313.726 218.275C313.726 217.984 313.922 217.791 314.215 217.791H333.612C336.6 217.791 339 220.165 339 223.121C339 224.527 338.461 225.884 337.433 226.901C336.404 227.919 335.032 228.452 333.612 228.452Z" fill="#2C163A"/>
<path d="M282.622 238.242C282.426 238.242 282.23 238.096 282.132 237.902L279.536 228.113C279.488 227.871 279.634 227.58 279.879 227.532C280.124 227.483 280.418 227.628 280.467 227.871L283.063 237.66C283.112 237.902 282.965 238.193 282.72 238.242C282.72 238.242 282.671 238.242 282.622 238.242Z" fill="#2C163A"/>
<path d="M306.182 202.137C305.987 202.137 305.791 201.992 305.693 201.798L299.815 182.171C299.717 181.928 299.864 181.638 300.158 181.589C300.403 181.492 300.697 181.638 300.746 181.928L306.623 201.556C306.721 201.798 306.574 202.089 306.28 202.137C306.28 202.137 306.231 202.137 306.182 202.137Z" fill="#2C163A"/>
<path d="M314.215 218.76H271.161C270.965 218.76 270.769 218.663 270.72 218.469C269.642 215.997 269.005 213.38 268.908 210.715C268.859 209.6 268.908 208.437 269.054 207.274C269.25 205.917 269.544 204.56 269.985 203.252C270.23 202.573 270.475 201.943 270.72 201.362C270.818 201.168 270.965 201.071 271.161 201.071H309.611C309.905 201.071 310.101 201.265 310.101 201.556C310.101 201.846 309.905 202.04 309.611 202.04H271.504C271.308 202.525 271.112 203.009 270.916 203.543C270.475 204.803 270.181 206.063 270.034 207.371C269.887 208.437 269.838 209.552 269.887 210.618C269.985 213.041 270.524 215.416 271.504 217.742H314.264C318.428 217.742 322.199 215.852 324.697 212.557C327.195 209.261 327.881 205.093 326.706 201.168L320.289 180.087C318.869 175.483 315.587 171.557 311.325 169.28L292.223 159.636C292.223 159.636 292.174 159.636 292.174 159.587L292.076 159.539C291.831 159.442 291.733 159.151 291.88 158.909C291.978 158.666 292.272 158.569 292.517 158.715L292.663 158.812C292.663 158.812 292.712 158.812 292.712 158.86L311.766 168.504C316.321 170.879 319.75 174.998 321.22 179.893L327.636 200.974C328.91 205.19 328.126 209.649 325.481 213.235C322.787 216.724 318.722 218.76 314.215 218.76Z" fill="#2C163A"/>
<path d="M239.421 218.566C236.629 218.566 233.984 217.548 231.927 215.658L205.624 189.925C205.428 189.731 205.428 189.44 205.624 189.246L217.036 177.276C217.232 177.082 217.526 177.082 217.722 177.276L240.156 198.212C240.352 198.406 240.352 198.696 240.156 198.89C239.96 199.084 239.666 199.084 239.47 198.89L237.413 196.952L217.379 178.294L206.652 189.585L232.612 214.98C234.474 216.676 236.874 217.645 239.421 217.645C242.556 217.645 245.446 216.24 247.356 213.768L268.222 186.678C268.369 186.484 268.712 186.435 268.908 186.581C269.104 186.726 269.153 187.065 269.006 187.259L248.14 214.35C246.033 217.015 242.85 218.566 239.421 218.566Z" fill="#2C163A"/>
<path d="M237.755 197.049C237.657 197.049 237.559 197 237.462 196.952C237.217 196.806 237.168 196.515 237.315 196.273L250.735 176.5C254.213 171.412 258.866 167.099 264.303 164.046L273.12 159.054C273.365 158.909 273.659 159.006 273.806 159.248C273.953 159.49 273.855 159.781 273.61 159.926L273.414 160.023L264.793 164.918C259.503 167.874 254.948 172.09 251.568 177.082L238.147 196.855C238.049 196.952 237.902 197.049 237.755 197.049Z" fill="#2C163A"/>
<path d="M272.434 202.137C272.238 202.137 272.042 201.992 271.944 201.798L266.654 183.528C266.556 183.285 266.752 182.994 266.997 182.946C267.242 182.849 267.536 183.043 267.585 183.285L272.875 201.556C272.973 201.798 272.777 202.089 272.532 202.137C272.532 202.137 272.483 202.137 272.434 202.137Z" fill="#2C163A"/>
<path d="M215.518 179.651C215.322 179.651 215.077 179.505 215.028 179.263C213.999 175.289 211.354 171.751 207.828 169.57C204.056 167.244 199.403 166.517 195.289 165.839C194.358 165.693 193.819 165.79 193.574 166.081C193.525 166.13 193.525 166.178 193.476 166.275C193.378 166.566 193.476 166.905 193.721 167.196C194.015 167.583 194.505 167.826 195.044 168.116C196.219 168.698 197.199 169.134 198.178 169.57C199.158 170.007 200.187 170.491 201.362 171.073C201.607 171.17 201.705 171.509 201.558 171.703C201.46 171.945 201.166 172.042 200.921 171.897C199.746 171.315 198.766 170.879 197.787 170.443C196.807 170.007 195.778 169.522 194.603 168.94C194.064 168.698 193.427 168.359 192.937 167.777C192.497 167.244 192.35 166.566 192.546 165.984C192.595 165.79 192.693 165.645 192.791 165.499C193.476 164.579 194.897 164.773 195.435 164.869C199.648 165.548 204.448 166.323 208.367 168.746C212.089 171.073 214.881 174.804 215.959 179.021C216.008 179.263 215.861 179.554 215.616 179.602C215.616 179.651 215.567 179.651 215.518 179.651Z" fill="#2C163A"/>
<path d="M207.583 181.831C206.554 181.831 205.526 181.395 204.742 180.765C203.958 180.135 203.371 179.311 202.783 178.536C202.489 178.148 202.195 177.761 201.901 177.373C201.019 176.307 199.942 175.434 198.766 174.756L198.521 174.61C198.032 174.32 197.493 174.077 197.101 173.593C197.052 173.544 197.003 173.447 196.954 173.35C196.513 172.623 196.562 171.751 197.052 171.218C197.493 170.782 198.179 170.685 198.717 170.733C199.599 170.733 200.432 170.83 201.264 170.976C205.575 171.703 209.199 173.932 211.257 177.034C211.404 177.276 211.355 177.567 211.11 177.712C210.865 177.857 210.571 177.809 210.424 177.567C208.514 174.659 205.085 172.623 201.068 171.897C200.285 171.751 199.501 171.703 198.668 171.654C198.277 171.654 197.885 171.654 197.689 171.848C197.444 172.09 197.542 172.478 197.738 172.769C197.738 172.769 197.738 172.817 197.787 172.817C197.787 172.817 197.787 172.866 197.836 172.866C198.13 173.205 198.521 173.447 199.011 173.69L199.256 173.835C200.579 174.562 201.754 175.531 202.685 176.646C203.028 177.034 203.322 177.421 203.567 177.857C204.105 178.633 204.644 179.36 205.33 179.941C206.26 180.717 207.73 181.153 208.71 180.426C208.905 180.281 209.248 180.329 209.395 180.523C209.542 180.717 209.493 181.056 209.297 181.201C208.808 181.638 208.22 181.831 207.583 181.831Z" fill="#2C163A"/>
<path d="M197.297 173.641C197.248 173.641 197.15 173.641 197.101 173.593C195.582 172.963 194.015 172.236 192.791 171.024C192.203 170.491 191.419 169.619 191.223 168.504C191.027 167.486 191.419 166.129 192.595 165.645C192.84 165.548 193.133 165.645 193.231 165.887C193.329 166.129 193.231 166.42 192.986 166.517C192.35 166.808 192.105 167.632 192.203 168.262C192.35 168.892 192.742 169.57 193.525 170.297C194.652 171.363 196.121 172.042 197.542 172.623C197.787 172.72 197.885 173.011 197.787 173.253C197.689 173.544 197.493 173.641 197.297 173.641Z" fill="#2C163A"/>
<path d="M208.318 187.841C208.269 187.841 208.22 187.841 208.171 187.841H208.122C208.073 187.841 207.975 187.792 207.926 187.792C206.701 187.405 205.575 186.387 204.595 184.788C204.301 184.303 204.056 183.818 203.811 183.382C203.371 182.51 202.979 181.734 202.391 181.008C201.313 179.651 199.697 178.681 198.179 177.761C197.885 177.567 197.591 177.421 197.297 177.227L197.199 177.131C195.338 175.967 193.232 174.707 192.644 170.83C192.595 170.588 192.791 170.297 193.085 170.297C193.329 170.249 193.623 170.443 193.623 170.733C194.113 174.174 195.877 175.24 197.689 176.355L197.787 176.404C198.081 176.597 198.375 176.743 198.668 176.937C200.285 177.906 201.95 178.875 203.175 180.426C203.811 181.201 204.252 182.074 204.693 182.946C204.938 183.382 205.183 183.867 205.428 184.303C206.261 185.708 207.191 186.532 208.22 186.871C208.269 186.871 208.318 186.92 208.367 186.92H208.416C208.661 187.017 208.808 187.259 208.759 187.501C208.71 187.695 208.514 187.841 208.318 187.841Z" fill="#2C163A"/>
<path d="M282.622 166.614C278.41 166.614 274.296 163.852 272.777 159.926L272.728 159.829C272.728 159.781 272.679 159.781 272.679 159.732C272.581 159.49 272.728 159.199 272.973 159.102C273.218 159.005 273.512 159.151 273.61 159.393V159.442C273.61 159.49 273.659 159.49 273.659 159.539C275.079 163.125 278.9 165.645 282.769 165.548C286.737 165.451 290.459 162.689 291.684 158.909C291.782 158.666 292.027 158.521 292.321 158.569C292.566 158.666 292.712 158.909 292.663 159.199C291.341 163.319 287.227 166.42 282.867 166.517C282.769 166.614 282.72 166.614 282.622 166.614Z" fill="#2C163A"/>
<path d="M231.584 257.094C231.388 257.094 231.192 256.948 231.094 256.754L229.331 252.587C228.057 249.582 228.351 246.287 230.065 243.524C231.78 240.762 234.67 239.066 237.902 238.823L252.499 237.806L252.548 238.29V238.775L238 239.793C235.061 239.986 232.465 241.537 230.898 244.009C229.331 246.48 229.086 249.485 230.212 252.199L231.976 256.367C231.976 256.415 232.025 256.512 232.025 256.561C232.074 256.851 231.829 257.094 231.584 257.094Z" fill="#2C163A"/>
<path d="M276.794 152.608C275.814 152.608 274.883 152.463 274.002 152.124C271.455 151.252 269.202 149.071 267.487 145.921C266.361 143.885 265.479 141.171 264.94 138.312C264.891 138.07 265.087 137.779 265.332 137.73C265.626 137.682 265.871 137.876 265.92 138.118C266.41 140.881 267.291 143.498 268.369 145.436C269.495 147.471 271.455 150.137 274.394 151.155C275.226 151.445 276.157 151.591 277.088 151.542C279.292 151.494 281.398 150.525 282.769 148.974C282.965 148.78 283.259 148.731 283.455 148.925C283.651 149.119 283.7 149.41 283.504 149.604C281.937 151.348 279.537 152.415 277.088 152.463C276.99 152.608 276.892 152.608 276.794 152.608Z" fill="#2C163A"/>
<path d="M265.185 137.44C264.94 137.44 264.744 137.246 264.695 137.004C264.499 135.744 264.401 134.483 264.401 133.32C264.352 132.06 264.45 130.849 264.597 129.734C264.597 129.637 264.597 129.54 264.646 129.492C264.695 129.25 264.94 129.056 265.234 129.104C265.479 129.153 265.675 129.395 265.626 129.686C265.626 129.734 265.626 129.831 265.577 129.88C265.43 130.994 265.381 132.109 265.381 133.32C265.381 134.483 265.479 135.647 265.675 136.907C265.724 137.149 265.528 137.44 265.283 137.44C265.234 137.44 265.234 137.44 265.185 137.44Z" fill="#2C163A"/>
<path d="M273.267 160.266C273.071 160.266 272.875 160.169 272.826 159.975C272.728 159.732 272.826 159.442 273.071 159.345C275.667 158.23 277.186 155.225 276.549 152.512C276.5 152.269 276.647 151.978 276.941 151.93C277.186 151.881 277.479 152.027 277.528 152.318C278.214 155.468 276.451 158.957 273.463 160.266C273.414 160.266 273.316 160.266 273.267 160.266Z" fill="#2C163A"/>
<path d="M292.566 159.345C292.419 159.345 292.272 159.248 292.174 159.151C288.843 154.353 287.227 148.877 287.521 143.352C287.521 143.061 287.765 142.867 288.01 142.867C288.304 142.867 288.5 143.11 288.5 143.352C288.255 148.731 289.774 153.82 293.006 158.521C293.153 158.763 293.104 159.054 292.86 159.199C292.762 159.345 292.664 159.345 292.566 159.345Z" fill="#2C163A"/>
<path d="M287.619 143.885C287.227 143.885 286.835 143.837 286.443 143.691C286.198 143.594 286.051 143.352 286.1 143.061C286.198 142.819 286.443 142.674 286.737 142.722C287.129 142.819 287.521 142.868 287.912 142.819C288.99 142.722 289.97 142.141 290.46 141.268C291.194 140.057 290.949 138.312 289.97 137.343C289.676 137.052 289.333 136.81 288.892 136.664C288.108 136.374 287.227 136.374 286.443 136.664C286.296 136.713 286.1 136.81 285.953 136.907C285.708 137.052 285.414 136.955 285.268 136.761C285.121 136.519 285.219 136.228 285.414 136.083C285.61 135.937 285.855 135.84 286.051 135.744C287.031 135.356 288.157 135.356 289.186 135.744C289.725 135.937 290.166 136.228 290.557 136.616C291.929 137.924 292.174 140.105 291.243 141.753C290.557 142.868 289.284 143.643 287.912 143.74C287.912 143.885 287.766 143.885 287.619 143.885Z" fill="#2C163A"/>
<path d="M271.993 131.963C269.495 131.963 267.095 131.382 264.891 130.219C264.254 129.88 263.569 129.492 262.932 129.007C262.687 128.862 262.638 128.571 262.834 128.329C262.981 128.086 263.275 128.038 263.52 128.232C264.156 128.668 264.744 129.056 265.381 129.346C270.328 131.915 276.206 131.382 281.888 127.941L282.083 127.796C282.23 127.699 282.377 127.602 282.524 127.553C282.769 127.408 283.063 127.456 283.21 127.699C283.357 127.941 283.308 128.232 283.063 128.377C282.916 128.474 282.769 128.571 282.622 128.668L282.426 128.813C278.9 130.897 275.373 131.963 271.993 131.963Z" fill="#2C163A"/>
<path d="M286.443 136.955C286.296 136.955 286.149 136.907 286.051 136.761L285.904 136.567C283.945 134.29 282.475 131.576 281.692 128.668C281.643 128.426 281.79 128.135 282.035 128.086C282.28 128.038 282.573 128.183 282.622 128.426C283.357 131.188 284.778 133.757 286.639 135.937L286.786 136.131C286.982 136.325 286.933 136.664 286.737 136.81C286.688 136.955 286.59 136.955 286.443 136.955Z" fill="#2C163A"/>
<path d="M290.459 136.616C290.361 136.616 290.264 136.567 290.166 136.519C289.97 136.374 289.921 136.034 290.068 135.84C291.733 133.757 292.517 131.043 292.223 128.377C291.929 125.712 290.508 123.24 288.402 121.592C288.108 121.35 287.716 121.108 287.423 120.866C286.492 120.236 285.512 119.557 284.876 118.539C284.582 118.055 284.386 117.57 284.19 117.085C283.896 116.359 283.602 115.632 283.014 115.195C282.035 114.42 280.712 114.711 279.292 114.953C278.655 115.05 278.018 115.195 277.381 115.244C275.275 115.341 273.414 114.468 271.553 113.645C269.789 112.821 268.124 112.094 266.361 112.094C263.814 112.142 261.218 113.984 259.748 116.795C258.328 119.509 257.985 122.804 258.768 125.76C259.65 129.056 263.128 131.673 265.136 132.884C265.381 133.03 265.43 133.32 265.283 133.563C265.136 133.805 264.842 133.853 264.597 133.708C262.491 132.4 258.817 129.637 257.838 126.003C256.956 122.804 257.348 119.315 258.866 116.359C260.189 113.887 262.834 111.173 266.361 111.125C268.369 111.076 270.181 111.948 271.944 112.724C273.757 113.548 275.471 114.323 277.283 114.226C277.822 114.178 278.459 114.081 279.047 113.984C280.614 113.693 282.231 113.402 283.553 114.42C284.337 115.002 284.68 115.874 285.022 116.698C285.218 117.182 285.414 117.619 285.659 118.006C286.198 118.83 287.031 119.412 287.912 120.042C288.255 120.284 288.598 120.526 288.941 120.817C291.243 122.61 292.762 125.324 293.104 128.232C293.447 131.14 292.566 134.096 290.753 136.422C290.753 136.567 290.606 136.616 290.459 136.616Z" fill="#2C163A"/>
<path d="M288.206 141.365C288.157 141.365 288.108 141.365 288.059 141.365C287.521 141.317 287.031 141.074 286.688 140.687C286.394 140.299 286.247 139.717 286.394 139.184C286.492 138.651 286.835 138.215 287.276 137.973C287.521 137.827 287.815 137.924 287.962 138.167C288.108 138.409 288.01 138.7 287.766 138.845C287.57 138.942 287.423 139.184 287.374 139.427C287.325 139.669 287.374 139.96 287.521 140.105C287.668 140.299 287.913 140.396 288.157 140.396C288.451 140.396 288.696 140.347 288.843 140.154C289.039 139.96 289.333 139.96 289.529 140.154C289.725 140.347 289.725 140.638 289.529 140.832C289.137 141.171 288.696 141.365 288.206 141.365Z" fill="#2C163A"/>
<path d="M258.524 218.372C256.417 218.372 254.36 218.13 253.185 216.579C252.156 215.174 252.401 213.284 252.793 211.927C253.772 208.583 256.124 205.723 259.209 204.076C262.148 202.476 266.801 201.992 270.23 202.961C270.475 203.058 270.622 203.3 270.573 203.543C270.475 203.785 270.23 203.93 269.985 203.882C266.753 202.961 262.442 203.397 259.699 204.899C256.858 206.45 254.703 209.116 253.772 212.169C253.43 213.284 253.185 214.834 254.017 215.949C254.948 217.209 256.809 217.354 258.72 217.354L263.52 217.306C264.45 217.306 265.381 217.306 266.214 216.967C266.899 216.676 267.585 216.046 267.585 215.27C267.585 214.495 266.899 213.817 266.214 213.526C266.018 213.429 265.773 213.38 265.528 213.332C264.891 213.187 264.205 213.187 263.52 213.138L259.748 213.041C259.454 213.041 259.258 212.799 259.258 212.557C259.258 212.314 259.503 212.072 259.748 212.072L263.52 212.169C264.254 212.169 265.038 212.217 265.724 212.363C266.018 212.411 266.312 212.508 266.606 212.653C267.585 213.09 268.565 214.059 268.565 215.319C268.565 216.53 267.536 217.5 266.557 217.887C265.577 218.324 264.45 218.324 263.52 218.324L258.72 218.372C258.622 218.372 258.573 218.372 258.524 218.372Z" fill="#2C163A"/>
<path d="M266.312 213.38C266.067 213.38 265.773 213.332 265.528 213.284C265.43 213.284 265.332 213.235 265.283 213.187C265.038 213.09 264.891 212.799 264.989 212.557C265.087 212.314 265.381 212.169 265.626 212.266C265.675 212.266 265.724 212.314 265.773 212.314C267.095 212.605 268.565 211.781 268.957 210.521C268.957 210.473 268.957 210.473 269.006 210.424C269.055 210.182 269.349 209.988 269.593 210.085C269.838 210.133 270.034 210.424 269.936 210.667C269.936 210.715 269.887 210.763 269.887 210.86C269.398 212.363 267.879 213.38 266.312 213.38Z" fill="#2C163A"/>
<path d="M270.181 144.224C270.132 144.224 270.132 144.224 270.181 144.224C269.691 144.224 269.104 144.224 268.565 144.031C267.879 143.788 267.389 143.352 267.193 142.771C266.997 142.189 267.095 141.511 267.487 140.881C267.683 140.59 267.879 140.347 268.075 140.105C268.222 139.96 268.32 139.766 268.467 139.62C269.104 138.7 269.349 137.488 269.055 136.373C268.761 135.259 267.977 134.338 266.948 133.805C266.704 133.708 266.606 133.417 266.704 133.175C266.802 132.933 267.095 132.836 267.34 132.933C268.614 133.563 269.593 134.726 269.985 136.083C270.328 137.44 270.083 138.942 269.251 140.105C269.104 140.299 268.957 140.493 268.81 140.638C268.614 140.881 268.467 141.074 268.32 141.317C268.075 141.704 267.977 142.092 268.124 142.383C268.222 142.674 268.516 142.916 268.908 143.013C269.3 143.158 269.789 143.158 270.23 143.158C270.524 143.158 270.72 143.401 270.72 143.643C270.622 144.031 270.426 144.224 270.181 144.224Z" fill="#2C163A"/>
<path d="M272.091 135.743C271.945 135.743 271.798 135.647 271.7 135.55C271.553 135.307 271.602 135.017 271.847 134.871C274.002 133.417 277.039 133.272 279.341 134.483C279.586 134.629 279.684 134.92 279.537 135.162C279.39 135.404 279.096 135.501 278.851 135.356C276.843 134.29 274.247 134.435 272.336 135.647C272.287 135.743 272.189 135.743 272.091 135.743Z" fill="#2C163A"/>
<path d="M274.296 148.925C274.051 148.925 273.806 148.877 273.61 148.828C273.071 148.683 272.581 148.441 272.189 148.005C271.993 147.811 271.993 147.52 272.189 147.326C272.385 147.132 272.679 147.132 272.875 147.326C273.12 147.568 273.463 147.762 273.855 147.859C274.687 148.053 275.667 147.714 276.843 146.841C277.039 146.696 277.381 146.696 277.528 146.938C277.675 147.132 277.675 147.471 277.43 147.617C276.304 148.538 275.275 148.925 274.296 148.925Z" fill="#2C163A"/>
<path d="M260.189 146.066H161.639C154.242 146.066 148.169 140.105 148.169 132.739V96.0527C148.169 88.7349 154.193 82.7255 161.639 82.7255H246.425C246.719 82.7255 246.915 82.9194 246.915 83.2102C246.915 83.5009 246.719 83.6948 246.425 83.6948H161.639C154.781 83.6948 149.148 89.2195 149.148 96.0527V132.787C149.148 139.572 154.732 145.145 161.639 145.145H260.238C260.532 145.145 260.728 145.339 260.728 145.63C260.679 145.872 260.483 146.066 260.189 146.066Z" fill="#2C163A"/>
<path d="M273.169 110.107C272.875 110.107 272.679 109.913 272.679 109.622V96.0527C272.679 89.268 267.095 83.6948 260.189 83.6948C259.895 83.6948 259.699 83.5009 259.699 83.2101C259.699 82.9194 259.895 82.7255 260.189 82.7255C267.585 82.7255 273.659 88.6864 273.659 96.0527V109.622C273.659 109.913 273.463 110.107 273.169 110.107Z" fill="#2C163A"/>
<path d="M248.874 105.551H220.367C220.073 105.551 219.877 105.358 219.877 105.067C219.877 104.776 220.073 104.582 220.367 104.582H248.874C249.168 104.582 249.364 104.776 249.364 105.067C249.364 105.358 249.168 105.551 248.874 105.551Z" fill="#2C163A"/>
<path d="M248.874 110.398H220.367C220.073 110.398 219.877 110.204 219.877 109.913C219.877 109.622 220.073 109.428 220.367 109.428H248.874C249.168 109.428 249.364 109.622 249.364 109.913C249.364 110.204 249.168 110.398 248.874 110.398Z" fill="#2C163A"/>
<path d="M248.874 115.244H220.367C220.073 115.244 219.877 115.05 219.877 114.759C219.877 114.468 220.073 114.275 220.367 114.275H248.874C249.168 114.275 249.364 114.468 249.364 114.759C249.364 115.05 249.168 115.244 248.874 115.244Z" fill="#2C163A"/>
<path d="M248.874 120.09H220.367C220.073 120.09 219.877 119.896 219.877 119.606C219.877 119.315 220.073 119.121 220.367 119.121H248.874C249.168 119.121 249.364 119.315 249.364 119.606C249.364 119.896 249.168 120.09 248.874 120.09Z" fill="#2C163A"/>
<path d="M130.78 260.728C129.213 257.675 126.078 243.427 126.323 240.035C126.617 236.449 127.94 233.008 129.262 229.615C130.584 226.223 131.907 222.782 133.229 219.39C133.621 218.324 134.209 217.112 135.287 216.773C136.805 216.288 138.275 217.839 138.813 219.293C140.871 224.866 137.001 231.36 139.107 236.982C140.675 241.149 145.328 244.154 145.328 248.613C145.328 251.666 143.075 254.428 143.271 257.481C143.369 259.081 144.152 260.534 144.397 262.134C144.789 264.993 141.899 268.579 140.479 271.099L130.78 260.728Z" fill="#B1B7A4"/>
<path d="M140.479 271.584C140.332 271.584 140.234 271.535 140.136 271.439L130.437 261.116C130.388 261.068 130.388 261.068 130.34 261.019C128.772 257.966 125.539 243.669 125.833 240.083C126.127 236.352 127.499 232.911 128.772 229.518L132.74 219.293C133.082 218.421 133.719 216.821 135.14 216.385C136.952 215.852 138.617 217.451 139.254 219.244C140.332 222.152 139.842 225.302 139.401 228.307C138.96 231.36 138.519 234.219 139.548 236.933C140.136 238.581 141.311 240.083 142.438 241.537C144.103 243.718 145.818 245.947 145.818 248.71C145.818 250.26 145.279 251.714 144.74 253.12C144.201 254.622 143.662 256.027 143.76 257.53C143.809 258.354 144.054 259.129 144.299 259.953C144.544 260.68 144.74 261.407 144.838 262.182C145.181 264.654 143.32 267.513 141.85 269.839C141.507 270.421 141.164 270.954 140.871 271.439C140.773 271.584 140.675 271.681 140.479 271.681C140.528 271.535 140.479 271.584 140.479 271.584ZM131.172 260.486L140.381 270.275C140.577 269.936 140.822 269.597 141.066 269.209C142.487 267.028 144.201 264.266 143.907 262.182C143.809 261.504 143.613 260.825 143.369 260.098C143.124 259.274 142.83 258.402 142.781 257.481C142.683 255.785 143.271 254.234 143.809 252.684C144.348 251.278 144.838 249.97 144.838 248.613C144.838 246.141 143.271 244.154 141.654 242.022C140.479 240.519 139.303 238.969 138.617 237.176C137.54 234.268 137.981 231.118 138.421 228.113C138.862 225.06 139.303 222.201 138.323 219.535C137.883 218.372 136.707 216.87 135.434 217.306C134.552 217.597 134.062 218.663 133.67 219.632L129.703 229.858C128.429 233.153 127.107 236.594 126.813 240.132C126.568 243.476 129.703 257.433 131.172 260.486Z" fill="#2C163A"/>
<path d="M91.5461 112.433C91.3992 112.433 91.3012 112.385 91.2032 112.288C91.0563 112.142 91.0073 111.997 91.0563 111.803L93.3094 103.467C91.2032 100.414 90.0767 96.8766 90.0767 93.1934C90.0767 83.2101 98.2565 75.1169 108.347 75.1169C118.437 75.1169 126.617 83.2101 126.617 93.1934C126.617 103.177 118.437 111.27 108.347 111.27C105.849 111.27 103.449 110.785 101.195 109.816L91.6441 112.336C91.5951 112.433 91.5951 112.433 91.5461 112.433ZM108.347 76.1346C98.7953 76.1346 91.0563 83.8401 91.0563 93.2419C91.0563 96.8281 92.1339 100.22 94.2401 103.128C94.338 103.225 94.338 103.371 94.338 103.516L92.2318 111.27L101.146 108.895C101.244 108.847 101.391 108.895 101.489 108.895C103.693 109.865 105.996 110.301 108.396 110.301C117.947 110.301 125.686 102.595 125.686 93.1934C125.686 83.7917 117.898 76.1346 108.347 76.1346Z" fill="#2C163A"/>
<path d="M139.499 292.471C135.531 290.194 129.703 288.013 126.372 284.863C123.041 281.761 120.347 277.739 119.661 273.232C119.319 270.809 119.515 268.289 118.633 266.011C117.604 263.345 115.204 261.504 113.245 259.42C107.269 253.023 105.212 244.057 103.4 235.528C103.008 233.638 102.567 231.699 102.91 229.809C103.253 227.919 104.477 226.078 106.388 225.593C108.641 225.012 110.943 226.611 112.118 228.598C113.294 230.585 113.637 232.911 114.371 235.092C115.792 239.356 118.584 243.137 122.306 245.705C124.902 247.547 128.086 248.904 129.654 251.666C130.78 253.701 130.878 256.124 131.858 258.208C133.768 262.182 139.597 265.235 141.066 269.452C143.809 277.254 142.144 287.867 139.94 291.938L139.499 292.471Z" fill="#B1B7A4"/>
<path d="M139.499 292.956C139.401 292.956 139.352 292.956 139.254 292.908C137.98 292.181 136.56 291.454 134.993 290.678C131.711 289.079 128.331 287.383 126.029 285.25C123.335 282.73 119.955 278.66 119.172 273.329C119.025 272.505 118.976 271.632 118.927 270.809C118.829 269.209 118.731 267.659 118.143 266.253C117.408 264.315 115.89 262.861 114.322 261.31C113.833 260.825 113.343 260.341 112.853 259.808C106.632 253.12 104.526 243.427 102.861 235.673C102.469 233.88 102.028 231.796 102.371 229.809C102.714 227.919 104.036 225.738 106.192 225.205C108.788 224.575 111.286 226.417 112.461 228.452C113.294 229.906 113.735 231.505 114.176 233.056C114.371 233.735 114.567 234.413 114.763 235.043C116.135 239.211 118.878 242.894 122.502 245.414C123.139 245.85 123.825 246.287 124.511 246.723C126.617 248.031 128.772 249.34 129.997 251.521C130.633 252.635 130.976 253.895 131.27 255.107C131.515 256.173 131.809 257.142 132.25 258.063C133.131 259.856 134.846 261.504 136.56 263.152C138.568 265.042 140.674 267.029 141.458 269.355C144.201 277.206 142.634 287.964 140.283 292.229C140.185 292.374 140.087 292.471 139.94 292.471C139.94 292.568 139.94 292.617 139.891 292.714C139.842 292.859 139.695 292.956 139.499 292.956ZM107.367 225.981C107.122 225.981 106.828 226.029 106.583 226.078C104.82 226.514 103.743 228.307 103.498 229.906C103.155 231.748 103.596 233.686 103.987 235.431C105.653 243.088 107.661 252.635 113.735 259.129C114.176 259.614 114.714 260.098 115.155 260.583C116.723 262.134 118.339 263.782 119.172 265.865C119.808 267.416 119.906 269.112 120.004 270.712C120.053 271.536 120.102 272.359 120.249 273.135C120.984 278.175 124.217 282.052 126.813 284.475C129.017 286.51 132.348 288.158 135.531 289.757C136.952 290.484 138.323 291.114 139.548 291.841C139.548 291.793 139.548 291.793 139.597 291.744C141.85 287.625 143.368 277.206 140.723 269.646C139.989 267.562 137.98 265.672 136.07 263.83C134.307 262.182 132.495 260.438 131.564 258.499C131.074 257.481 130.78 256.415 130.535 255.349C130.241 254.137 129.948 253.023 129.36 251.957C128.233 250.018 126.274 248.758 124.217 247.498C123.531 247.062 122.845 246.626 122.16 246.19C118.339 243.524 115.498 239.696 114.029 235.286C113.784 234.607 113.637 233.929 113.441 233.25C113 231.699 112.608 230.197 111.824 228.888C110.796 227.338 109.081 225.981 107.367 225.981Z" fill="#2C163A"/>
<path d="M140.625 301.679C140.381 301.679 140.136 301.485 140.136 301.243C139.597 294.216 136.952 279.677 134.846 275.703C132.886 272.02 130.388 268.579 127.939 265.235L109.816 240.374C109.669 240.18 109.718 239.841 109.914 239.696C110.11 239.55 110.453 239.599 110.6 239.793L128.723 264.654C131.172 267.998 133.719 271.487 135.727 275.219C137.931 279.386 140.576 293.877 141.115 301.146C141.115 301.437 140.919 301.631 140.625 301.679C140.674 301.679 140.625 301.679 140.625 301.679Z" fill="#2C163A"/>
<path d="M136.658 264.315C136.609 264.315 136.56 264.315 136.56 264.315C136.315 264.266 136.119 263.975 136.217 263.733C137.442 258.741 135.629 253.604 133.866 248.613C132.005 243.427 130.388 237.951 132.054 232.814C132.152 232.572 132.397 232.426 132.69 232.523C132.935 232.62 133.082 232.862 132.984 233.153C131.417 237.999 132.984 243.282 134.748 248.273C136.56 253.411 138.421 258.693 137.148 263.975C137.099 264.169 136.903 264.315 136.658 264.315Z" fill="#2C163A"/>
<path d="M145.083 291.938C144.691 286.123 148.217 276.236 150.862 272.214C151.548 271.196 152.822 269.694 153.801 268.919C155.369 267.658 157.622 267.658 159.385 266.738C160.708 266.011 161.638 264.799 162.52 263.636C163.402 262.425 164.234 261.165 165.41 260.244C166.585 259.323 168.202 258.79 169.622 259.323C171.288 259.904 172.169 261.843 172.022 263.588C171.875 265.332 170.847 266.883 169.622 268.192C168.398 269.5 167.026 270.566 165.802 271.875C164.626 273.183 163.598 274.734 163.451 276.479C163.304 278.563 164.381 280.55 164.381 282.633C164.381 285.396 162.471 287.916 160.12 289.418C157.769 290.92 154.928 291.551 152.185 292.181C149.442 292.811 146.699 293.441 143.956 294.022L145.083 291.938Z" fill="#B1B7A4"/>
<path d="M143.956 294.458C143.711 294.458 143.515 294.313 143.466 294.071C143.417 293.828 143.564 293.537 143.858 293.489L152.087 291.647C154.781 291.066 157.524 290.436 159.875 288.982C161.834 287.77 163.941 285.444 163.941 282.633C163.941 281.713 163.696 280.84 163.451 279.871C163.157 278.756 162.863 277.593 162.961 276.382C163.108 274.734 163.892 273.086 165.41 271.487C166.047 270.809 166.732 270.179 167.369 269.597C168.006 269.015 168.643 268.434 169.231 267.804C170.602 266.35 171.386 264.896 171.484 263.491C171.631 262.085 170.945 260.292 169.426 259.711C168.104 259.226 166.635 259.856 165.704 260.583C164.724 261.358 163.941 262.425 163.206 263.491L162.912 263.878C162.079 265.042 161.051 266.35 159.63 267.125C158.846 267.562 157.916 267.804 157.083 268.046C156.006 268.337 154.977 268.628 154.144 269.258C153.263 269.936 151.989 271.39 151.303 272.408C148.756 276.285 145.23 286.123 145.573 291.841C145.573 292.132 145.377 292.326 145.132 292.374C144.887 292.374 144.642 292.181 144.593 291.938C144.201 285.832 147.875 275.849 150.471 271.875C151.107 270.906 152.479 269.306 153.508 268.482C154.487 267.707 155.663 267.368 156.789 267.077C157.622 266.835 158.406 266.641 159.14 266.253C160.414 265.575 161.345 264.363 162.128 263.297L162.422 262.909C163.206 261.795 163.99 260.68 165.116 259.808C166.586 258.693 168.349 258.305 169.769 258.79C171.778 259.517 172.659 261.746 172.463 263.588C172.316 265.187 171.484 266.835 169.965 268.482C169.377 269.112 168.692 269.742 168.055 270.324C167.418 270.906 166.732 271.536 166.145 272.166C164.773 273.619 164.039 275.073 163.941 276.479C163.843 277.545 164.136 278.563 164.381 279.629C164.626 280.598 164.871 281.567 164.871 282.585C164.871 285.299 163.157 288.013 160.365 289.806C157.867 291.357 154.928 292.035 152.283 292.617L144.054 294.458C144.005 294.458 144.005 294.458 143.956 294.458Z" fill="#2C163A"/>
<path d="M140.773 301.291C140.724 301.291 140.626 301.291 140.577 301.243C140.332 301.146 140.234 300.855 140.332 300.613C145.72 288.061 153.312 276.769 162.912 267.029C163.108 266.835 163.402 266.835 163.598 267.029C163.794 267.222 163.794 267.513 163.598 267.707C154.095 277.351 146.552 288.546 141.213 300.952C141.164 301.195 140.968 301.291 140.773 301.291Z" fill="#2C163A"/>
<path d="M155.222 323.827H127.058C125.833 323.827 124.804 322.954 124.559 321.791L121.033 303.666C120.886 302.939 121.082 302.164 121.572 301.582C122.061 301.001 122.747 300.661 123.531 300.661H158.797C159.532 300.661 160.267 301.001 160.757 301.582C161.247 302.164 161.442 302.939 161.296 303.666L157.769 321.791C157.475 322.954 156.397 323.827 155.222 323.827ZM123.482 301.679C123.041 301.679 122.6 301.873 122.306 302.261C122.012 302.6 121.914 303.085 121.963 303.521L125.49 321.646C125.637 322.373 126.274 322.906 127.009 322.906H155.173C155.908 322.906 156.544 322.373 156.691 321.646L160.218 303.521C160.316 303.085 160.169 302.6 159.875 302.261C159.581 301.922 159.14 301.679 158.699 301.679H123.482Z" fill="#2C163A"/>
<path d="M10.2861 112.53C10.1391 112.53 9.9922 112.482 9.89423 112.336C8.62072 110.64 7.44517 108.847 6.41656 107.005C6.26961 106.763 6.36758 106.472 6.61248 106.327C6.85739 106.181 7.15128 106.278 7.29822 106.521C8.32683 108.362 9.4534 110.107 10.7269 111.755C10.8739 111.948 10.8249 112.288 10.629 112.433C10.482 112.53 10.384 112.53 10.2861 112.53ZM4.4573 102.45C4.26138 102.45 4.06545 102.353 4.01647 102.159C3.18379 100.22 2.49805 98.1851 1.91027 96.1496C1.86129 95.9073 2.00824 95.6165 2.25314 95.5681C2.49805 95.5196 2.79194 95.665 2.84092 95.9073C3.42869 97.8943 4.11443 99.8812 4.89814 101.771C4.9961 102.014 4.89814 102.304 4.65323 102.401C4.60425 102.45 4.50628 102.45 4.4573 102.45ZM1.17555 91.3034C0.930646 91.3034 0.73472 91.158 0.685739 90.9157C0.342869 88.8318 0.0979627 86.6994 0 84.6156C0 84.3248 0.195925 84.1309 0.489814 84.1309C0.73472 84.1309 0.979627 84.3248 0.979627 84.6156C1.07759 86.6994 1.3225 88.7833 1.66537 90.8188C1.71435 91.0611 1.51842 91.3518 1.27352 91.4003C1.22453 91.3034 1.22453 91.3034 1.17555 91.3034ZM0.489814 79.7208C0.195925 79.7208 0 79.4785 0 79.1877C0.0979627 77.0554 0.391851 74.923 0.73472 72.8876C0.783702 72.6453 1.02861 72.4515 1.3225 72.4999C1.5674 72.5484 1.76333 72.7907 1.71435 73.0815C1.3225 75.1169 1.07759 77.2008 0.979627 79.2847C0.979627 79.527 0.783702 79.7208 0.489814 79.7208ZM2.49805 68.2837C2.44907 68.2837 2.40009 68.2837 2.3511 68.2837C2.1062 68.1868 1.95925 67.9444 2.00824 67.7021C2.54703 65.9575 3.18379 64.2613 3.86953 62.6136C4.01647 62.3228 4.11443 62.032 4.26138 61.7412C4.35934 61.4989 4.65323 61.402 4.89814 61.4989C5.14304 61.5958 5.241 61.8866 5.14304 62.1289C4.9961 62.4197 4.89814 62.662 4.75119 62.9528C4.06545 64.5521 3.42869 66.2483 2.93888 67.9444C2.93888 68.1868 2.74296 68.2837 2.49805 68.2837ZM7.24924 57.6704C7.15128 57.6704 7.05332 57.6704 7.00433 57.6219C6.75943 57.4765 6.71045 57.1858 6.85739 56.9434C7.93498 55.1503 9.15951 53.4057 10.531 51.7095C10.6779 51.5156 11.0208 51.4672 11.2167 51.6126C11.4127 51.758 11.4616 52.0972 11.3147 52.291C9.9922 53.9388 8.81664 55.635 7.73905 57.4281C7.59211 57.6219 7.39618 57.6704 7.24924 57.6704ZM14.4005 48.511C14.2536 48.511 14.1556 48.4625 14.0576 48.3656C13.8617 48.1717 13.8617 47.881 14.0576 47.6871C15.5271 46.1848 17.1435 44.7309 18.8088 43.4224C19.0048 43.277 19.3476 43.277 19.4946 43.5193C19.6415 43.7132 19.6415 44.0524 19.3966 44.1978C17.7802 45.5063 16.1638 46.9117 14.7434 48.3656C14.6454 48.4625 14.5475 48.511 14.4005 48.511ZM23.511 41.1447C23.3641 41.1447 23.1682 41.0477 23.1192 40.9023C22.9723 40.66 23.0212 40.3693 23.2661 40.2239C25.0785 39.0608 26.9397 38.0431 28.85 37.1223C29.0949 37.0253 29.3888 37.1223 29.4868 37.3646C29.5847 37.6069 29.4868 37.8977 29.2419 37.9946C27.3806 38.9154 25.5193 39.9331 23.756 41.0477C23.658 41.1447 23.609 41.1447 23.511 41.1447ZM33.9931 36.0076C33.7971 36.0076 33.6012 35.8622 33.5522 35.6684C33.4543 35.4261 33.6012 35.1353 33.8461 35.0384C35.8544 34.3114 37.9605 33.7299 40.0178 33.2937C40.2627 33.2453 40.5566 33.3907 40.6055 33.6814C40.6545 33.9237 40.5076 34.2145 40.2137 34.263C38.1565 34.6991 36.1482 35.2807 34.14 35.9592C34.14 36.0076 34.091 36.0076 33.9931 36.0076Z" fill="#2C163A"/>
<path d="M332.192 96.9735C332.094 96.9735 331.996 96.925 331.947 96.8766C331.702 96.7312 331.653 96.4404 331.8 96.1981C332.828 94.6473 333.661 92.9511 334.249 91.158C334.347 90.9157 334.592 90.7703 334.885 90.8672C335.13 90.9641 335.277 91.2065 335.179 91.4972C334.543 93.3873 333.661 95.1319 332.632 96.7796C332.485 96.925 332.338 96.9735 332.192 96.9735ZM335.816 86.6025H335.767C335.522 86.5541 335.277 86.3602 335.326 86.0694C335.424 85.2456 335.473 84.3732 335.473 83.5494C335.473 82.3378 335.375 81.1263 335.228 79.9147C335.179 79.6724 335.375 79.3816 335.669 79.3816C335.914 79.3331 336.208 79.527 336.208 79.8178C336.404 81.0778 336.453 82.3378 336.453 83.5978C336.453 84.4702 336.404 85.3425 336.306 86.2148C336.257 86.4571 336.061 86.6025 335.816 86.6025ZM334.445 75.1654C334.249 75.1654 334.053 75.02 334.004 74.8261C333.318 72.8392 332.387 70.9976 331.31 69.2529C331.163 69.0106 331.212 68.7198 331.457 68.5745C331.702 68.4291 331.996 68.4775 332.143 68.7198C333.269 70.513 334.249 72.4515 334.934 74.4869C335.032 74.7292 334.885 75.02 334.641 75.1169C334.543 75.1654 334.494 75.1654 334.445 75.1654ZM328.322 65.3275C328.175 65.3275 328.077 65.279 327.979 65.1821C326.559 63.7767 324.942 62.5651 323.228 61.6443L323.032 61.5474C322.787 61.402 322.689 61.1112 322.836 60.8689C322.983 60.6266 323.277 60.5297 323.522 60.6751L323.718 60.772C325.53 61.7412 327.195 63.0013 328.714 64.5036C328.91 64.6975 328.91 64.9882 328.714 65.1821C328.567 65.3275 328.42 65.3275 328.322 65.3275ZM158.112 62.5166C158.063 62.5166 158.014 62.5166 157.965 62.5166C157.72 62.4197 157.573 62.1774 157.622 61.9351C158.21 59.9481 158.895 57.9127 159.679 55.9257C159.777 55.6834 160.071 55.538 160.316 55.635C160.561 55.7319 160.708 56.0227 160.61 56.265C159.875 58.2035 159.189 60.1904 158.553 62.1774C158.553 62.3713 158.357 62.5166 158.112 62.5166ZM318.281 59.512C318.232 59.512 318.183 59.512 318.134 59.512C316.322 58.9304 314.313 58.4458 312.011 58.0581C311.766 58.0096 311.57 57.7673 311.619 57.4765C311.668 57.2342 311.913 57.0404 312.207 57.0888C314.558 57.4765 316.615 57.9612 318.477 58.5912C318.722 58.6881 318.869 58.9304 318.771 59.2212C318.673 59.3666 318.477 59.512 318.281 59.512ZM306.77 57.2827H306.721C305.497 57.1373 304.272 57.0404 303.048 56.895C302.166 56.7981 301.284 56.7011 300.403 56.6042C300.158 56.5558 299.962 56.3134 299.962 56.0711C300.011 55.8288 300.207 55.635 300.501 55.635C301.382 55.7319 302.264 55.8288 303.146 55.9257C304.37 56.0711 305.595 56.1681 306.819 56.3134C307.064 56.3619 307.26 56.6042 307.26 56.8465C307.211 57.1373 307.015 57.2827 306.77 57.2827ZM295.064 55.9742C295.015 55.9742 295.015 55.9742 294.966 55.9742C292.566 55.5865 290.557 55.1503 288.696 54.5688C288.451 54.4719 288.304 54.2296 288.353 53.9872C288.451 53.7449 288.696 53.5995 288.941 53.648C290.753 54.1811 292.762 54.6173 295.064 55.005C295.309 55.0534 295.504 55.2957 295.455 55.538C295.504 55.7804 295.309 55.9742 295.064 55.9742ZM283.896 52.5818C283.798 52.5818 283.749 52.5818 283.651 52.5334C282.035 51.7095 280.565 50.6918 279.243 49.5287C278.949 49.2864 278.704 49.0441 278.41 48.7533C278.214 48.5594 278.214 48.2687 278.41 48.0748C278.606 47.881 278.9 47.881 279.096 48.0748C279.341 48.3171 279.635 48.5594 279.879 48.8018C281.153 49.9164 282.573 50.8856 284.092 51.661C284.337 51.8064 284.435 52.0972 284.288 52.3395C284.239 52.4849 284.043 52.5818 283.896 52.5818ZM162.275 51.6126C162.226 51.6126 162.128 51.6126 162.079 51.5641C161.834 51.4672 161.736 51.1764 161.834 50.9341C162.716 49.0441 163.696 47.1056 164.724 45.264C164.871 45.0217 165.165 44.9248 165.41 45.0701C165.655 45.2155 165.753 45.5063 165.606 45.7486C164.577 47.5902 163.647 49.4802 162.765 51.3218C162.618 51.5157 162.471 51.6126 162.275 51.6126ZM275.422 44.7309C275.275 44.7309 275.079 44.634 275.03 44.4886C273.953 42.8409 273.022 40.9993 272.14 38.77C272.042 38.5277 272.14 38.2369 272.434 38.14C272.679 38.0431 272.973 38.14 273.071 38.4308C273.953 40.5631 274.883 42.3562 275.863 43.9555C276.01 44.1978 275.961 44.4886 275.716 44.634C275.569 44.7309 275.471 44.7309 275.422 44.7309ZM167.859 41.4355C167.761 41.4355 167.663 41.4355 167.614 41.3385C167.369 41.1931 167.32 40.9024 167.467 40.6601C168.594 38.8669 169.818 37.1223 171.092 35.4261C171.239 35.2323 171.582 35.1838 171.778 35.3292C171.973 35.4746 172.022 35.8138 171.876 36.0077C170.651 37.7038 169.426 39.4485 168.3 41.1931C168.202 41.3385 168.006 41.4355 167.859 41.4355ZM270.769 34.1176C270.573 34.1176 270.377 33.9722 270.279 33.7784C269.838 32.4214 269.397 30.9675 269.006 29.6106C268.81 28.9806 268.614 28.3506 268.467 27.7206C268.369 27.4782 268.516 27.1875 268.81 27.139C269.055 27.0421 269.348 27.1875 269.397 27.4782C269.593 28.1083 269.789 28.7383 269.936 29.3683C270.328 30.7252 270.769 32.1306 271.21 33.5361C271.308 33.7784 271.161 34.0691 270.867 34.1661C270.867 34.0691 270.818 34.1176 270.769 34.1176ZM174.765 32.0337C174.667 32.0337 174.521 31.9853 174.472 31.9368C174.276 31.7429 174.227 31.4522 174.423 31.2583C175.794 29.6591 177.214 28.0598 178.684 26.509C178.88 26.3151 179.174 26.3151 179.37 26.509C179.566 26.7028 179.566 26.9936 179.37 27.1875C177.9 28.6898 176.48 30.2891 175.157 31.8883C175.059 31.9368 174.912 32.0337 174.765 32.0337ZM182.847 23.5528C182.7 23.5528 182.602 23.5043 182.504 23.4074C182.309 23.2135 182.309 22.9228 182.504 22.7289C184.072 21.275 185.688 19.9181 187.354 18.5611C187.55 18.4158 187.892 18.4158 188.039 18.6096C188.186 18.8035 188.186 19.1427 187.99 19.2881C186.374 20.5966 184.758 21.9535 183.19 23.4074C183.092 23.5043 182.945 23.5528 182.847 23.5528ZM267.291 22.9712C267.095 22.9712 266.899 22.8258 266.85 22.632C266.067 20.4512 265.283 18.5611 264.401 16.9134C264.254 16.6711 264.352 16.3803 264.597 16.2834C264.842 16.138 265.136 16.2349 265.234 16.4773C266.116 18.1734 266.948 20.1119 267.732 22.3412C267.83 22.5835 267.683 22.8743 267.438 22.9712C267.389 22.9712 267.34 22.9712 267.291 22.9712ZM191.909 16.1865C191.762 16.1865 191.615 16.138 191.517 15.9926C191.37 15.7988 191.419 15.4595 191.615 15.3142C193.329 14.1026 195.142 12.891 196.954 11.8249C197.199 11.6795 197.493 11.7764 197.64 11.9702C197.787 12.2126 197.689 12.5033 197.493 12.6487C195.729 13.7149 193.917 14.878 192.203 16.0896C192.105 16.1865 192.007 16.1865 191.909 16.1865ZM261.952 12.6972C261.805 12.6972 261.658 12.6487 261.56 12.5033C260.287 10.9041 258.817 9.45019 257.152 8.09324C256.956 7.94785 256.907 7.60861 257.054 7.41476C257.201 7.22091 257.544 7.17245 257.74 7.31784C259.454 8.67479 260.973 10.2256 262.295 11.8733C262.442 12.0672 262.442 12.4064 262.197 12.5518C262.148 12.6487 262.05 12.6972 261.952 12.6972ZM201.901 10.0802C201.705 10.0802 201.558 9.98328 201.46 9.83789C201.313 9.59558 201.411 9.3048 201.656 9.15942C203.517 8.19016 205.477 7.22091 207.436 6.39705C207.681 6.30013 207.975 6.39705 208.073 6.63936C208.171 6.88168 208.073 7.17245 207.828 7.26938C205.918 8.09324 204.007 9.01403 202.146 9.98328C202.048 10.0317 201.999 10.0802 201.901 10.0802ZM212.628 5.33088C212.432 5.33088 212.236 5.18549 212.187 4.99164C212.089 4.74933 212.236 4.45855 212.481 4.36163C213.95 3.82854 215.469 3.34391 216.987 2.85929C217.526 2.7139 218.065 2.56851 218.555 2.42313C218.8 2.37466 219.094 2.52005 219.143 2.76236C219.192 3.00468 219.045 3.29545 218.8 3.34391C218.261 3.4893 217.771 3.63469 217.232 3.78008C215.763 4.21624 214.244 4.70086 212.775 5.23395C212.726 5.33088 212.677 5.33088 212.628 5.33088ZM252.989 5.28241C252.891 5.28241 252.842 5.28241 252.744 5.23395C250.931 4.2647 249.021 3.44084 246.964 2.81083C246.719 2.7139 246.572 2.47159 246.67 2.18081C246.768 1.9385 247.013 1.79311 247.307 1.89004C249.364 2.56851 251.372 3.39238 253.234 4.41009C253.478 4.55548 253.576 4.84625 253.429 5.08856C253.332 5.18549 253.185 5.28241 252.989 5.28241ZM223.894 2.13235C223.649 2.13235 223.453 1.98696 223.404 1.74465C223.355 1.50234 223.502 1.21156 223.796 1.1631C225.951 0.726938 228.106 0.3877 230.163 0.242313C230.457 0.19385 230.653 0.436163 230.702 0.678475C230.751 0.920788 230.506 1.1631 230.261 1.21156C228.253 1.40541 226.147 1.69619 224.041 2.13235C223.992 2.13235 223.943 2.13235 223.894 2.13235ZM241.919 1.50234C241.87 1.50234 241.87 1.50234 241.821 1.50234L241.429 1.45388C239.568 1.1631 237.56 1.01771 235.6 0.96925C235.306 0.96925 235.11 0.726938 235.11 0.484625C235.11 0.242313 235.355 0 235.6 0C237.657 0.0484625 239.666 0.19385 241.576 0.484625L242.017 0.533088C242.262 0.58155 242.458 0.823863 242.409 1.11464C242.36 1.35695 242.164 1.50234 241.919 1.50234Z" fill="#2C163A"/>
<path d="M84.7379 28.3021H78.8112C77.4397 28.3021 76.1172 28.8352 75.1376 29.8045L70.9252 33.9722C69.9455 34.9415 69.4067 36.25 69.4067 37.6069V43.4709C69.4067 44.8278 69.9455 46.1363 70.9252 47.1056L75.1376 51.2734C76.1172 52.2426 77.4397 52.7757 78.8112 52.7757H84.7379C86.1094 52.7757 87.4319 52.2426 88.4115 51.2734L92.6239 47.1056C93.6035 46.1363 94.1423 44.8278 94.1423 43.4709V37.5585C94.1423 36.2015 93.6035 34.893 92.6239 33.9238L88.4115 29.756C87.3829 28.8352 86.1094 28.3021 84.7379 28.3021Z" fill="#F3ECDB"/>
<path d="M90.2726 47.9779H84.3459C82.8275 47.9779 81.407 47.3964 80.3294 46.3302L76.117 42.1624C75.0394 41.0962 74.4517 39.6908 74.4517 38.1885V32.373C74.4517 30.8706 75.0394 29.4652 76.117 28.3991L80.3294 24.2313C81.407 23.1651 82.8275 22.5836 84.3459 22.5836H90.2726C91.7911 22.5836 93.2115 23.1651 94.2891 24.2313L98.5015 28.3991C99.5791 29.4652 100.167 30.8706 100.167 32.373V38.237C100.167 39.7393 99.5791 41.1447 98.5015 42.2109L94.2891 46.3787C93.2115 47.3964 91.7911 47.9779 90.2726 47.9779ZM84.3459 23.5528C83.0724 23.5528 81.8968 24.0374 81.0152 24.9098L76.8028 29.0775C75.9211 29.9499 75.4313 31.113 75.4313 32.373V38.237C75.4313 39.497 75.9211 40.6601 76.8028 41.5324L81.0152 45.7002C81.8968 46.5725 83.0724 47.0571 84.3459 47.0571H90.2726C91.5462 47.0571 92.7217 46.5725 93.6034 45.7002L97.8158 41.5324C98.6974 40.6601 99.1873 39.497 99.1873 38.237V32.373C99.1873 31.113 98.6974 29.9499 97.8158 29.0775L93.6034 24.9098C92.7217 24.0374 91.5462 23.5528 90.2726 23.5528H84.3459Z" fill="#2C163A"/>
<path d="M240.4 32.3245H237.511C236.825 32.3245 236.188 32.5668 235.747 33.0514L233.69 35.0868C233.2 35.5715 232.955 36.2015 232.955 36.8315V39.6908C232.955 40.3692 233.2 40.9993 233.69 41.4354L235.747 43.4708C236.237 43.9555 236.874 44.1978 237.511 44.1978H240.4C241.086 44.1978 241.723 43.9555 242.164 43.4708L244.221 41.4354C244.711 40.9508 244.956 40.3208 244.956 39.6908V36.8315C244.956 36.153 244.711 35.523 244.221 35.0868L242.164 33.0514C241.674 32.5668 241.037 32.3245 240.4 32.3245Z" fill="#F3ECDB"/>
<path d="M237.951 49.1895H235.062C234.278 49.1895 233.494 48.8987 232.906 48.3172L230.849 46.2817C230.261 45.7002 229.968 44.9733 229.968 44.1494V41.2901C229.968 40.5147 230.261 39.7393 230.849 39.1578L232.906 37.1223C233.494 36.5408 234.229 36.25 235.062 36.25H237.951C238.735 36.25 239.519 36.5408 240.107 37.1223L242.164 39.1578C242.752 39.7393 243.046 40.4662 243.046 41.2901V44.1494C243.046 44.9248 242.752 45.7002 242.164 46.2817L240.107 48.3172C239.519 48.8503 238.784 49.1895 237.951 49.1895ZM235.062 37.2677C234.523 37.2677 233.984 37.4616 233.641 37.8493L231.584 39.8847C231.192 40.2724 230.996 40.757 230.996 41.2901V44.1494C230.996 44.6825 231.192 45.2156 231.584 45.5548L233.641 47.5902C234.033 47.9779 234.523 48.1718 235.062 48.1718H237.951C238.49 48.1718 239.029 47.9779 239.372 47.5902L241.429 45.5548C241.821 45.1671 242.017 44.6825 242.017 44.1494V41.2901C242.017 40.757 241.821 40.2239 241.429 39.8847L239.372 37.8493C238.98 37.4616 238.49 37.2677 237.951 37.2677H235.062Z" fill="#2C163A"/>
<path d="M326.95 124.936H324.599C323.914 124.936 323.277 124.646 322.787 124.209L321.122 122.562C320.632 122.077 320.387 121.447 320.387 120.769V118.442C320.387 117.764 320.632 117.134 321.122 116.649L322.787 115.002C323.277 114.517 323.914 114.275 324.599 114.275H326.95C327.636 114.275 328.273 114.565 328.763 115.002L330.428 116.649C330.918 117.134 331.163 117.764 331.163 118.442V120.769C331.163 121.447 330.918 122.077 330.428 122.562L328.763 124.209C328.273 124.694 327.636 124.936 326.95 124.936ZM324.599 115.244C324.208 115.244 323.767 115.389 323.473 115.68L321.807 117.328C321.514 117.619 321.367 118.006 321.367 118.442V120.769C321.367 121.205 321.514 121.592 321.807 121.883L323.473 123.531C323.767 123.822 324.159 123.967 324.599 123.967H326.95C327.342 123.967 327.783 123.822 328.077 123.531L329.742 121.883C330.036 121.592 330.183 121.205 330.183 120.769V118.442C330.183 118.006 330.036 117.619 329.742 117.328L328.077 115.68C327.783 115.389 327.391 115.244 326.95 115.244H324.599Z" fill="#2C163A"/>
<path d="M115.743 21.3235H114.469C114.029 21.3235 113.637 21.1781 113.343 20.8389L112.461 19.9666C112.167 19.6758 111.971 19.2881 111.971 18.8519V17.5919C111.971 17.1557 112.118 16.768 112.461 16.4772L113.343 15.6049C113.637 15.3142 114.029 15.1203 114.469 15.1203H115.743C116.184 15.1203 116.576 15.2657 116.87 15.6049L117.751 16.4772C118.045 16.768 118.241 17.1557 118.241 17.5919V18.8519C118.241 19.2881 118.094 19.6758 117.751 19.9666L116.87 20.8389C116.576 21.1781 116.135 21.3235 115.743 21.3235ZM114.469 16.138C114.323 16.138 114.176 16.1865 114.029 16.3319L113.147 17.2042C113.049 17.3011 112.951 17.495 112.951 17.6404V18.9004C112.951 19.0458 113 19.1912 113.147 19.3365L114.029 20.2089C114.127 20.3058 114.323 20.4027 114.469 20.4027H115.743C115.89 20.4027 116.086 20.3543 116.184 20.2089L117.065 19.3365C117.163 19.2396 117.261 19.0458 117.261 18.9004V17.6404C117.261 17.495 117.212 17.3496 117.065 17.2042L116.184 16.3319C116.086 16.2349 115.89 16.138 115.743 16.138H114.469Z" fill="#2C163A"/>
<path d="M13.5188 241.876H11.7555C11.2167 241.876 10.7269 241.683 10.335 241.295L9.11048 240.083C8.71863 239.696 8.52271 239.211 8.52271 238.678V236.933C8.52271 236.4 8.71863 235.916 9.11048 235.528L10.335 234.316C10.7269 233.929 11.2167 233.735 11.7555 233.735H13.5188C14.0576 233.735 14.5474 233.929 14.9393 234.316L16.1638 235.528C16.5557 235.916 16.7516 236.4 16.7516 236.933V238.678C16.7516 239.211 16.5557 239.696 16.1638 240.083L14.9393 241.295C14.5964 241.634 14.0576 241.876 13.5188 241.876ZM11.8045 234.655C11.5106 234.655 11.2657 234.752 11.0697 234.946L9.8452 236.158C9.64928 236.352 9.55131 236.594 9.55131 236.885V238.629C9.55131 238.92 9.64928 239.163 9.8452 239.356L11.0697 240.568C11.2657 240.762 11.5106 240.859 11.8045 240.859H13.5678C13.8617 240.859 14.1066 240.762 14.3025 240.568L15.527 239.356C15.723 239.163 15.8209 238.92 15.8209 238.629V236.885C15.8209 236.594 15.723 236.352 15.527 236.158L14.3025 234.946C14.1066 234.752 13.8617 234.655 13.5678 234.655H11.8045Z" fill="#2C163A"/>
</svg>
