<svg width="360" height="318" viewBox="0 0 360 318" fill="none" xmlns="http://www.w3.org/2000/svg">
<path d="M190.718 309.069L192.649 311.868H152.446V302.27C152.446 301.381 153.238 300.67 154.228 300.67C154.476 300.67 154.674 300.715 154.872 300.759C155.169 300.848 155.466 301.07 155.664 301.292L157.744 303.87C158.387 304.67 159.377 305.114 160.417 305.114H164.081C165.22 305.114 166.309 304.581 166.903 303.736L168.537 301.381C168.884 300.937 169.428 300.626 170.022 300.626H170.468C170.914 300.626 171.359 300.804 171.706 301.07L173.983 302.981C175.766 304.492 178.093 305.425 180.568 305.558L184.628 305.78C187.153 305.958 189.381 307.158 190.718 309.069Z" fill="#2C163A"/>
<path d="M109.47 204.422C114.074 196.779 118.679 189.092 123.283 181.404C123.679 181.271 124.422 181.049 125.363 180.871C126.848 180.604 128.928 180.471 131.304 181.049C134.225 181.804 136.206 183.315 137.196 184.293C137.444 184.559 137.691 184.781 137.79 184.915L124.422 211.399C122.64 214.953 119.471 217.797 115.51 219.441L91.2991 229.528L74.4157 262.411C72.6333 262.944 65.8007 264.855 57.9779 262.055C50.8483 259.478 47.3825 254.546 46.3428 252.991L60.5525 214.331C71.8906 218.064 79.8124 212.82 83.7733 209.221C86.447 211.265 90.2098 211.754 93.4281 210.554L109.47 204.422Z" fill="#B1B7A4"/>
<path d="M84.9123 182.693C85.4569 182.693 85.952 183.093 85.952 183.626C85.952 184.159 85.5064 184.559 84.9123 184.559C84.3182 184.559 83.8726 184.159 83.8726 183.626C83.8726 183.093 84.3677 182.693 84.9123 182.693Z" fill="#2C163A"/>
<path d="M82.5852 175.983C81.892 176.783 81.0008 177.449 80.1591 178.116C79.0203 179.094 77.8816 180.249 77.7826 181.671C77.535 184.604 81.5949 186.603 81.8425 189.581C81.9415 191.047 81.0998 192.424 80.3076 193.713C79.5155 195.002 78.8223 196.513 79.3174 197.934C79.763 199.356 81.2483 200.245 82.3871 201.312C83.1793 202.111 83.9715 203.089 84.5161 204.2C85.3578 205.8 85.6053 207.533 84.4171 208.688C84.219 208.866 84.021 209.043 83.8724 209.221C79.9115 212.821 72.0392 218.108 60.6516 214.331C60.6021 214.287 60.5031 214.287 60.4536 214.242C56.8393 208.332 57.5324 203 56.0471 196.424C54.5617 189.847 55.1559 182.648 59.0673 176.872C62.9787 171.095 70.6529 167.229 78.0301 168.385L79.3174 168.251C80.7532 168.429 82.1396 169.096 82.9813 170.206C84.0705 171.584 84.219 173.495 83.3773 175.006C83.1298 175.361 82.8822 175.672 82.5852 175.983Z" fill="#2C163A"/>
<path d="M42.1838 300.893C42.778 301.603 42.5799 302.581 41.7877 303.114C41.5897 303.248 41.3917 303.336 41.1936 303.381C41.0451 303.425 40.8965 303.425 40.748 303.425C40.55 303.425 40.4014 303.425 40.2034 303.336L36.7871 302.359C35.7474 302.048 34.6581 302.226 33.7669 302.803L30.8457 304.758C29.905 305.381 29.4099 306.358 29.5089 307.38L29.707 310.135C29.7565 310.668 29.4594 311.202 28.9643 311.513L28.6177 311.735C28.2711 311.957 27.776 312.09 27.3304 312.046L24.2607 311.69C21.7852 311.424 19.3096 311.913 17.2301 313.112L13.8138 315.112C11.7344 316.312 9.11026 316.534 6.78323 315.734L3.36694 314.49L35.7969 293.161L42.1838 300.893Z" fill="#2C163A"/>
<path d="M89.8136 211.621C87.5361 211.621 85.308 210.91 83.4761 209.532C83.2781 209.354 83.2286 209.088 83.4266 208.91C83.6247 208.732 83.9217 208.688 84.1198 208.866C86.6944 210.776 90.2097 211.265 93.2794 210.11L112.787 202.645C113.034 202.556 113.331 202.645 113.43 202.867C113.53 203.089 113.43 203.356 113.183 203.444L93.6755 210.91C92.3882 211.399 91.1009 211.621 89.8136 211.621Z" fill="#2C163A"/>
<path d="M86.3974 232.061C86.1993 232.061 86.0508 231.972 85.9518 231.795C85.8527 231.572 85.9518 231.306 86.1993 231.217L115.312 219.086C119.124 217.486 122.194 214.731 123.976 211.265L137.246 185.004C137.146 184.87 136.998 184.737 136.849 184.604C135.76 183.582 133.928 182.16 131.156 181.493C129.324 181.049 127.393 180.96 125.462 181.315C124.62 181.449 123.976 181.671 123.63 181.76L118.233 190.736C115.461 195.357 112.688 199.978 109.915 204.6C109.866 204.644 109.866 204.689 109.866 204.689C109.767 204.911 109.47 205 109.222 204.866C108.975 204.778 108.876 204.511 109.024 204.289C109.074 204.244 109.074 204.2 109.123 204.155C111.896 199.579 114.668 194.913 117.441 190.291L122.937 181.182C122.986 181.093 123.085 181.004 123.184 180.96C123.432 180.871 124.274 180.604 125.363 180.427C127.442 180.071 129.522 180.116 131.502 180.649C134.473 181.404 136.453 182.915 137.642 184.026C137.889 184.293 138.137 184.515 138.285 184.692C138.384 184.826 138.434 185.004 138.335 185.137L124.967 211.621C123.135 215.264 119.867 218.197 115.807 219.886L86.6944 232.017C86.4964 232.061 86.4469 232.061 86.3974 232.061Z" fill="#2C163A"/>
<path d="M171.755 298.582H151.604C151.455 298.582 151.356 298.537 151.257 298.448L115.114 264.233L90.6554 283.785C85.3577 288.228 78.4756 290.672 71.2469 290.672C66.7414 290.672 62.1864 289.695 58.1759 287.828C57.7798 287.651 57.3838 287.473 56.9382 287.206C45.501 281.207 40.1538 268.632 44.2632 257.301L60.1564 214.198C60.2554 213.976 60.503 213.842 60.8 213.931C61.0476 214.02 61.1961 214.242 61.0971 214.509L45.204 257.612C41.2431 268.543 46.3922 280.674 57.4333 286.451C57.8789 286.673 58.275 286.851 58.6215 287.028C62.4834 288.85 66.8404 289.783 71.1974 289.783C78.1785 289.783 84.8625 287.428 89.9622 283.118L114.767 263.255C114.965 263.077 115.263 263.122 115.461 263.3L151.802 297.693H170.715L126.898 246.147C122.689 240.993 114.767 239.704 108.826 243.126L74.6137 262.855C74.4157 262.944 74.1681 262.944 74.0196 262.811C73.871 262.678 73.8215 262.455 73.871 262.278L90.8534 229.262C90.9524 229.04 91.2495 228.951 91.4971 229.04C91.7446 229.128 91.8437 229.395 91.7446 229.617L91.6456 229.75L75.5544 261.256L108.331 242.37C114.718 238.682 123.283 240.104 127.739 245.614L172.151 297.871C172.25 298.004 172.3 298.182 172.201 298.315C172.151 298.493 171.953 298.582 171.755 298.582Z" fill="#2C163A"/>
<path d="M66.6916 264.011C64.0675 264.011 60.9978 263.611 57.8291 262.5C51.145 260.1 47.5307 255.657 45.9463 253.213L45.8968 253.168C45.7978 252.946 45.8968 252.68 46.1444 252.591C46.3919 252.502 46.6395 252.591 46.788 252.768V252.813C48.2734 255.123 51.7392 259.389 58.1261 261.7C65.3053 264.277 71.7418 262.811 74.2173 262.056C74.4649 261.967 74.7619 262.1 74.861 262.322C74.96 262.544 74.8115 262.811 74.5639 262.9C73.0786 263.3 70.2564 264.011 66.6916 264.011Z" fill="#2C163A"/>
<path d="M101.597 316.045H37.6781C37.5295 316.045 37.3315 315.956 37.2325 315.823C37.1334 315.69 37.1334 315.512 37.2325 315.379L45.897 300.137C45.996 300.004 46.1445 299.915 46.3426 299.915L80.4064 299.159L58.1263 287.828C57.8787 287.695 57.8292 287.428 57.9282 287.206C58.0767 286.984 58.3738 286.94 58.6214 287.028L82.4363 299.159C82.6344 299.248 82.7334 299.471 82.6839 299.648C82.6344 299.826 82.4363 299.959 82.2383 300.004L46.6891 300.804L38.5198 315.156H101.597C106.895 315.156 111.45 312.446 113.579 308.136C115.658 303.781 114.767 298.937 111.153 295.471L94.7646 279.741C94.5666 279.563 94.6161 279.297 94.8142 279.119C95.0122 278.941 95.3093 278.986 95.5073 279.163L95.6063 279.252L111.846 294.894C115.708 298.626 116.698 303.825 114.47 308.535C112.193 313.157 107.242 316.045 101.597 316.045Z" fill="#2C163A"/>
<path d="M89.1203 185.403C88.9717 185.403 88.8232 185.359 88.7242 185.226C88.5756 185.004 88.6251 184.737 88.8232 184.604C89.0707 184.426 89.2688 184.248 89.4668 184.026C89.8629 183.582 90.061 183.093 90.16 182.604C90.2095 182.337 90.0115 182.115 89.7144 182.071C86.1991 181.493 83.1789 179.094 82.1392 176.116C82.1392 176.072 82.1392 176.027 82.1392 175.983C82.1392 175.716 82.3372 175.539 82.6343 175.539C82.8818 175.539 83.0799 175.672 83.1294 175.894C84.0701 178.605 86.7932 180.738 89.9124 181.226C90.7541 181.36 91.2988 182.026 91.1997 182.782C91.1007 183.448 90.8036 184.07 90.3085 184.604C90.061 184.87 89.8134 185.137 89.4668 185.359C89.3183 185.359 89.2193 185.403 89.1203 185.403Z" fill="#2C163A"/>
<path d="M86.0013 197.179C85.8527 197.179 85.6547 197.179 85.5061 197.179C84.8625 197.135 84.2188 197.001 83.6247 196.824C83.3772 196.735 83.2286 196.468 83.3276 196.246C83.4267 196.024 83.7237 195.89 83.9713 195.979C84.5159 196.157 85.011 196.246 85.5557 196.29C86.7439 196.379 87.9817 196.113 88.9719 195.624C90.5068 194.868 91.596 193.491 91.8931 191.936C92.4377 189.358 91.1009 187.048 89.368 184.559C89.2195 184.337 89.3185 184.07 89.5166 183.937C89.7641 183.804 90.0612 183.893 90.2097 184.07C91.9921 186.737 93.428 189.225 92.8338 192.069C92.4377 193.846 91.2 195.446 89.4175 196.379C88.4768 196.912 87.239 197.179 86.0013 197.179Z" fill="#2C163A"/>
<path d="M68.2761 216.109C65.8501 216.109 63.226 215.709 60.4038 214.776L60.2058 214.687C59.9582 214.598 59.8097 214.331 59.9087 214.109C60.0077 213.887 60.3048 213.754 60.5524 213.842L60.7504 213.931C71.1973 217.397 78.8715 213.131 83.4266 208.91C83.6246 208.732 83.8227 208.555 83.9712 208.377C85.11 207.266 84.6149 205.577 84.0207 204.378C83.9217 204.155 84.0207 203.889 84.2683 203.8C84.5158 203.711 84.8129 203.8 84.9119 204.022C85.9517 206.066 85.9022 207.844 84.7139 208.999C84.5158 209.177 84.3178 209.354 84.1197 209.532C80.6044 212.776 75.2572 216.109 68.2761 216.109Z" fill="#2C163A"/>
<path d="M84.516 204.6C84.318 204.6 84.1694 204.511 84.0704 204.333C83.5753 203.4 82.8821 202.422 82.0404 201.578C81.7434 201.267 81.3968 201 81.0997 200.734C80.2085 199.934 79.2678 199.134 78.8717 198.023C78.3271 196.468 79.1193 194.868 79.9114 193.491L80.06 193.224C80.7531 192.024 81.4958 190.825 81.3968 189.58C81.2978 188.292 80.4066 187.225 79.4163 186.026C78.3271 184.692 77.1883 183.315 77.3369 181.582C77.4854 179.938 78.8222 178.605 79.8619 177.76C80.06 177.583 80.258 177.405 80.4561 177.272C81.0997 176.783 81.7434 176.25 82.2385 175.672C82.486 175.405 82.7336 175.094 82.8821 174.783C83.6248 173.45 83.4763 171.717 82.5355 170.473C81.7929 169.54 80.5551 168.873 79.2183 168.74C78.8717 168.695 78.4756 168.695 78.129 168.74C77.832 168.784 77.6339 168.607 77.5844 168.34C77.5349 168.118 77.7329 167.896 78.03 167.851C78.4756 167.807 78.9212 167.807 79.3668 167.851C80.9512 168.029 82.486 168.829 83.3772 169.984C84.5655 171.495 84.714 173.583 83.8228 175.228C83.6248 175.583 83.3772 175.939 83.0802 176.25C82.5355 176.872 81.8424 177.405 81.1987 177.938C81.0007 178.116 80.8027 178.249 80.6046 178.427C79.7134 179.182 78.5251 180.338 78.3766 181.671C78.2776 183.048 79.2678 184.248 80.258 185.492C81.2483 186.692 82.288 187.981 82.387 189.492C82.486 191.002 81.6939 192.335 80.9512 193.624L80.8026 193.891C80.1095 195.09 79.4163 196.512 79.8619 197.757C80.159 198.645 80.9512 199.356 81.7929 200.067C82.1395 200.334 82.486 200.645 82.7831 200.956C83.6743 201.845 84.4665 202.911 85.0111 203.933C85.1101 204.155 85.0111 204.422 84.7636 204.511C84.615 204.6 84.5655 204.6 84.516 204.6Z" fill="#2C163A"/>
<path d="M60.404 214.731C60.206 214.731 60.0574 214.642 59.9584 214.509C57.4828 210.421 56.9877 206.599 56.4431 202.511C56.1955 200.601 55.948 198.645 55.5024 196.557C53.819 189.136 54.9578 182.071 58.6216 176.694C62.8796 170.473 70.9004 166.874 78.0795 167.985C78.3271 168.029 78.5252 168.251 78.4756 168.518C78.4261 168.74 78.1786 168.918 77.8815 168.873C71.0489 167.807 63.4737 171.228 59.4138 177.138C55.8985 182.293 54.8092 189.136 56.4431 196.335C56.9382 198.468 57.1858 200.467 57.4333 202.378C57.9284 206.333 58.4235 210.11 60.8001 214.02C60.9486 214.242 60.8496 214.509 60.602 214.642C60.5525 214.687 60.4535 214.731 60.404 214.731Z" fill="#2C163A"/>
<path d="M84.5159 204.644C84.2684 204.644 84.1198 204.511 84.0208 204.333C83.4762 202.911 83.9713 199.401 85.0606 196.646C85.1596 196.424 85.4567 196.29 85.7042 196.379C85.9518 196.468 86.1003 196.735 86.0013 196.957C84.8625 199.801 84.5159 202.956 84.9615 204.067C84.9615 204.111 85.011 204.155 85.011 204.2C85.011 204.422 84.7635 204.644 84.5159 204.644Z" fill="#2C163A"/>
<path d="M81.9414 183.715C81.6938 183.715 81.4958 183.537 81.4463 183.315C81.2977 181.982 82.3375 180.604 83.7733 180.249C84.0208 180.16 84.3179 180.338 84.3674 180.56C84.4664 180.782 84.2684 181.049 84.0208 181.093C83.0306 181.36 82.2879 182.293 82.387 183.226C82.4365 183.493 82.2384 183.671 81.9414 183.715Z" fill="#2C163A"/>
<path d="M89.566 191.269C89.2194 191.269 88.8233 191.225 88.4768 191.091C88.2292 191.002 88.0807 190.736 88.1797 190.514C88.2787 190.291 88.5758 190.158 88.8233 190.247C89.368 190.425 90.0116 190.38 90.5562 190.158C91.1009 189.936 91.497 189.492 91.695 188.958C91.794 188.736 92.0416 188.603 92.3386 188.692C92.5862 188.781 92.7347 189.003 92.6357 189.269C92.3882 190.025 91.794 190.647 91.0018 190.958C90.5562 191.18 90.0611 191.269 89.566 191.269Z" fill="#2C163A"/>
<path d="M192.649 312.313H152.445C152.148 312.313 151.95 312.135 151.95 311.868V302.27C151.95 301.159 152.99 300.226 154.228 300.226C154.525 300.226 154.772 300.271 155.069 300.359C155.466 300.493 155.812 300.759 156.06 301.07L158.139 303.648C158.684 304.314 159.525 304.714 160.417 304.714H164.08C165.071 304.714 165.962 304.27 166.507 303.514L168.14 301.159C168.537 300.582 169.279 300.226 170.071 300.226H170.517C171.111 300.226 171.656 300.448 172.101 300.804L174.379 302.714C176.062 304.181 178.34 305.025 180.667 305.158L184.727 305.381C187.351 305.514 189.777 306.803 191.163 308.802L193.094 311.602C193.193 311.735 193.193 311.913 193.094 312.046C192.995 312.224 192.847 312.313 192.649 312.313ZM152.94 311.424H191.757L190.272 309.291C189.034 307.514 186.905 306.403 184.628 306.269L180.568 306.047C177.993 305.914 175.518 304.936 173.636 303.337L171.359 301.426C171.111 301.204 170.814 301.115 170.467 301.115H170.022C169.576 301.115 169.18 301.293 168.933 301.648L167.299 304.003C166.606 305.025 165.368 305.603 164.031 305.603H160.367C159.129 305.603 157.991 305.07 157.248 304.181L155.168 301.604C155.02 301.426 154.822 301.293 154.624 301.204C153.733 300.893 152.891 301.515 152.891 302.27V311.424H152.94Z" fill="#2C163A"/>
<path d="M192.649 316.756H152.445C152.148 316.756 151.95 316.578 151.95 316.312V311.868C151.95 311.602 152.148 311.424 152.445 311.424C152.742 311.424 152.94 311.602 152.94 311.868V315.867H192.153V311.868C192.153 311.602 192.351 311.424 192.649 311.424C192.946 311.424 193.144 311.602 193.144 311.868V316.312C193.144 316.534 192.946 316.756 192.649 316.756Z" fill="#2C163A"/>
<path d="M170.072 301.159C169.824 301.159 169.626 301.026 169.576 300.804L169.081 298.226C169.081 298.182 169.081 298.182 169.081 298.137C169.081 297.871 169.279 297.693 169.576 297.693C169.824 297.693 170.022 297.871 170.072 298.093L170.567 300.626C170.616 300.848 170.418 301.115 170.171 301.159C170.121 301.115 170.072 301.159 170.072 301.159Z" fill="#2C163A"/>
<path d="M154.921 301.159C154.674 301.159 154.475 301.026 154.426 300.804L153.881 298.226C153.881 298.182 153.881 298.182 153.881 298.137C153.881 297.871 154.079 297.693 154.376 297.693C154.624 297.693 154.822 297.871 154.872 298.093L155.416 300.626C155.466 300.848 155.317 301.115 155.02 301.159C154.971 301.115 154.971 301.159 154.921 301.159Z" fill="#2C163A"/>
<path d="M9.70425 316.667C8.66451 316.667 7.62477 316.49 6.68405 316.134L3.26777 314.89C3.11924 314.845 2.9707 314.712 2.9707 314.534C2.9707 314.357 3.02021 314.223 3.16875 314.134L35.5987 292.805C35.7967 292.672 36.1433 292.716 36.2918 292.894L42.5798 300.626C43.3224 301.515 43.0749 302.803 42.0847 303.47C41.8371 303.603 41.5896 303.736 41.2925 303.781C40.8964 303.87 40.4013 303.87 40.0052 303.736L36.5889 302.759C35.7472 302.492 34.757 302.67 34.0143 303.114L31.0931 305.069C30.301 305.603 29.8554 306.447 29.9544 307.291L30.2019 310.135C30.2515 310.846 29.9049 311.513 29.2612 311.913L28.9146 312.135C28.4195 312.446 27.8749 312.579 27.2808 312.49L24.2111 312.135C21.884 311.868 19.5075 312.357 17.527 313.512L14.1108 315.512C12.7739 316.267 11.2391 316.667 9.70425 316.667ZM4.40653 314.401L7.03063 315.334C9.20913 316.09 11.6352 315.912 13.5661 314.757L16.9824 312.757C19.1609 311.468 21.785 310.979 24.3596 311.246L27.4293 311.602C27.7759 311.646 28.073 311.557 28.37 311.379L28.7166 311.157C29.0632 310.935 29.2612 310.535 29.2117 310.135L29.0137 307.38C28.9146 306.225 29.5088 305.069 30.5485 304.359L33.4697 302.403C34.4599 301.737 35.7472 301.559 36.886 301.915L40.3023 302.892C40.5003 302.937 40.7974 302.981 40.9954 302.892C41.144 302.848 41.2925 302.803 41.441 302.714C41.9856 302.359 42.1342 301.648 41.7381 301.115L35.6977 293.738L4.40653 314.401Z" fill="#2C163A"/>
<path d="M3.41628 314.934C3.26775 314.934 3.11921 314.89 3.02019 314.757L0.0990227 311.202C0 311.113 0 310.979 0 310.891C0 310.757 0.0990227 310.668 0.198045 310.58L32.628 289.25C32.727 289.161 32.8755 289.161 32.9746 289.161C33.1231 289.161 33.2221 289.25 33.3211 289.339L36.2423 292.894C36.3908 293.072 36.3413 293.383 36.1433 293.516C35.9452 293.649 35.5987 293.605 35.4501 293.427L32.826 290.228L1.18827 311.024L3.81237 314.223C3.96091 314.401 3.9114 314.712 3.71335 314.845C3.61433 314.934 3.51531 314.934 3.41628 314.934Z" fill="#2C163A"/>
<path d="M38.6187 313.779C38.5692 313.779 38.5692 313.779 38.5197 313.779L28.9145 312.002C28.6669 311.957 28.4689 311.735 28.5184 311.468C28.5679 311.246 28.8154 311.068 29.1125 311.113L38.7177 312.89C38.9653 312.935 39.1633 313.157 39.1138 313.423C39.0148 313.646 38.8167 313.779 38.6187 313.779Z" fill="#2C163A"/>
<path d="M44.5601 303.959H41.1934C40.8963 303.959 40.6982 303.781 40.6982 303.514C40.6982 303.248 40.8963 303.07 41.1934 303.07H44.5601C44.8572 303.07 45.0552 303.248 45.0552 303.514C45.0552 303.736 44.8572 303.959 44.5601 303.959Z" fill="#2C163A"/>
<path d="M154.624 293.605C154.475 293.605 154.327 293.561 154.228 293.427L121.847 258.901C119.025 255.879 113.975 255.301 110.41 257.612L78.2278 278.364C78.0297 278.497 77.6831 278.452 77.5346 278.275C77.3861 278.097 77.4356 277.786 77.6336 277.653L109.816 256.901C113.826 254.324 119.421 254.946 122.59 258.323L154.97 292.85C155.168 293.027 155.119 293.339 154.921 293.472C154.871 293.561 154.723 293.605 154.624 293.605Z" fill="#2C163A"/>
<path d="M125.313 181.093C125.165 181.093 124.966 181.004 124.867 180.871C123.432 178.694 123.481 175.805 124.966 173.672C126.155 171.939 128.086 170.828 129.819 169.806C130.066 169.673 130.363 169.718 130.512 169.94C130.66 170.162 130.611 170.429 130.363 170.562C128.729 171.495 126.897 172.606 125.808 174.161C124.521 176.027 124.471 178.56 125.709 180.427C125.858 180.649 125.759 180.915 125.511 181.049C125.462 181.093 125.363 181.093 125.313 181.093Z" fill="#2C163A"/>
<path d="M129.125 172.872C129.076 172.872 129.026 172.872 128.927 172.828C128.68 172.739 128.531 172.473 128.63 172.25C128.977 171.451 129.324 170.695 129.67 170.029C130.957 167.362 132.591 164.83 134.522 162.474C135.859 160.786 137.047 160.697 137.79 160.919C138.483 161.097 139.028 161.675 139.226 162.386C139.424 162.963 139.325 163.63 139.275 164.163C139.077 165.541 138.78 166.874 138.285 168.207C137.889 169.362 137.394 170.473 136.8 171.495C136.651 171.717 136.354 171.806 136.156 171.673C135.909 171.539 135.81 171.273 135.958 171.095C136.552 170.117 136.998 169.051 137.394 167.94C137.839 166.696 138.186 165.363 138.335 164.074C138.384 163.585 138.434 163.097 138.335 162.652C138.186 162.208 137.889 161.897 137.542 161.763C136.701 161.497 135.81 162.43 135.364 163.008C133.482 165.318 131.898 167.807 130.611 170.429C130.264 171.095 129.967 171.85 129.621 172.606C129.522 172.784 129.324 172.872 129.125 172.872Z" fill="#2C163A"/>
<path d="M138.533 176.161C138.384 176.161 138.285 176.116 138.186 176.027C137.988 175.85 137.988 175.583 138.186 175.405C138.978 174.694 139.473 173.761 139.672 172.739C139.721 172.428 139.721 172.117 139.721 171.806C139.622 170.517 138.879 169.229 137.741 168.429C137.543 168.296 137.493 167.985 137.642 167.807C137.79 167.629 138.137 167.585 138.335 167.718C139.721 168.695 140.563 170.206 140.662 171.762C140.662 172.161 140.662 172.517 140.612 172.872C140.414 174.072 139.82 175.183 138.879 176.027C138.78 176.116 138.681 176.161 138.533 176.161Z" fill="#2C163A"/>
<path d="M137.146 184.781C137.047 184.781 136.998 184.781 136.899 184.737C136.651 184.604 136.552 184.337 136.701 184.159C137.097 183.493 137.592 182.693 138.137 181.893C138.632 181.093 139.176 180.293 139.523 179.671C140.117 178.649 140.761 177.494 140.959 176.25C141.157 175.006 140.711 173.85 139.82 173.228L139.771 173.184C139.573 173.006 139.573 172.739 139.771 172.562C139.969 172.384 140.266 172.384 140.464 172.562C141.603 173.361 142.197 174.828 141.949 176.383C141.751 177.761 141.058 179.005 140.414 180.116C140.018 180.782 139.523 181.582 138.978 182.382C138.483 183.182 137.939 183.982 137.592 184.604C137.543 184.693 137.345 184.781 137.146 184.781Z" fill="#2C163A"/>
<path d="M320.339 141.812L321.131 159.631L328.26 150.388L320.339 141.812ZM294.939 114.75C297.464 116.35 301.821 118.083 304.742 117.816C307.812 117.55 310.733 116.217 312.813 114.173H312.862C312.813 114.084 312.763 113.995 312.714 113.95L322.121 117.372C326.28 118.883 329.795 121.593 332.023 125.104L344.352 144.122C347.124 148.433 346.679 153.809 343.213 157.72L321.923 177.272H321.873L321.923 178.738H282.71V153.276L282.462 153.143L279.492 157.853C277.709 160.653 274.392 162.386 270.778 162.386H231.317V161.541V151.232V149.01H263.004L274.541 126.792C276.67 122.66 280.531 119.461 285.285 117.816L294.741 114.573C294.741 114.617 294.84 114.661 294.939 114.75Z" fill="#B1B7A4"/>
<path d="M320.339 141.812L328.26 150.388L321.131 159.631L320.339 141.812Z" fill="white"/>
<path d="M311.922 87.1111C313.357 89.8662 312.912 93.0656 312.417 96.0872C312.169 97.6425 311.922 99.2422 311.179 100.664C310.931 101.108 310.684 101.508 310.387 101.864C309 103.508 306.822 104.352 304.495 103.597C302.267 102.886 301.079 101.686 302.168 99.8198C302.96 98.4867 304.643 97.287 303.009 95.7762C301.92 94.7541 300.286 95.3762 299.148 94.5319C298.256 93.9098 298.256 92.6656 297.613 91.8658C296.821 90.8882 295.286 90.666 293.899 90.7993C292.563 90.9326 291.226 91.3326 289.889 91.1992C288.998 91.1104 288.156 90.7993 287.413 90.355C286.027 89.4662 285.086 87.9554 284.938 86.4002C284.74 84.0451 286.275 81.7344 288.453 80.4013C290.632 79.0682 293.404 78.6683 296.028 78.8905C298.652 79.1127 301.178 79.957 303.554 80.8901C307.02 82.3121 310.387 84.1339 311.922 87.1111Z" fill="#2C163A"/>
<path d="M301.821 312.535H297.167V316.978H301.821V312.535Z" fill="#FDFDFD"/>
<path d="M301.821 307.38V312.535H297.167L299.098 309.735C299.791 308.713 300.732 307.913 301.821 307.38Z" fill="#FBFFFD"/>
<path d="M301.821 302.936V307.38C300.732 307.913 299.791 308.713 299.148 309.691L297.217 312.49H261.668L263.599 309.691C264.886 307.78 267.163 306.58 269.639 306.447L273.699 306.225C276.175 306.091 278.502 305.203 280.334 303.647L282.562 301.737C282.908 301.47 283.354 301.292 283.799 301.292H284.245C284.839 301.292 285.433 301.559 285.73 302.048L287.364 304.403C287.958 305.292 289.047 305.78 290.186 305.78H293.85C294.939 305.78 295.93 305.336 296.573 304.536L298.653 301.959C298.851 301.692 299.148 301.515 299.445 301.426C299.643 301.337 299.89 301.337 300.089 301.337C301.029 301.337 301.821 302.048 301.821 302.936Z" fill="#FBFFFD"/>
<path d="M297.167 312.535H261.618V316.978H297.167V312.535Z" fill="#FDFDFD"/>
<path d="M337.371 312.979H301.821C301.524 312.979 301.326 312.801 301.326 312.535C301.326 312.268 301.524 312.09 301.821 312.09H336.876V302.936C336.876 302.314 336.281 301.781 335.588 301.781C335.44 301.781 335.291 301.826 335.143 301.87C334.895 301.959 334.697 302.092 334.549 302.27L332.469 304.847C331.726 305.736 330.588 306.269 329.35 306.269H325.686C324.349 306.269 323.161 305.692 322.468 304.67L320.834 302.314C320.586 302.003 320.19 301.781 319.745 301.781H319.299C318.952 301.781 318.655 301.914 318.408 302.092L316.13 304.003C314.249 305.603 311.773 306.58 309.199 306.714L305.139 306.936C304.05 306.98 302.96 307.291 302.02 307.78C301.772 307.913 301.475 307.824 301.326 307.602C301.178 307.38 301.277 307.113 301.524 306.98C302.614 306.403 303.851 306.091 305.089 306.047L309.149 305.825C311.526 305.692 313.754 304.847 315.437 303.381L317.715 301.47C318.111 301.115 318.705 300.892 319.249 300.892H319.695C320.487 300.892 321.18 301.248 321.626 301.826L323.26 304.181C323.805 304.936 324.696 305.38 325.686 305.38H329.35C330.241 305.38 331.132 304.981 331.627 304.314L333.707 301.737C333.954 301.426 334.301 301.159 334.697 301.026C334.945 300.937 335.242 300.892 335.539 300.892C336.777 300.892 337.816 301.781 337.816 302.936V312.535C337.866 312.757 337.618 312.979 337.371 312.979Z" fill="#2C163A"/>
<path d="M337.37 317.378H301.821C301.524 317.378 301.326 317.2 301.326 316.934C301.326 316.667 301.524 316.489 301.821 316.489H336.875V312.49C336.875 312.224 337.073 312.046 337.37 312.046C337.668 312.046 337.866 312.224 337.866 312.49V316.934C337.866 317.2 337.618 317.378 337.37 317.378Z" fill="#2C163A"/>
<path d="M319.744 301.781C319.447 301.781 319.249 301.603 319.249 301.337V298.76C319.249 298.493 319.447 298.315 319.744 298.315C320.041 298.315 320.239 298.493 320.239 298.76V301.337C320.239 301.559 319.992 301.781 319.744 301.781Z" fill="#2C163A"/>
<path d="M334.895 301.781C334.598 301.781 334.4 301.603 334.4 301.337V298.715C334.4 298.448 334.598 298.271 334.895 298.271C335.192 298.271 335.39 298.448 335.39 298.715V301.337C335.39 301.559 335.143 301.781 334.895 301.781Z" fill="#2C163A"/>
<path d="M301.821 317.378H261.618C261.321 317.378 261.123 317.2 261.123 316.934V312.49C261.123 312.224 261.321 312.046 261.618 312.046C261.915 312.046 262.113 312.224 262.113 312.49V316.489H301.326V312.49C301.326 312.224 301.524 312.046 301.821 312.046C302.118 312.046 302.316 312.224 302.316 312.49V316.934C302.316 317.2 302.069 317.378 301.821 317.378Z" fill="#2C163A"/>
<path d="M301.821 312.979H261.618C261.42 312.979 261.271 312.89 261.172 312.757C261.073 312.624 261.073 312.446 261.172 312.313L263.103 309.513C264.49 307.514 266.916 306.225 269.54 306.092L273.6 305.869C275.976 305.736 278.204 304.892 279.888 303.425L282.116 301.515C282.561 301.159 283.106 300.937 283.7 300.937H284.146C284.938 300.937 285.631 301.293 286.077 301.87L287.71 304.225C288.255 304.981 289.146 305.425 290.137 305.425H293.8C294.692 305.425 295.583 305.025 296.078 304.359L298.207 301.781C298.454 301.47 298.801 301.204 299.197 301.07C299.445 300.981 299.742 300.937 300.039 300.937C301.277 300.937 302.316 301.826 302.316 302.981V312.579C302.316 312.757 302.069 312.979 301.821 312.979ZM262.46 312.09H301.277V302.937C301.277 302.315 300.682 301.781 299.989 301.781C299.841 301.781 299.692 301.826 299.544 301.87C299.296 301.959 299.148 302.092 298.999 302.27L296.87 304.847C296.127 305.736 294.989 306.269 293.751 306.269H290.137C288.8 306.269 287.611 305.692 286.918 304.67L285.284 302.315C285.037 302.003 284.641 301.781 284.195 301.781H283.75C283.403 301.781 283.106 301.915 282.858 302.092L280.63 304.003C278.749 305.603 276.273 306.58 273.699 306.714L269.639 306.936C267.312 307.069 265.183 308.18 263.995 309.958L262.46 312.09Z" fill="#2C163A"/>
<path d="M284.195 301.781C284.146 301.781 284.146 301.781 284.096 301.781C283.849 301.737 283.651 301.515 283.7 301.248L284.195 298.671C284.245 298.449 284.492 298.271 284.79 298.315C285.037 298.36 285.235 298.582 285.186 298.848L284.69 301.426C284.641 301.648 284.393 301.781 284.195 301.781Z" fill="#2C163A"/>
<path d="M299.346 301.781C299.296 301.781 299.296 301.781 299.247 301.781C298.999 301.737 298.801 301.515 298.851 301.248L299.395 298.671C299.445 298.449 299.692 298.271 299.989 298.315C300.237 298.36 300.435 298.582 300.386 298.848L299.841 301.426C299.742 301.648 299.544 301.781 299.346 301.781Z" fill="#2C163A"/>
<path d="M336.727 299.159H316.625C316.378 299.159 316.18 298.982 316.13 298.76L306.574 234.638L303.307 298.715C303.307 298.937 303.059 299.159 302.811 299.159H281.67C281.522 299.159 281.423 299.115 281.324 299.026C281.225 298.937 281.175 298.848 281.175 298.715L282.165 178.649C282.165 178.427 282.413 178.205 282.66 178.205H321.923C322.17 178.205 322.368 178.383 322.418 178.605L337.172 298.671C337.172 298.804 337.123 298.937 337.073 299.026C336.974 299.115 336.826 299.159 336.727 299.159ZM317.071 298.271H336.182L321.527 179.094H283.205L282.215 298.271H302.366L306.475 218.064C306.574 215.709 307.317 213.398 308.555 211.31L315.932 199.045C316.081 198.823 316.378 198.734 316.625 198.868C316.873 199.001 316.972 199.267 316.823 199.49L309.446 211.754C308.258 213.709 307.614 215.887 307.466 218.108L306.871 229.662L317.071 298.271Z" fill="#2C163A"/>
<path d="M282.71 179.093C282.413 179.093 282.215 178.916 282.215 178.649V153.187C282.215 152.921 282.413 152.743 282.71 152.743C283.007 152.743 283.205 152.921 283.205 153.187V178.649C283.205 178.916 282.958 179.093 282.71 179.093Z" fill="#2C163A"/>
<path d="M321.972 179.093C321.725 179.093 321.477 178.916 321.477 178.649L319.398 132.525C319.398 132.258 319.596 132.08 319.893 132.08C320.19 132.036 320.388 132.258 320.388 132.525L322.467 178.649C322.467 178.871 322.269 179.093 321.972 179.093Z" fill="#2C163A"/>
<path d="M270.778 162.741H231.317C231.02 162.741 230.822 162.563 230.822 162.297V148.966C230.822 148.699 231.02 148.522 231.317 148.522H265.975C266.272 148.522 266.47 148.699 266.47 148.966C266.47 149.233 266.272 149.41 265.975 149.41H231.812V161.852H270.778C274.194 161.852 277.363 160.208 279.046 157.542L288.602 142.567C288.751 142.345 289.048 142.301 289.295 142.389C289.543 142.523 289.592 142.789 289.493 143.012L279.938 157.986C278.007 160.919 274.541 162.741 270.778 162.741Z" fill="#2C163A"/>
<path d="M262.955 149.41C262.905 149.41 262.806 149.41 262.757 149.366C262.509 149.277 262.41 149.01 262.509 148.788L274.046 126.57C276.274 122.304 280.135 119.061 285.037 117.372L294.494 114.128C294.741 114.039 295.038 114.173 295.137 114.395C295.236 114.617 295.088 114.884 294.84 114.972L285.384 118.216C280.73 119.816 277.016 122.926 274.937 126.97L263.401 149.188C263.351 149.321 263.153 149.41 262.955 149.41Z" fill="#2C163A"/>
<path d="M321.973 177.627C321.824 177.627 321.725 177.583 321.626 177.494C321.428 177.316 321.428 177.049 321.626 176.872L342.916 157.32C346.184 153.632 346.629 148.388 343.956 144.256L331.627 125.282C329.449 121.904 325.983 119.238 321.923 117.727L312.516 114.306C312.268 114.217 312.12 113.95 312.268 113.728C312.368 113.506 312.665 113.373 312.912 113.506L322.319 116.928C326.577 118.483 330.192 121.282 332.469 124.837L344.797 143.856C347.669 148.299 347.223 153.943 343.609 157.942L322.319 177.494C322.22 177.583 322.072 177.627 321.973 177.627Z" fill="#2C163A"/>
<path d="M320.933 160.297C320.834 160.297 320.735 160.253 320.636 160.208C320.388 160.075 320.339 159.808 320.487 159.586L320.685 159.364L327.617 150.388L319.695 141.812C319.497 141.634 319.546 141.323 319.744 141.19C319.942 141.012 320.289 141.056 320.438 141.234L320.685 141.501L328.607 150.077C328.756 150.21 328.755 150.432 328.656 150.61L321.329 160.119C321.23 160.253 321.081 160.297 320.933 160.297Z" fill="#2C163A"/>
<path d="M297.514 192.424C294.543 192.38 291.572 191.358 289.394 189.58C287.166 187.847 285.681 185.315 285.235 182.693C285.185 182.471 285.383 182.204 285.631 182.204C285.928 182.16 286.176 182.337 286.176 182.56C286.572 184.959 287.958 187.27 289.988 188.914C292.018 190.514 294.741 191.491 297.464 191.536C297.761 191.536 297.959 191.758 297.959 191.98C298.009 192.202 297.811 192.424 297.514 192.424Z" fill="#2C163A"/>
<path d="M290.434 291.827C290.137 291.827 289.938 291.605 289.938 291.383L294.147 209.621C294.147 209.354 294.394 209.177 294.642 209.177C294.939 209.177 295.137 209.399 295.137 209.621L290.929 291.383C290.929 291.65 290.731 291.827 290.434 291.827Z" fill="#2C163A"/>
<path d="M304.148 118.261C301.178 118.261 297.217 116.75 294.692 115.106C294.593 115.061 294.494 114.973 294.395 114.884C294.197 114.75 294.147 114.439 294.296 114.262C294.444 114.084 294.791 114.039 294.989 114.173C295.088 114.217 295.187 114.306 295.286 114.35C297.86 115.995 302.019 117.594 304.792 117.328C307.763 117.061 310.585 115.772 312.565 113.817C312.763 113.639 313.06 113.639 313.258 113.773C313.456 113.951 313.456 114.217 313.308 114.395C311.179 116.528 308.109 117.905 304.891 118.216C304.594 118.261 304.346 118.261 304.148 118.261Z" fill="#2C163A"/>
<path d="M294.791 115.239C294.593 115.239 294.395 115.15 294.345 114.972C294.246 114.75 294.345 114.484 294.593 114.395C294.642 114.395 294.692 114.35 294.692 114.35C296.375 113.595 297.365 111.195 297.365 109.373C297.365 109.107 297.563 108.929 297.86 108.929C298.108 108.929 298.355 109.107 298.355 109.373C298.405 111.506 297.217 114.217 295.137 115.15C295.088 115.195 294.989 115.195 294.939 115.239C294.939 115.239 294.84 115.239 294.791 115.239Z" fill="#2C163A"/>
<path d="M312.862 114.573C312.714 114.573 312.565 114.528 312.466 114.395C312.466 114.395 312.466 114.35 312.417 114.35L312.367 114.306C312.318 114.262 312.318 114.217 312.268 114.173C312.268 114.173 312.268 114.128 312.219 114.128C309.892 110.529 309.099 106.53 309.842 101.864C309.892 101.642 310.139 101.464 310.387 101.464C310.634 101.508 310.832 101.731 310.832 101.953C310.139 106.396 310.882 110.218 313.06 113.595L313.11 113.639C313.159 113.684 313.159 113.773 313.209 113.817L313.258 113.862C313.407 114.084 313.357 114.35 313.11 114.484C313.06 114.573 312.961 114.573 312.862 114.573Z" fill="#2C163A"/>
<path d="M306.178 104.352C305.584 104.352 304.94 104.263 304.346 104.086C302.811 103.597 301.821 102.93 301.425 102.042C301.128 101.331 301.227 100.531 301.722 99.6865C301.92 99.3755 302.118 99.1088 302.366 98.7978C303.208 97.6869 303.604 97.0648 302.663 96.1316C302.217 95.7317 301.623 95.6428 300.93 95.5984C300.237 95.5095 299.494 95.4651 298.851 94.9763C298.256 94.5319 298.009 93.8654 297.761 93.2877C297.613 92.8878 297.464 92.5323 297.217 92.2213C296.375 91.2437 294.692 91.2881 293.998 91.3326C293.553 91.377 293.107 91.4659 292.662 91.5103C291.77 91.6436 290.83 91.8213 289.889 91.7325C288.948 91.6436 288.008 91.3326 287.166 90.7993C285.631 89.8217 284.641 88.1776 284.492 86.5335C284.294 84.1339 285.78 81.6455 288.255 80.1347C290.384 78.846 293.157 78.3128 296.177 78.5794C299.098 78.8461 301.821 79.8236 303.901 80.6235C306.723 81.7344 310.684 83.6451 312.417 86.9778C313.951 89.955 313.407 93.421 312.961 96.1761C312.714 97.6869 312.466 99.3755 311.674 100.886C311.426 101.375 311.129 101.819 310.783 102.175C309.594 103.552 307.911 104.352 306.178 104.352ZM294.692 90.3994C296.177 90.3994 297.365 90.8438 298.058 91.688C298.405 92.088 298.553 92.5323 298.702 92.9767C298.9 93.5099 299.098 93.9543 299.445 94.2653C299.89 94.5764 300.385 94.6208 301.029 94.7097C301.772 94.7986 302.663 94.8874 303.356 95.5095C304.891 96.9759 303.95 98.2646 303.158 99.2866C302.96 99.5532 302.762 99.8198 302.613 100.086C302.267 100.709 302.168 101.242 302.366 101.686C302.613 102.308 303.406 102.841 304.693 103.241C306.673 103.863 308.654 103.286 310.04 101.642C310.337 101.286 310.585 100.931 310.783 100.531C311.476 99.1533 311.723 97.598 311.971 96.0872C312.367 93.421 312.912 90.0883 311.525 87.3778C309.991 84.3561 306.426 82.6231 303.505 81.4678C301.524 80.6679 298.9 79.7348 296.127 79.5126C293.355 79.2904 290.78 79.7792 288.899 80.9345C286.72 82.2232 285.433 84.445 285.581 86.5335C285.681 87.911 286.572 89.3329 287.809 90.1328C288.503 90.5771 289.245 90.8438 290.038 90.8882C290.879 90.9326 291.671 90.7993 292.563 90.666C293.008 90.5771 293.503 90.5327 293.998 90.4883C294.196 90.3994 294.444 90.3994 294.692 90.3994Z" fill="#2C163A"/>
<path d="M297.365 109.773C296.92 109.773 296.474 109.729 296.078 109.64C294.939 109.373 293.751 108.707 292.662 107.774C290.434 105.819 288.8 103.019 287.958 99.642C287.216 96.6648 287.067 93.5987 286.918 90.6215C286.918 90.3548 287.117 90.1771 287.414 90.1771C287.711 90.1327 287.909 90.3548 287.909 90.577C288.008 93.5098 288.156 96.5759 288.899 99.4642C289.741 102.664 291.275 105.33 293.355 107.152C294.345 107.996 295.335 108.574 296.326 108.796C296.821 108.929 297.316 108.929 297.811 108.885C298.455 108.84 299.049 108.618 299.494 108.263C299.692 108.085 300.039 108.129 300.187 108.307C300.386 108.485 300.336 108.796 300.138 108.929C299.544 109.373 298.801 109.64 297.959 109.729C297.761 109.773 297.563 109.773 297.365 109.773Z" fill="#2C163A"/>
<path d="M231.07 151.632C230.97 151.632 230.822 151.588 230.723 151.499L225.722 147.5C224.98 146.922 224.088 146.566 223.049 146.566C221.217 146.522 220.375 147.055 219.137 147.944C218.84 148.122 218.543 148.344 218.246 148.566C217.999 148.699 217.701 148.655 217.553 148.477C217.404 148.255 217.454 147.988 217.652 147.855C217.949 147.633 218.246 147.455 218.543 147.277C219.781 146.433 220.87 145.678 223.098 145.722C224.336 145.767 225.475 146.166 226.366 146.877L231.367 150.877C231.565 151.054 231.565 151.321 231.416 151.499C231.317 151.588 231.218 151.632 231.07 151.632Z" fill="#2C163A"/>
<path d="M218.989 154.032C218.939 154.032 218.89 154.032 218.84 153.987C217.058 153.454 214.681 152.432 212.602 151.41C211.315 150.743 209.483 149.766 208.245 148.788C206.908 147.722 206.908 146.877 207.156 146.344C207.403 145.811 207.997 145.411 208.69 145.322C209.235 145.233 209.829 145.322 210.374 145.411C213.047 145.944 215.721 146.7 218.246 147.766C219.484 148.299 220.722 148.877 221.91 149.499C222.158 149.632 222.207 149.899 222.059 150.121C221.91 150.343 221.613 150.388 221.365 150.255C220.227 149.633 219.038 149.055 217.801 148.566C215.325 147.544 212.75 146.789 210.176 146.255C209.73 146.166 209.285 146.078 208.839 146.166C208.443 146.211 208.146 146.389 208.047 146.655C207.849 147.144 208.492 147.766 208.889 148.122C209.829 148.877 211.265 149.721 213.047 150.655C215.077 151.677 217.454 152.654 219.137 153.187C219.385 153.276 219.533 153.543 219.434 153.765C219.385 153.898 219.187 154.032 218.989 154.032Z" fill="#2C163A"/>
<path d="M220.623 157.853C220.573 157.853 220.573 157.853 220.524 157.853C219.979 157.764 219.385 157.675 218.791 157.586C217.949 157.453 217.058 157.32 216.216 157.142C215.226 156.92 214.483 156.609 213.939 156.209C212.998 155.542 211.81 154.254 211.711 152.832C211.661 152.076 211.909 151.454 212.404 150.921C212.602 150.743 212.899 150.743 213.097 150.877C213.295 151.054 213.295 151.321 213.147 151.499C212.8 151.81 212.652 152.254 212.701 152.743C212.8 153.632 213.543 154.787 214.582 155.498C215.028 155.809 215.672 156.076 216.513 156.298C217.256 156.476 218.147 156.609 218.939 156.698C219.534 156.787 220.128 156.875 220.722 156.964C220.969 157.009 221.167 157.231 221.118 157.498C221.068 157.72 220.87 157.853 220.623 157.853Z" fill="#2C163A"/>
<path d="M228.198 161.986C226.119 161.986 224.039 161.897 222.009 161.675C220.623 161.541 219.088 161.319 217.801 160.564C216.612 159.853 215.474 158.431 215.87 156.92C215.919 156.698 216.216 156.52 216.464 156.564C216.711 156.609 216.909 156.876 216.86 157.098C216.563 158.209 217.454 159.275 218.395 159.808C219.534 160.43 220.87 160.653 222.207 160.786C225.029 161.053 227.851 161.141 230.624 161.053C230.921 161.053 231.119 161.23 231.119 161.497C231.119 161.763 230.921 161.941 230.624 161.941C229.782 161.986 228.99 161.986 228.198 161.986Z" fill="#2C163A"/>
<path d="M231.119 316.045H199.333C199.035 316.045 198.837 315.867 198.837 315.601C198.837 315.334 199.035 315.156 199.333 315.156H231.119C239.041 315.156 245.527 309.38 245.527 302.226V252.057C245.527 251.791 245.725 251.613 246.022 251.613C246.319 251.613 246.517 251.791 246.517 252.057V302.226C246.517 309.869 239.585 316.045 231.119 316.045Z" fill="#2C163A"/>
<path d="M246.022 112.528C245.725 112.528 245.527 112.351 245.527 112.084V63.6045C245.527 56.4947 239.09 50.6736 231.119 50.6736H113.232C105.311 50.6736 98.8247 56.4503 98.8247 63.6045V75.8244C98.8247 76.091 98.6267 76.2687 98.3296 76.2687C98.0325 76.2687 97.8345 76.091 97.8345 75.8244V63.6045C97.8345 56.0059 104.717 49.7849 113.232 49.7849H231.119C239.585 49.7849 246.517 55.9615 246.517 63.6045V112.084C246.517 112.351 246.269 112.528 246.022 112.528Z" fill="#2C163A"/>
<path d="M98.3789 201.578C98.0818 201.578 97.8838 201.4 97.8838 201.134V112.84C97.8838 112.573 98.0818 112.395 98.3789 112.395C98.676 112.395 98.874 112.573 98.874 112.84V201.134C98.874 201.356 98.6265 201.578 98.3789 201.578Z" fill="#2C163A"/>
<path d="M231.119 298.715H181.014C180.717 298.715 180.519 298.537 180.519 298.271C180.519 298.004 180.717 297.826 181.014 297.826H231.119C233.842 297.826 236.12 295.827 236.12 293.338V252.057C236.12 251.791 236.318 251.613 236.615 251.613C236.912 251.613 237.11 251.791 237.11 252.057V293.338C237.11 296.316 234.436 298.715 231.119 298.715Z" fill="#2C163A"/>
<path d="M236.615 112.529C236.318 112.529 236.12 112.351 236.12 112.084V63.6045C236.12 61.1606 233.892 59.1165 231.119 59.1165H113.233C110.509 59.1165 108.232 61.1161 108.232 63.6045V75.8244C108.232 76.091 108.034 76.2688 107.737 76.2688C107.44 76.2688 107.242 76.091 107.242 75.8244V63.6045C107.242 60.6718 109.915 58.2278 113.233 58.2278H231.119C234.387 58.2278 237.11 60.6273 237.11 63.6045V112.084C237.11 112.351 236.862 112.529 236.615 112.529Z" fill="#2C163A"/>
<path d="M107.786 199.045C107.489 199.045 107.291 198.868 107.291 198.601V112.84C107.291 112.573 107.489 112.395 107.786 112.395C108.083 112.395 108.281 112.573 108.281 112.84V198.601C108.281 198.868 108.034 199.045 107.786 199.045Z" fill="#2C163A"/>
<path d="M135.265 105.863H69.7614C66.048 105.863 63.0278 103.153 63.0278 99.8199V86.1336C63.0278 82.8009 66.048 80.0903 69.7614 80.0903H135.265C138.978 80.0903 141.998 82.8009 141.998 86.1336V99.8199C141.998 103.153 138.978 105.863 135.265 105.863ZM69.7614 80.9791C66.5926 80.9791 64.0181 83.2897 64.0181 86.1336V99.8199C64.0181 102.664 66.5926 104.974 69.7614 104.974H135.265C138.434 104.974 141.008 102.664 141.008 99.8199V86.1336C141.008 83.2897 138.434 80.9791 135.265 80.9791H69.7614Z" fill="#2C163A"/>
<path d="M246.368 175.894H170.616C164.873 175.894 160.219 171.717 160.219 166.563V126.703C160.219 121.549 164.873 117.372 170.616 117.372H246.368C252.112 117.372 256.766 121.549 256.766 126.703V144.522C256.766 144.789 256.568 144.967 256.271 144.967C255.974 144.967 255.776 144.789 255.776 144.522V126.703C255.776 122.038 251.567 118.261 246.368 118.261H170.616C165.417 118.261 161.209 122.038 161.209 126.703V166.563C161.209 171.228 165.417 175.005 170.616 175.005H246.368C251.567 175.005 255.776 171.228 255.776 166.563C255.776 166.296 255.974 166.118 256.271 166.118C256.568 166.118 256.766 166.296 256.766 166.563C256.766 171.673 252.112 175.894 246.368 175.894Z" fill="#2C163A"/>
<path d="M246.369 239.127H160.565C154.822 239.127 150.168 234.95 150.168 229.795V196.157C150.168 191.002 154.822 186.825 160.565 186.825H246.369C252.112 186.825 256.766 191.002 256.766 196.157V229.795C256.766 234.95 252.112 239.127 246.369 239.127ZM160.565 187.759C155.367 187.759 151.158 191.536 151.158 196.201V229.839C151.158 234.505 155.367 238.282 160.565 238.282H246.369C251.567 238.282 255.776 234.505 255.776 229.839V196.201C255.776 191.536 251.567 187.759 246.369 187.759H160.565Z" fill="#2C163A"/>
<path d="M179.231 140.835C175.666 140.835 172.794 138.257 172.794 135.058C172.794 131.859 175.666 129.281 179.231 129.281C182.796 129.281 185.667 131.859 185.667 135.058C185.667 138.257 182.746 140.835 179.231 140.835ZM179.231 130.17C176.211 130.17 173.785 132.347 173.785 135.058C173.785 137.769 176.211 139.946 179.231 139.946C182.251 139.946 184.677 137.769 184.677 135.058C184.677 132.347 182.202 130.17 179.231 130.17Z" fill="#2C163A"/>
<path d="M179.33 136.746C179.181 136.746 179.082 136.702 178.983 136.613L176.607 134.48C176.409 134.302 176.409 134.036 176.607 133.858C176.805 133.68 177.102 133.68 177.3 133.858L179.28 135.635L186.41 129.236C186.608 129.059 186.905 129.059 187.103 129.236C187.301 129.414 187.301 129.681 187.103 129.859L179.627 136.568C179.577 136.702 179.478 136.746 179.33 136.746Z" fill="#2C163A"/>
<path d="M242.061 133.547H194.382C194.085 133.547 193.886 133.369 193.886 133.102C193.886 132.836 194.085 132.658 194.382 132.658H242.061C242.358 132.658 242.556 132.836 242.556 133.102C242.556 133.369 242.309 133.547 242.061 133.547Z" fill="#2C163A"/>
<path d="M242.061 137.99H194.382C194.085 137.99 193.886 137.813 193.886 137.546C193.886 137.279 194.085 137.102 194.382 137.102H242.061C242.358 137.102 242.556 137.279 242.556 137.546C242.556 137.813 242.309 137.99 242.061 137.99Z" fill="#2C163A"/>
<path d="M179.231 160.386C175.666 160.386 172.794 157.809 172.794 154.61C172.794 151.41 175.666 148.833 179.231 148.833C182.796 148.833 185.667 151.41 185.667 154.61C185.667 157.809 182.746 160.386 179.231 160.386ZM179.231 149.722C176.211 149.722 173.785 151.899 173.785 154.61C173.785 157.32 176.211 159.498 179.231 159.498C182.251 159.498 184.677 157.32 184.677 154.61C184.677 151.899 182.202 149.722 179.231 149.722Z" fill="#2C163A"/>
<path d="M179.33 156.298C179.181 156.298 179.082 156.253 178.983 156.165L176.607 154.032C176.409 153.854 176.409 153.587 176.607 153.41C176.805 153.232 177.102 153.232 177.3 153.41L179.28 155.187L186.41 148.788C186.608 148.61 186.905 148.61 187.103 148.788C187.301 148.966 187.301 149.233 187.103 149.41L179.627 156.12C179.577 156.253 179.478 156.298 179.33 156.298Z" fill="#2C163A"/>
<path d="M207.502 153.098H194.382C194.085 153.098 193.886 152.921 193.886 152.654C193.886 152.387 194.085 152.21 194.382 152.21H207.502C207.799 152.21 207.997 152.387 207.997 152.654C207.997 152.921 207.75 153.098 207.502 153.098Z" fill="#2C163A"/>
<path d="M209.73 157.542H194.382C194.085 157.542 193.886 157.364 193.886 157.098C193.886 156.831 194.085 156.653 194.382 156.653H209.73C210.027 156.653 210.225 156.831 210.225 157.098C210.225 157.364 210.027 157.542 209.73 157.542Z" fill="#2C163A"/>
<path d="M124.323 88.9775H80.0103C79.7132 88.9775 79.5151 88.7997 79.5151 88.5331C79.5151 88.2665 79.7132 88.0887 80.0103 88.0887H124.323C124.62 88.0887 124.818 88.2665 124.818 88.5331C124.818 88.7997 124.62 88.9775 124.323 88.9775Z" fill="#2C163A"/>
<path d="M124.323 93.4209H91.5464C91.2493 93.4209 91.0513 93.2432 91.0513 92.9766C91.0513 92.71 91.2493 92.5322 91.5464 92.5322H124.323C124.62 92.5322 124.818 92.71 124.818 92.9766C124.818 93.2432 124.62 93.4209 124.323 93.4209Z" fill="#2C163A"/>
<path d="M86.9418 93.4209H80.0103C79.7132 93.4209 79.5151 93.2432 79.5151 92.9766C79.5151 92.71 79.7132 92.5322 80.0103 92.5322H86.9418C87.2389 92.5322 87.437 92.71 87.437 92.9766C87.437 93.2432 87.2389 93.4209 86.9418 93.4209Z" fill="#2C163A"/>
<path d="M124.323 97.8647H80.0103C79.7132 97.8647 79.5151 97.6869 79.5151 97.4203C79.5151 97.1537 79.7132 96.976 80.0103 96.976H124.323C124.62 96.976 124.818 97.1537 124.818 97.4203C124.818 97.6869 124.62 97.8647 124.323 97.8647Z" fill="#2C163A"/>
<path d="M160.12 227.573C159.922 227.573 159.773 227.573 159.575 227.529C159.327 227.484 159.129 227.262 159.129 227.04C159.179 226.818 159.426 226.64 159.674 226.64C161.159 226.773 162.744 226.151 164.031 224.907C165.219 223.752 165.962 222.285 166.705 220.863L174.23 206.288C175.023 204.778 175.864 203.089 177.251 201.8C178.835 200.334 180.964 199.623 182.796 199.934C184.776 200.29 186.311 201.711 187.4 202.733L196.907 211.71C198.639 213.354 200.422 214.998 202.65 216.02C204.531 216.864 207.353 217.308 209.482 216.02C209.829 215.798 210.126 215.575 210.473 215.309C210.968 214.953 211.463 214.553 212.057 214.287C213.79 213.487 216.117 213.754 218.444 214.998C219.187 215.398 219.88 215.842 220.523 216.286C221.563 216.953 222.504 217.575 223.643 218.019C228.396 219.93 233.792 217.62 236.813 214.642C240.229 211.31 241.962 206.688 243.497 202.645C243.596 202.422 243.843 202.289 244.14 202.378C244.388 202.467 244.536 202.689 244.437 202.956C242.853 207.088 241.12 211.754 237.555 215.264C234.288 218.464 228.445 220.908 223.247 218.864C222.058 218.375 221.019 217.708 219.979 217.042C219.335 216.598 218.642 216.198 217.949 215.798C217.008 215.264 214.533 214.198 212.503 215.131C212.008 215.353 211.562 215.664 211.116 216.02C210.77 216.286 210.423 216.553 210.027 216.775C207.502 218.286 204.333 217.753 202.204 216.82C199.778 215.753 197.897 213.931 196.164 212.332L186.658 203.4C185.321 202.156 184.133 201.089 182.598 200.823C180.766 200.512 178.983 201.445 177.944 202.422C176.656 203.622 175.864 205.177 175.122 206.644L167.596 221.219C166.853 222.685 166.061 224.24 164.774 225.485C163.437 226.862 161.704 227.573 160.12 227.573Z" fill="#2C163A"/>
<path d="M181.558 203C183.117 203 184.38 201.866 184.38 200.467C184.38 199.068 183.117 197.934 181.558 197.934C180 197.934 178.736 199.068 178.736 200.467C178.736 201.866 180 203 181.558 203Z" fill="#B1B7A4"/>
<path d="M181.558 203.4C179.726 203.4 178.241 202.067 178.241 200.423C178.241 198.779 179.726 197.446 181.558 197.446C183.39 197.446 184.875 198.779 184.875 200.423C184.875 202.111 183.39 203.4 181.558 203.4ZM181.558 198.379C180.271 198.379 179.231 199.312 179.231 200.467C179.231 201.623 180.271 202.556 181.558 202.556C182.845 202.556 183.885 201.623 183.885 200.467C183.885 199.312 182.845 198.379 181.558 198.379Z" fill="#2C163A"/>
<path d="M243.992 204.955C245.551 204.955 246.814 203.821 246.814 202.422C246.814 201.024 245.551 199.89 243.992 199.89C242.433 199.89 241.17 201.024 241.17 202.422C241.17 203.821 242.433 204.955 243.992 204.955Z" fill="white"/>
<path d="M243.992 205.355C242.16 205.355 240.675 204.022 240.675 202.378C240.675 200.734 242.16 199.401 243.992 199.401C245.824 199.401 247.26 200.734 247.26 202.378C247.26 204.067 245.774 205.355 243.992 205.355ZM243.992 200.334C242.705 200.334 241.665 201.267 241.665 202.422C241.665 203.578 242.705 204.511 243.992 204.511C245.279 204.511 246.27 203.578 246.27 202.422C246.27 201.267 245.23 200.334 243.992 200.334Z" fill="#2C163A"/>
<path d="M62.3349 26.0562C60.7505 26.0562 59.4632 24.9008 59.4632 23.4789C59.4632 22.0569 58.1759 20.9016 56.5916 20.9016H53.6209C52.0365 20.9016 50.7492 22.0569 50.7492 23.4789C50.7492 24.9008 49.4619 26.0562 47.8776 26.0562C46.2932 26.0562 45.0554 27.2115 45.0554 28.6335V31.2996C45.0554 32.7216 46.3427 33.8769 47.8776 33.8769C49.4619 33.8769 50.7492 35.0322 50.7492 36.4542C50.7492 37.8761 52.0365 39.0315 53.6209 39.0315H56.5916C58.1759 39.0315 59.4632 37.8761 59.4632 36.4542C59.4632 35.0322 60.7505 33.8769 62.3349 33.8769C63.9192 33.8769 65.2065 32.7216 65.2065 31.2996V28.6335C65.2065 27.2115 63.9192 26.0562 62.3349 26.0562Z" fill="#B1B7A4"/>
<path d="M46.2434 33.2548H43.2727C41.4408 33.2548 39.9059 31.9217 39.9059 30.2331C39.9059 29.0778 38.8662 28.1002 37.5294 28.1002C35.6975 28.1002 34.1626 26.7671 34.1626 25.0786V22.4124C34.1626 20.7683 35.6479 19.3908 37.5294 19.3908C38.8167 19.3908 39.9059 18.4576 39.9059 17.2579C39.9059 15.6137 41.3913 14.2362 43.2727 14.2362H46.2434C48.0753 14.2362 49.6101 15.5693 49.6101 17.2579C49.6101 18.4132 50.6499 19.3908 51.9867 19.3908C53.8186 19.3908 55.3535 20.7239 55.3535 22.4124V25.0786C55.3535 26.7227 53.8681 28.1002 51.9867 28.1002C50.6994 28.1002 49.6101 29.0334 49.6101 30.2331C49.6101 31.8773 48.0753 33.2548 46.2434 33.2548ZM43.2727 15.2582C41.9854 15.2582 40.8961 16.1914 40.8961 17.3912C40.8961 19.0353 39.4108 20.4128 37.5294 20.4128C36.2421 20.4128 35.1528 21.346 35.1528 22.5457V25.2119C35.1528 26.3672 36.1926 27.3448 37.5294 27.3448C39.3613 27.3448 40.8961 28.6779 40.8961 30.3665C40.8961 31.5218 41.9359 32.4994 43.2727 32.4994H46.2434C47.5307 32.4994 48.6199 31.5662 48.6199 30.3665C48.6199 28.7223 50.1052 27.3448 51.9867 27.3448C53.274 27.3448 54.3632 26.4117 54.3632 25.2119V22.5457C54.3632 21.3904 53.3235 20.4128 51.9867 20.4128C50.1548 20.4128 48.6199 19.0797 48.6199 17.3912C48.6199 16.2358 47.5802 15.2582 46.2434 15.2582H43.2727Z" fill="#2C163A"/>
<path d="M37.1334 149.366C36.4403 149.366 35.8957 148.877 35.8957 148.255C35.8957 147.633 35.351 147.144 34.6579 147.144H33.3706C32.6774 147.144 32.1328 147.633 32.1328 148.255C32.1328 148.877 31.5882 149.366 30.895 149.366C30.2019 149.366 29.6572 149.855 29.6572 150.477V151.632C29.6572 152.254 30.2019 152.743 30.895 152.743C31.5882 152.743 32.1328 153.232 32.1328 153.854C32.1328 154.476 32.6774 154.965 33.3706 154.965H34.6579C35.351 154.965 35.8957 154.476 35.8957 153.854C35.8957 153.232 36.4403 152.743 37.1334 152.743C37.8266 152.743 38.3712 152.254 38.3712 151.632V150.477C38.3712 149.899 37.8266 149.366 37.1334 149.366Z" fill="#B1B7A4"/>
<path d="M37.6286 159.097H36.3413C35.4006 159.097 34.6084 158.386 34.6084 157.542C34.6084 157.187 34.2618 156.876 33.8657 156.876C32.925 156.876 32.1328 156.165 32.1328 155.32V154.165C32.1328 153.321 32.925 152.61 33.8657 152.61C34.2618 152.61 34.6084 152.299 34.6084 151.943C34.6084 151.099 35.4006 150.388 36.3413 150.388H37.6286C38.5693 150.388 39.3615 151.099 39.3615 151.943C39.3615 152.299 39.708 152.61 40.1041 152.61C41.0449 152.61 41.837 153.321 41.837 154.165V155.32C41.837 156.165 41.0449 156.876 40.1041 156.876C39.708 156.876 39.3615 157.187 39.3615 157.542C39.411 158.386 38.6188 159.097 37.6286 159.097ZM36.3413 151.188C35.9452 151.188 35.5986 151.499 35.5986 151.854C35.5986 152.699 34.8064 153.41 33.8657 153.41C33.4696 153.41 33.123 153.721 33.123 154.076V155.231C33.123 155.587 33.4696 155.898 33.8657 155.898C34.8064 155.898 35.5986 156.609 35.5986 157.453C35.5986 157.809 35.9452 158.12 36.3413 158.12H37.6286C38.0247 158.12 38.3712 157.809 38.3712 157.453C38.3712 156.609 39.1634 155.898 40.1041 155.898C40.5002 155.898 40.8468 155.587 40.8468 155.231V154.076C40.8468 153.721 40.5002 153.41 40.1041 153.41C39.1634 153.41 38.3712 152.699 38.3712 151.854C38.3712 151.499 38.0247 151.188 37.6286 151.188H36.3413Z" fill="#2C163A"/>
<path d="M358.809 196.957C358.116 196.957 357.571 196.468 357.571 195.846C357.571 195.224 357.026 194.735 356.333 194.735H354.996C354.303 194.735 353.759 195.224 353.759 195.846C353.759 196.468 353.214 196.957 352.521 196.957C351.828 196.957 351.283 197.446 351.283 198.068V199.223C351.283 199.845 351.828 200.334 352.521 200.334C353.214 200.334 353.759 200.823 353.759 201.445C353.759 202.067 354.303 202.556 354.996 202.556H356.284C356.977 202.556 357.521 202.067 357.521 201.445C357.521 200.823 358.066 200.334 358.759 200.334C359.452 200.334 359.997 199.845 359.997 199.223V198.068C360.046 197.446 359.502 196.957 358.809 196.957Z" fill="#B1B7A4"/>
<path d="M350.491 202.111H349.204C348.263 202.111 347.471 201.4 347.471 200.556C347.471 200.201 347.124 199.89 346.728 199.89C345.787 199.89 344.995 199.179 344.995 198.334V197.179C344.995 196.335 345.787 195.624 346.728 195.624C347.124 195.624 347.471 195.313 347.471 194.957C347.471 194.113 348.263 193.402 349.204 193.402H350.491C351.432 193.402 352.224 194.113 352.224 194.957C352.224 195.313 352.57 195.624 352.966 195.624C353.907 195.624 354.699 196.335 354.699 197.179V198.334C354.699 199.179 353.907 199.89 352.966 199.89C352.57 199.89 352.224 200.201 352.224 200.556C352.224 201.4 351.432 202.111 350.491 202.111ZM349.154 194.202C348.758 194.202 348.411 194.513 348.411 194.868C348.411 195.713 347.619 196.424 346.679 196.424C346.282 196.424 345.936 196.735 345.936 197.09V198.246C345.936 198.601 346.282 198.912 346.679 198.912C347.619 198.912 348.411 199.623 348.411 200.467C348.411 200.823 348.758 201.134 349.154 201.134H350.441C350.837 201.134 351.184 200.823 351.184 200.467C351.184 199.623 351.976 198.912 352.917 198.912C353.313 198.912 353.66 198.601 353.66 198.246V197.09C353.66 196.735 353.313 196.424 352.917 196.424C351.976 196.424 351.184 195.713 351.184 194.868C351.184 194.513 350.837 194.202 350.441 194.202H349.154Z" fill="#2C163A"/>
<path d="M219.137 29.8776H217.256C216.018 29.8776 214.978 28.9444 214.978 27.8335C214.978 27.2114 214.384 26.6782 213.691 26.6782C212.453 26.6782 211.413 25.7451 211.413 24.6342V22.9456C211.413 21.8347 212.453 20.9015 213.691 20.9015C214.384 20.9015 214.978 20.3683 214.978 19.7462C214.978 18.6353 216.018 17.7021 217.256 17.7021H219.137C220.375 17.7021 221.415 18.6353 221.415 19.7462C221.415 20.3683 222.009 20.9015 222.702 20.9015C223.94 20.9015 224.979 21.8347 224.979 22.9456V24.6342C224.979 25.7451 223.94 26.6782 222.702 26.6782C222.009 26.6782 221.415 27.2114 221.415 27.8335C221.415 28.9889 220.424 29.8776 219.137 29.8776ZM217.305 18.5909C216.612 18.5909 216.018 19.1241 216.018 19.7462C216.018 20.8571 214.978 21.7903 213.74 21.7903C213.047 21.7903 212.453 22.3235 212.453 22.9456V24.6342C212.453 25.2563 213.047 25.7895 213.74 25.7895C214.978 25.7895 216.018 26.7226 216.018 27.8335C216.018 28.4556 216.612 28.9889 217.305 28.9889H219.187C219.88 28.9889 220.474 28.4556 220.474 27.8335C220.474 26.7226 221.514 25.7895 222.751 25.7895C223.445 25.7895 224.039 25.2563 224.039 24.6342V22.9456C224.039 22.3235 223.445 21.7903 222.751 21.7903C221.514 21.7903 220.474 20.8571 220.474 19.7462C220.474 19.1241 219.88 18.5909 219.187 18.5909H217.305Z" fill="#2C163A"/>
<path d="M324.943 56.5837H323.656C322.715 56.5837 321.923 55.8727 321.923 55.0285C321.923 54.673 321.576 54.3619 321.18 54.3619C320.239 54.3619 319.447 53.6509 319.447 52.8067V51.6513C319.447 50.807 320.239 50.0961 321.18 50.0961C321.576 50.0961 321.923 49.785 321.923 49.4295C321.923 48.5852 322.715 47.8743 323.656 47.8743H324.943C325.884 47.8743 326.676 48.5852 326.676 49.4295C326.676 49.785 327.022 50.0961 327.419 50.0961C328.359 50.0961 329.151 50.807 329.151 51.6513V52.8067C329.151 53.6509 328.359 54.3619 327.419 54.3619C327.022 54.3619 326.676 54.673 326.676 55.0285C326.725 55.8727 325.933 56.5837 324.943 56.5837ZM323.656 48.6741C323.26 48.6741 322.913 48.9852 322.913 49.3407C322.913 50.1849 322.121 50.8959 321.18 50.8959C320.784 50.8959 320.437 51.207 320.437 51.5624V52.7178C320.437 53.0733 320.784 53.3843 321.18 53.3843C322.121 53.3843 322.913 54.0953 322.913 54.9396C322.913 55.2951 323.26 55.6061 323.656 55.6061H324.943C325.339 55.6061 325.686 55.2951 325.686 54.9396C325.686 54.0953 326.478 53.3843 327.419 53.3843C327.815 53.3843 328.161 53.0733 328.161 52.7178V51.5624C328.161 51.207 327.815 50.8959 327.419 50.8959C326.478 50.8959 325.686 50.1849 325.686 49.3407C325.686 48.9852 325.339 48.6741 324.943 48.6741H323.656Z" fill="#2C163A"/>
<path d="M35.648 199.712C35.5985 199.712 35.549 199.712 35.4995 199.712C33.4695 199.134 31.4396 198.379 29.5086 197.49C29.2611 197.357 29.162 197.09 29.3106 196.912C29.4591 196.69 29.7562 196.601 29.9542 196.735C31.8357 197.623 33.8161 198.334 35.7966 198.912C36.0441 199.001 36.1927 199.223 36.0936 199.49C36.0441 199.579 35.8461 199.712 35.648 199.712ZM25.0526 194.957C24.9536 194.957 24.8546 194.913 24.7555 194.868C22.9731 193.757 21.2897 192.513 19.7549 191.18C19.5568 191.002 19.5568 190.736 19.7549 190.558C19.9529 190.38 20.25 190.38 20.448 190.558C21.9829 191.891 23.6168 193.091 25.3497 194.202C25.5972 194.335 25.6467 194.602 25.4487 194.824C25.3497 194.913 25.2011 194.957 25.0526 194.957ZM16.3881 187.714C16.2396 187.714 16.091 187.67 15.992 187.536C14.6552 186.026 13.4174 184.381 12.3282 182.693C12.1796 182.471 12.2787 182.204 12.5262 182.071C12.7738 181.937 13.0709 182.026 13.2194 182.248C14.2591 183.893 15.4474 185.492 16.7842 186.959C16.9327 187.136 16.9327 187.448 16.6852 187.581C16.6357 187.67 16.5366 187.714 16.3881 187.714ZM10.4468 178.516C10.2487 178.516 10.0507 178.427 10.0012 178.249C9.80311 177.849 9.65457 177.405 9.45653 176.961C8.9119 175.539 8.4663 174.117 8.11972 172.65C8.07021 172.428 8.21874 172.162 8.51581 172.117C8.76337 172.073 9.06043 172.206 9.10995 172.473C9.45653 173.895 9.90213 175.316 10.3972 176.694C10.5458 177.094 10.7438 177.538 10.8924 177.938C10.9914 178.16 10.8924 178.427 10.5953 178.516C10.5953 178.516 10.4963 178.516 10.4468 178.516ZM7.82265 168.162C7.57509 168.162 7.32754 167.985 7.32754 167.762C7.27803 166.874 7.22852 165.94 7.22852 165.052C7.22852 164.03 7.27803 162.963 7.37705 161.897C7.37705 161.63 7.62461 161.452 7.92167 161.497C8.21874 161.497 8.41679 161.719 8.36728 161.986C8.26825 163.008 8.21874 164.03 8.21874 165.052C8.21874 165.94 8.26825 166.829 8.31776 167.674C8.36728 167.94 8.16923 168.118 7.82265 168.162C7.87216 168.162 7.87216 168.162 7.82265 168.162ZM8.66434 157.542C8.61483 157.542 8.61483 157.542 8.56532 157.542C8.31776 157.498 8.11972 157.231 8.16923 157.009C8.61483 155.098 9.25848 153.232 10.0507 151.41C10.1497 151.188 10.4468 151.054 10.6943 151.143C10.9419 151.232 11.0904 151.499 10.9914 151.721C10.2487 153.498 9.60506 155.32 9.15946 157.187C9.10995 157.409 8.9119 157.542 8.66434 157.542ZM12.8728 147.633C12.7738 147.633 12.7243 147.633 12.6253 147.588C12.3777 147.455 12.2787 147.189 12.4272 146.966C12.9223 146.166 13.4669 145.411 14.0116 144.656C14.6057 143.856 15.2494 143.012 16.0415 142.123C16.1901 141.945 16.5366 141.901 16.7347 142.034C16.9327 142.167 16.9823 142.478 16.8337 142.656C16.091 143.545 15.4474 144.345 14.8533 145.144C14.3086 145.855 13.8135 146.655 13.3184 147.411C13.2194 147.544 13.0213 147.633 12.8728 147.633ZM19.8539 139.012C19.7549 139.012 19.6559 138.968 19.5568 138.923C19.3588 138.79 19.3093 138.479 19.5073 138.301C20.8441 136.835 22.2305 135.324 23.4682 133.769C23.6168 133.591 23.9633 133.547 24.1614 133.68C24.3594 133.813 24.409 134.124 24.2604 134.302C22.9731 135.857 21.5868 137.368 20.25 138.835C20.1015 138.923 19.9529 139.012 19.8539 139.012ZM26.7855 130.347C26.6865 130.347 26.637 130.347 26.5379 130.303C26.2904 130.17 26.1914 129.903 26.3399 129.681C27.4291 127.859 28.1223 126.126 28.5184 124.393C28.5679 124.171 28.8155 123.993 29.1125 124.037C29.3601 124.082 29.5581 124.304 29.5086 124.571C29.1125 126.393 28.3699 128.214 27.2311 130.081C27.1321 130.258 26.934 130.347 26.7855 130.347ZM29.2611 120.083C29.0135 120.083 28.8155 119.905 28.7659 119.683C28.5679 117.816 28.1223 115.95 27.6272 114.084C27.5777 113.862 27.7262 113.595 27.9738 113.551C28.2213 113.506 28.5184 113.639 28.5679 113.862C29.063 115.772 29.5086 117.683 29.7067 119.594C29.7562 119.86 29.5581 120.083 29.2611 120.083ZM26.9835 109.64C26.736 109.64 26.5379 109.507 26.4884 109.285C26.1418 107.374 25.9438 105.419 25.9438 103.464C25.9438 103.197 26.1418 103.019 26.4389 103.019C26.6865 103.019 26.934 103.197 26.934 103.464C26.934 105.374 27.1321 107.285 27.4787 109.151C27.5282 109.374 27.3301 109.64 27.0826 109.64C27.0331 109.64 26.9835 109.64 26.9835 109.64ZM26.736 99.02H26.6865C26.4389 98.9755 26.2409 98.7533 26.2409 98.5312C26.4884 96.6204 26.934 94.6652 27.4787 92.7989C27.5282 92.5767 27.8252 92.399 28.0728 92.4879C28.3203 92.5323 28.4689 92.7989 28.4194 93.0211C27.8747 94.843 27.4787 96.7537 27.2311 98.62C27.1816 98.8422 26.9835 99.02 26.736 99.02ZM29.7067 88.7108C29.6572 88.7108 29.5581 88.7108 29.5086 88.6664C29.2611 88.5775 29.1125 88.3109 29.2611 88.0887C30.1028 86.2669 31.0435 84.5338 32.1327 82.8453C32.2813 82.6231 32.5783 82.5787 32.8259 82.712C33.0734 82.8453 33.1229 83.1119 32.9744 83.3341C31.8852 84.9782 30.9445 86.6668 30.1523 88.4442C30.1028 88.622 29.9047 88.7108 29.7067 88.7108ZM35.648 79.5126C35.549 79.5126 35.45 79.4682 35.351 79.4237C35.1529 79.2904 35.1034 78.9794 35.2519 78.8016C35.6975 78.2684 36.1927 77.7796 36.6383 77.2908C37.579 76.3132 38.5692 75.38 39.6584 74.5358C39.8565 74.358 40.1536 74.358 40.3516 74.5802C40.5497 74.7579 40.5497 75.0246 40.3021 75.2023C39.2624 76.0466 38.2721 76.9797 37.3809 77.9129C36.8858 78.4017 36.4402 78.8905 35.9946 79.3793C35.9451 79.4681 35.7966 79.5126 35.648 79.5126ZM44.2135 72.1807C44.065 72.1807 43.9164 72.1362 43.8174 72.0029C43.6689 71.7807 43.7184 71.5141 43.9164 71.3808C45.6493 70.2699 47.5308 69.2479 49.4617 68.3592C49.7093 68.2703 50.0063 68.3147 50.1053 68.5369C50.2044 68.7591 50.1549 69.0257 49.9073 69.1146C48.0259 70.0033 46.1939 70.9809 44.461 72.0918C44.4115 72.1362 44.3125 72.1807 44.2135 72.1807ZM54.7099 67.2483C54.5118 67.2483 54.3138 67.115 54.2643 66.9372C54.1653 66.715 54.3138 66.4484 54.5614 66.3595C56.5913 65.693 58.7203 65.1598 60.7998 64.7599C61.0473 64.7154 61.3444 64.8487 61.3939 65.1153C61.4434 65.3375 61.2949 65.6041 60.9978 65.6486C58.9184 66.0485 56.8884 66.5373 54.8584 67.2038C54.8089 67.2483 54.7594 67.2483 54.7099 67.2483ZM66.2955 64.982C66.048 64.982 65.8004 64.8043 65.8004 64.5821C65.8004 64.3155 65.9985 64.1378 66.246 64.0933C67.9789 63.96 69.7613 63.96 71.4447 64.0489C71.7418 64.0489 71.9398 64.2711 71.8903 64.4932C71.8903 64.7599 71.6428 64.9376 71.3952 64.8932C69.7613 64.8487 68.0284 64.8487 66.2955 64.982Z" fill="#2C163A"/>
<path d="M305.782 66.3151C305.732 66.3151 305.683 66.3151 305.683 66.3151C305.435 66.2707 305.237 66.0041 305.336 65.7819C305.534 65.0265 305.633 64.271 305.683 63.4712C305.683 63.249 305.93 63.0268 306.178 63.0268C306.475 63.0268 306.673 63.249 306.673 63.4712C306.624 64.3155 306.525 65.1598 306.327 65.9596C306.228 66.1818 306.029 66.3151 305.782 66.3151ZM305.287 59.1165C305.089 59.1165 304.891 58.9832 304.841 58.8054C304.198 57.1169 303.158 55.4727 301.821 53.9175C301.672 53.7397 301.672 53.4287 301.92 53.2954C302.118 53.1621 302.465 53.1621 302.613 53.3842C304.049 55.0284 305.089 56.7614 305.782 58.5388C305.881 58.761 305.732 59.0276 305.485 59.1165C305.386 59.1165 305.336 59.1165 305.287 59.1165ZM298.355 50.6292C298.256 50.6292 298.157 50.5848 298.058 50.5403C296.523 49.4294 294.741 48.4518 292.711 47.4743C292.463 47.341 292.364 47.0743 292.513 46.8966C292.661 46.6744 292.958 46.5855 293.157 46.7188C295.236 47.6964 297.068 48.7185 298.652 49.8738C298.85 50.0071 298.9 50.3182 298.751 50.4959C298.652 50.5848 298.504 50.6292 298.355 50.6292ZM287.958 45.4746C287.908 45.4746 287.809 45.4746 287.76 45.4302C286.027 44.8081 284.294 44.186 282.561 43.6083L281.769 43.3417C281.521 43.2528 281.373 42.9862 281.472 42.764C281.571 42.5419 281.868 42.4086 282.116 42.4974L282.908 42.764C284.641 43.3417 286.423 43.9638 288.106 44.5859C288.354 44.6748 288.502 44.9414 288.354 45.1636C288.354 45.3858 288.156 45.4746 287.958 45.4746ZM276.917 41.6087C276.867 41.6087 276.768 41.6087 276.719 41.5643C274.491 40.72 272.56 39.8757 270.876 38.987C270.629 38.8537 270.579 38.5871 270.678 38.3649C270.827 38.1427 271.124 38.0983 271.372 38.1871C273.005 39.0314 274.887 39.8757 277.065 40.72C277.313 40.8089 277.412 41.0755 277.313 41.2977C277.263 41.5198 277.115 41.6087 276.917 41.6087ZM266.717 36.232C266.618 36.232 266.47 36.1875 266.42 36.1431C265.529 35.4321 264.688 34.7211 263.895 33.9213C263.252 33.2548 262.608 32.5438 262.014 31.7439C261.865 31.5218 261.915 31.2551 262.162 31.1218C262.41 30.9885 262.707 31.033 262.856 31.2551C263.4 32.0105 264.044 32.7215 264.638 33.3436C265.381 34.099 266.173 34.81 267.064 35.4766C267.262 35.6543 267.312 35.9209 267.114 36.0987C266.965 36.1875 266.817 36.232 266.717 36.232ZM164.576 34.5878C164.526 34.5878 164.427 34.5878 164.378 34.5434C164.13 34.4545 164.031 34.1879 164.13 33.9657C165.021 32.1883 166.011 30.4553 167.101 28.7667C167.249 28.5445 167.546 28.5001 167.794 28.589C168.041 28.7223 168.091 28.9889 167.992 29.2111C166.903 30.8552 165.962 32.5882 165.071 34.3212C164.972 34.499 164.774 34.5878 164.576 34.5878ZM259.736 27.7003C259.538 27.7003 259.39 27.6114 259.291 27.4336C258.35 25.7006 257.508 23.8343 256.766 22.1013C256.667 21.8792 256.815 21.6125 257.063 21.5237C257.31 21.4348 257.607 21.5237 257.706 21.7903C258.449 23.5233 259.291 25.3452 260.182 27.0782C260.281 27.3003 260.182 27.567 259.934 27.6558C259.885 27.7003 259.786 27.7003 259.736 27.7003ZM170.467 25.3452C170.368 25.3452 170.269 25.3007 170.17 25.2563C169.923 25.123 169.873 24.8564 170.071 24.6342C171.309 23.0789 172.646 21.5237 174.082 20.0573C174.28 19.8795 174.577 19.8351 174.775 20.0128C174.973 20.1906 175.022 20.4572 174.824 20.6349C173.438 22.0569 172.101 23.5677 170.864 25.123C170.814 25.3007 170.616 25.3452 170.467 25.3452ZM255.181 17.8799C254.983 17.8799 254.785 17.791 254.736 17.6133C253.746 15.5692 252.854 13.9251 251.864 12.5032C251.716 12.281 251.815 12.0144 252.013 11.8811C252.26 11.7478 252.557 11.8366 252.706 12.0144C253.696 13.4808 254.637 15.1249 255.627 17.2134C255.726 17.4356 255.627 17.7022 255.379 17.791C255.33 17.8355 255.231 17.8799 255.181 17.8799ZM178.241 17.3022C178.092 17.3022 177.993 17.2578 177.894 17.1689C177.696 16.9912 177.696 16.7246 177.894 16.5468C179.429 15.2138 181.112 13.9251 182.796 12.7253C182.994 12.592 183.34 12.592 183.489 12.8142C183.637 12.992 183.637 13.303 183.39 13.4363C181.707 14.6361 180.073 15.8803 178.587 17.2134C178.488 17.2578 178.389 17.3022 178.241 17.3022ZM187.499 10.6369C187.351 10.6369 187.202 10.548 187.103 10.4591C186.955 10.2369 187.004 9.97032 187.252 9.83701C189.034 8.77055 190.916 7.79295 192.797 6.8598C193.045 6.72649 193.342 6.81536 193.49 7.03754C193.639 7.25972 193.54 7.52634 193.292 7.65965C191.411 8.54837 189.579 9.52596 187.796 10.5924C187.697 10.6369 187.598 10.6369 187.499 10.6369ZM248.992 8.81498C248.844 8.81498 248.745 8.77055 248.646 8.68167C247.21 7.3486 245.576 6.19326 243.695 5.21567C243.447 5.08236 243.398 4.81575 243.497 4.59357C243.645 4.37139 243.942 4.32695 244.19 4.41582C246.121 5.43785 247.854 6.68206 249.339 8.05957C249.537 8.23731 249.537 8.50393 249.339 8.68167C249.24 8.77055 249.091 8.81498 248.992 8.81498ZM197.946 5.57116C197.748 5.57116 197.55 5.48229 197.501 5.30454C197.402 5.08236 197.501 4.81575 197.748 4.72687C199.729 3.97146 201.759 3.26049 203.838 2.68282C204.086 2.59395 204.383 2.72726 204.482 2.94944C204.581 3.17162 204.432 3.43823 204.185 3.5271C202.155 4.10477 200.174 4.77131 198.194 5.52672C198.095 5.57116 198.045 5.57116 197.946 5.57116ZM239.041 3.21605C238.991 3.21605 238.942 3.21605 238.892 3.17162C237.011 2.54951 234.931 2.06072 232.753 1.66079C232.505 1.61636 232.307 1.39418 232.357 1.12756C232.406 0.905382 232.654 0.727639 232.951 0.772075C235.179 1.172 237.308 1.66079 239.239 2.32733C239.486 2.4162 239.635 2.68282 239.536 2.905C239.437 3.08274 239.239 3.21605 239.041 3.21605ZM209.235 2.23846C208.987 2.23846 208.789 2.10515 208.74 1.88297C208.69 1.66079 208.839 1.39418 209.136 1.34974C211.265 0.905382 213.394 0.594331 215.523 0.327715C215.77 0.283279 216.018 0.461023 216.067 0.727639C216.117 0.949818 215.919 1.172 215.622 1.21643C213.542 1.43861 211.413 1.7941 209.334 2.19403C209.284 2.23846 209.284 2.23846 209.235 2.23846ZM227.405 1.03869H227.257C225.177 0.905382 223.048 0.860946 220.969 0.905382C220.672 0.905382 220.474 0.727639 220.474 0.461023C220.474 0.194407 220.672 0.0166635 220.969 0.0166635C223.098 -0.0277725 225.276 0.0166635 227.356 0.149971H227.455C227.752 0.149971 227.95 0.372151 227.901 0.638767C227.901 0.860946 227.703 1.03869 227.405 1.03869Z" fill="#2C163A"/>
</svg>
