<svg width="368" height="325" viewBox="0 0 368 325" fill="none" xmlns="http://www.w3.org/2000/svg">
<path d="M239.706 301.69L241.502 304.59H204.1V294.647C204.1 293.726 204.837 292.99 205.758 292.99C205.989 292.99 206.173 293.036 206.357 293.082C206.634 293.174 206.91 293.404 207.094 293.634L209.029 296.304C209.628 297.133 210.549 297.593 211.562 297.593H214.971C216.03 297.593 217.044 297.041 217.596 296.166L219.116 293.726C219.393 293.266 219.945 292.944 220.498 292.944H220.913C221.327 292.944 221.742 293.128 222.064 293.404L224.183 295.384C225.841 296.995 228.052 297.915 230.355 298.054L234.132 298.284C236.343 298.514 238.462 299.757 239.706 301.69Z" fill="#2C163A"/>
<path d="M198.434 301.69L200.231 304.59H162.829V294.647C162.829 293.726 163.566 292.99 164.487 292.99C164.671 292.99 164.901 293.036 165.086 293.082C165.362 293.174 165.638 293.404 165.823 293.634L167.757 296.304C168.356 297.133 169.277 297.593 170.291 297.593H173.699C174.759 297.593 175.772 297.041 176.325 296.166L177.845 293.726C178.121 293.266 178.674 292.944 179.227 292.944H179.641C180.056 292.944 180.47 293.128 180.793 293.404L182.912 295.384C184.57 296.995 186.781 297.915 189.084 298.054L192.861 298.284C195.118 298.514 197.237 299.757 198.434 301.69Z" fill="#2C163A"/>
<path d="M175.265 173.396H173.101C169.83 173.396 166.974 175.605 166.145 178.782L162.046 194.663L158.867 207.046L158.361 206.908L129.388 195.4L119.531 191.487C115.063 189.691 112.898 184.628 114.602 180.163L124.643 153.647C125.749 150.885 128.052 148.768 130.954 148.031L146.431 143.842L146.937 143.981C148.411 145.96 150.07 147.847 152.142 149.182C154.215 150.517 156.749 151.254 159.19 150.839C161.539 150.425 164.579 147.801 165.316 145.454C165.316 145.362 165.362 145.315 165.362 145.223L180.332 154.614C185.031 157.56 188.025 162.624 188.393 168.148L188.716 173.396H175.265Z" fill="#FFA385"/>
<path d="M152.833 114.98C151.866 118.018 151.175 120.964 151.129 123.726V123.864C150.576 124.002 149.977 124.14 149.471 124.462C149.333 124.554 149.148 124.647 149.01 124.785C147.674 122.529 146.799 121.746 145.97 119.261C145.141 116.775 144.818 114.059 145.555 111.527C146.292 108.995 148.273 106.786 150.76 106.141L150.899 106.417C153.708 105.082 156.656 103.978 159.743 103.747C162.921 103.517 166.329 104.346 168.632 106.555C170.982 108.765 172.364 112.126 170.936 114.98L170.843 114.934C170.383 115.348 169.876 115.67 169.323 115.9C168.586 116.222 167.803 116.407 167.02 116.591C162.276 117.465 157.255 116.913 152.833 114.98Z" fill="#2C163A"/>
<path d="M168.771 126.074C168.771 126.212 168.771 126.304 168.771 126.442C168.678 126.902 168.31 127.224 167.803 127.224C167.481 127.224 167.25 127.086 167.066 126.856C166.928 126.672 166.836 126.488 166.836 126.212C166.836 125.659 167.25 125.245 167.803 125.245C168.264 125.291 168.678 125.613 168.771 126.074Z" fill="#2C163A"/>
<path d="M160.203 125.567C160.756 125.567 161.171 125.982 161.171 126.534C161.171 127.086 160.71 127.501 160.203 127.501C159.651 127.501 159.236 127.04 159.236 126.534C159.236 126.028 159.651 125.567 160.203 125.567Z" fill="#2C163A"/>
<path d="M158.821 207.046L158.315 209.025H135.422V213.767H124.137L129.204 195.676L129.296 195.399L158.315 206.908L158.821 207.046Z" fill="#FFA385"/>
<path d="M162 195.077C161.954 195.077 161.861 195.077 161.815 195.031L131.829 180.347C131.599 180.255 131.507 179.978 131.599 179.748C131.691 179.518 131.967 179.426 132.198 179.518L162.184 194.203C162.414 194.295 162.506 194.571 162.414 194.801C162.368 194.985 162.184 195.077 162 195.077Z" fill="#2C163A"/>
<path d="M133.81 181.267C133.764 181.267 133.718 181.267 133.671 181.221C133.441 181.129 133.303 180.853 133.395 180.623L138.692 166.353C138.784 166.122 139.061 165.984 139.291 166.076C139.521 166.169 139.659 166.445 139.567 166.675L134.27 180.945C134.178 181.175 133.994 181.267 133.81 181.267Z" fill="#2C163A"/>
<path d="M158.315 209.486C158.269 209.486 158.223 209.486 158.177 209.486C157.946 209.44 157.762 209.163 157.854 208.933L165.685 178.643C166.56 175.283 169.6 172.889 173.101 172.889H217.781C219.025 172.889 220.176 173.442 220.959 174.454C221.742 175.421 221.973 176.71 221.65 177.907L213.589 209.117C213.543 209.348 213.267 209.532 213.037 209.44C212.806 209.394 212.622 209.117 212.714 208.887L220.775 177.631C221.005 176.71 220.821 175.743 220.222 174.961C219.623 174.178 218.748 173.764 217.781 173.764H173.101C170.015 173.764 167.343 175.835 166.56 178.828L158.729 209.117C158.683 209.348 158.499 209.486 158.315 209.486Z" fill="#2C163A"/>
<path d="M163.289 205.711C163.243 205.711 163.197 205.711 163.151 205.711C162.921 205.665 162.737 205.389 162.829 205.159L168.771 182.142C169.646 178.782 172.686 176.388 176.187 176.388H217.09C217.366 176.388 217.55 176.572 217.55 176.848C217.55 177.124 217.366 177.308 217.09 177.308H176.187C173.1 177.308 170.429 179.38 169.646 182.372L163.704 205.389C163.704 205.573 163.52 205.711 163.289 205.711Z" fill="#2C163A"/>
<path d="M135.422 214.227C135.146 214.227 134.961 214.043 134.961 213.767V209.071C134.961 208.795 135.146 208.611 135.422 208.611H158.269C158.545 208.611 158.729 208.795 158.729 209.071C158.729 209.348 158.545 209.532 158.269 209.532H135.883V213.767C135.883 213.997 135.698 214.227 135.422 214.227Z" fill="#2C163A"/>
<path d="M213.128 214.227C212.852 214.227 212.668 214.043 212.668 213.767V209.532H158.775V213.767C158.775 214.043 158.591 214.227 158.315 214.227C158.038 214.227 157.854 214.043 157.854 213.767V209.071C157.854 208.795 158.038 208.611 158.315 208.611H213.128C213.405 208.611 213.589 208.795 213.589 209.071V213.767C213.589 213.997 213.359 214.227 213.128 214.227Z" fill="#2C163A"/>
<path d="M188.623 173.856C188.393 173.856 188.163 173.672 188.163 173.442L187.84 168.194C187.518 162.808 184.616 157.882 180.01 155.028L165.04 145.638C164.809 145.499 164.763 145.223 164.901 144.993C165.04 144.763 165.316 144.717 165.546 144.855L180.516 154.246C185.353 157.284 188.439 162.486 188.762 168.148L189.084 173.396C189.084 173.626 188.9 173.81 188.623 173.856Z" fill="#2C163A"/>
<path d="M175.265 173.856C175.219 173.856 175.219 173.856 175.173 173.856C174.943 173.81 174.759 173.534 174.805 173.304L176.509 165.846C176.555 165.616 176.831 165.432 177.062 165.478C177.292 165.524 177.476 165.8 177.43 166.03L175.726 173.488C175.68 173.718 175.45 173.856 175.265 173.856Z" fill="#2C163A"/>
<path d="M158.315 207.368C158.268 207.368 158.222 207.368 158.13 207.322L119.3 191.947C114.556 190.014 112.299 184.812 114.095 180.024L124.137 153.509C125.288 150.609 127.729 148.4 130.723 147.617L146.2 143.474C146.292 143.474 146.338 143.474 146.431 143.474L146.937 143.612C147.029 143.658 147.121 143.704 147.214 143.796C148.457 145.408 150.116 147.479 152.326 148.86C154.537 150.287 156.887 150.839 159.052 150.425C161.309 150.011 164.164 147.479 164.809 145.361C164.809 145.315 164.855 145.269 164.855 145.177L165.316 145.269L165.777 145.408C165.777 145.5 165.731 145.546 165.731 145.638C164.994 148.123 161.815 150.885 159.236 151.346C156.841 151.76 154.261 151.162 151.866 149.643C149.609 148.17 147.905 146.144 146.615 144.487L146.384 144.441L131.046 148.584C128.328 149.32 126.071 151.3 125.058 153.924L115.016 180.439C113.404 184.72 115.431 189.461 119.715 191.211L158.545 206.586C158.775 206.678 158.913 206.954 158.821 207.184C158.637 207.23 158.453 207.368 158.315 207.368Z" fill="#2C163A"/>
<path d="M124.137 214.227C124.091 214.227 124.045 214.227 123.999 214.227C123.768 214.181 123.63 213.905 123.676 213.675L128.743 195.584C128.789 195.354 129.065 195.215 129.296 195.262C129.526 195.308 129.664 195.584 129.618 195.814L124.551 213.905C124.505 214.089 124.321 214.227 124.137 214.227Z" fill="#2C163A"/>
<path d="M251.452 223.618H184.248C183.971 223.618 183.787 223.434 183.787 223.158C183.787 222.881 183.971 222.697 184.248 222.697H251.452C252.603 222.697 253.663 222.237 254.446 221.454C255.229 220.672 255.69 219.567 255.69 218.462C255.69 216.115 253.801 214.227 251.452 214.227H94.3347L95.6704 222.697H165.27C165.546 222.697 165.731 222.881 165.731 223.158C165.731 223.434 165.546 223.618 165.27 223.618H95.3019C95.0716 223.618 94.8874 223.434 94.8413 223.25L93.3213 213.859C93.3213 213.721 93.3213 213.583 93.4134 213.491C93.5055 213.399 93.6437 213.307 93.7819 213.307H251.452C254.308 213.307 256.611 215.608 256.611 218.462C256.611 219.843 256.058 221.132 255.091 222.099C254.17 223.112 252.834 223.618 251.452 223.618Z" fill="#2C163A"/>
<path d="M146.845 144.118C146.615 144.118 146.431 143.98 146.385 143.75C146.339 143.52 146.477 143.244 146.753 143.198C148.918 142.691 151.544 134.59 150.208 128.191C150.162 127.961 150.3 127.685 150.576 127.639C150.807 127.593 151.083 127.731 151.129 128.007C152.557 134.728 149.839 143.474 146.984 144.118C146.891 144.118 146.891 144.118 146.845 144.118Z" fill="#2C163A"/>
<path d="M166.145 146.328C166.099 146.328 166.053 146.328 165.961 146.282C165.592 146.144 165.27 146.006 164.994 145.822C162.644 144.533 161.078 142.001 160.94 139.377C160.94 139.101 161.124 138.917 161.355 138.917C161.585 138.917 161.815 139.101 161.815 139.331C161.907 141.633 163.335 143.888 165.408 144.993C165.685 145.131 165.961 145.269 166.283 145.408C166.514 145.5 166.652 145.776 166.56 146.006C166.468 146.236 166.329 146.328 166.145 146.328Z" fill="#2C163A"/>
<path d="M168.771 126.534C168.54 126.534 168.31 126.35 168.31 126.074V125.475C168.31 123.91 168.31 122.161 168.356 120.504C168.448 118.524 168.633 117.005 168.909 115.808C168.955 115.578 169.231 115.394 169.462 115.486C169.692 115.532 169.876 115.808 169.784 116.038C169.508 117.189 169.323 118.662 169.277 120.55C169.231 122.207 169.231 123.91 169.231 125.475V126.074C169.231 126.304 169.047 126.534 168.771 126.534Z" fill="#2C163A"/>
<path d="M160.48 139.653C158.315 139.653 156.38 138.733 155.275 137.168C155.137 136.937 155.183 136.661 155.367 136.523C155.597 136.385 155.873 136.431 156.012 136.615C157.071 138.134 159.098 138.917 161.309 138.687C162.276 138.595 163.151 138.272 163.934 137.812C166.237 136.385 167.85 133.531 168.218 130.17C168.31 129.204 168.31 127.823 168.31 126.488C168.31 126.212 168.494 126.027 168.771 126.027C169.047 126.027 169.231 126.212 169.231 126.488C169.231 128.099 169.231 129.342 169.139 130.263C168.725 133.899 166.974 137.029 164.441 138.595C163.566 139.147 162.506 139.515 161.447 139.607C161.125 139.653 160.802 139.653 160.48 139.653Z" fill="#2C163A"/>
<path d="M164.165 130.585C163.98 130.585 163.796 130.493 163.704 130.263C163.612 130.032 163.75 129.756 163.98 129.664C164.533 129.48 164.994 129.296 165.362 128.974C165.639 128.697 165.869 128.283 165.731 127.915C165.685 127.777 165.592 127.685 165.454 127.547C165.362 127.455 165.27 127.409 165.178 127.316C165.086 127.224 164.994 127.178 164.948 127.086C164.072 126.258 163.658 125.107 163.75 123.91C163.842 122.759 164.902 120.734 167.435 119.997C167.665 119.905 167.942 120.043 167.988 120.319C168.08 120.55 167.942 120.826 167.665 120.872C165.592 121.516 164.717 123.127 164.625 124.002C164.533 124.877 164.902 125.797 165.546 126.396C165.639 126.488 165.685 126.534 165.777 126.58C165.869 126.672 165.961 126.764 166.053 126.856C166.283 127.086 166.468 127.316 166.56 127.547C166.882 128.329 166.468 129.158 165.961 129.618C165.454 130.078 164.855 130.309 164.303 130.493C164.257 130.539 164.211 130.585 164.165 130.585Z" fill="#2C163A"/>
<path d="M155.044 122.805C154.86 122.805 154.722 122.713 154.63 122.575C154.491 122.345 154.584 122.069 154.814 121.977C156.979 120.872 159.466 120.458 161.861 120.872C162.092 120.918 162.276 121.148 162.23 121.424C162.184 121.654 161.953 121.839 161.677 121.792C159.466 121.424 157.163 121.792 155.182 122.805C155.182 122.805 155.09 122.805 155.044 122.805Z" fill="#2C163A"/>
<path d="M162.46 117.465C159.098 117.465 155.689 116.775 152.649 115.44C152.603 115.394 152.511 115.394 152.465 115.348L152.327 115.302C152.096 115.21 152.004 114.934 152.096 114.703C152.188 114.473 152.465 114.381 152.695 114.473L152.833 114.519C152.879 114.565 152.972 114.565 153.018 114.611C157.347 116.499 162.276 117.051 166.928 116.13C167.85 115.946 168.54 115.762 169.139 115.486C169.692 115.256 170.153 114.98 170.521 114.611C170.705 114.427 170.982 114.427 171.166 114.657C171.35 114.842 171.35 115.118 171.12 115.302C170.659 115.716 170.153 116.038 169.508 116.361C168.863 116.637 168.08 116.867 167.066 117.051C165.592 117.327 164.026 117.465 162.46 117.465Z" fill="#2C163A"/>
<path d="M151.129 124.186C150.853 124.186 150.668 123.956 150.668 123.726C150.668 121.286 151.221 118.57 152.373 114.841C152.465 114.611 152.695 114.473 152.972 114.519C153.202 114.611 153.34 114.841 153.294 115.118C152.142 118.708 151.636 121.378 151.636 123.726C151.59 124.002 151.405 124.186 151.129 124.186Z" fill="#2C163A"/>
<path d="M149.01 125.245C148.872 125.245 148.688 125.153 148.595 125.015C148.181 124.324 147.812 123.772 147.444 123.22C146.707 122.115 146.062 121.148 145.509 119.399C144.542 116.545 144.404 113.737 145.095 111.389C145.924 108.581 148.135 106.325 150.622 105.681C150.852 105.635 151.129 105.773 151.175 106.003C151.221 106.233 151.083 106.509 150.852 106.556C148.641 107.108 146.707 109.133 145.97 111.619C145.325 113.783 145.463 116.361 146.338 119.031C146.891 120.642 147.444 121.516 148.181 122.621C148.549 123.127 148.918 123.726 149.332 124.462C149.471 124.693 149.378 124.969 149.148 125.107C149.194 125.199 149.102 125.245 149.01 125.245Z" fill="#2C163A"/>
<path d="M170.936 115.44C170.844 115.44 170.798 115.44 170.752 115.394C170.521 115.302 170.429 115.026 170.567 114.795C171.949 112.08 170.429 108.903 168.356 106.924C166.284 104.99 163.197 104.024 159.789 104.254C156.518 104.484 153.432 105.773 151.129 106.878L150.853 107.016L150.622 106.602L150.438 106.187C150.53 106.141 150.622 106.095 150.715 106.049C153.11 104.898 156.288 103.609 159.697 103.333C163.336 103.057 166.698 104.116 168.955 106.233C171.12 108.259 173.055 111.849 171.35 115.164C171.258 115.348 171.12 115.44 170.936 115.44Z" fill="#2C163A"/>
<path d="M150.668 128.513H150.622C150.023 128.513 149.471 128.329 149.01 128.053C148.181 127.547 147.766 126.534 147.951 125.659C148.043 125.199 148.319 124.739 148.734 124.416C148.872 124.278 149.056 124.14 149.24 124.048C149.793 123.726 150.438 123.542 151.037 123.404C151.267 123.358 151.544 123.496 151.59 123.726C151.636 123.956 151.497 124.232 151.267 124.278C150.714 124.416 150.208 124.554 149.747 124.831C149.609 124.923 149.471 125.015 149.379 125.107C149.194 125.291 148.964 125.521 148.872 125.889C148.78 126.396 149.056 126.994 149.517 127.316C149.839 127.501 150.208 127.639 150.622 127.639C150.807 127.639 151.083 127.639 151.267 127.593C151.497 127.547 151.774 127.685 151.82 127.961C151.866 128.191 151.728 128.467 151.451 128.513C151.221 128.513 150.945 128.513 150.668 128.513Z" fill="#2C163A"/>
<path d="M168.771 126.534C168.494 126.534 168.31 126.35 168.31 126.074C168.31 125.797 168.494 125.613 168.771 125.613C169.047 125.613 169.231 125.797 169.231 126.074C169.231 126.304 169.047 126.534 168.771 126.534Z" fill="#2C163A"/>
<path d="M162.46 135.05C161.401 135.05 160.387 134.636 159.65 133.853C159.466 133.669 159.466 133.393 159.697 133.209C159.881 133.025 160.157 133.025 160.341 133.255C161.171 134.129 162.644 134.406 163.704 133.853C163.934 133.761 164.211 133.853 164.303 134.037C164.395 134.268 164.303 134.544 164.118 134.636C163.566 134.912 163.013 135.05 162.46 135.05Z" fill="#2C163A"/>
<path d="M222.341 290.826H203.686C203.502 290.826 203.317 290.688 203.271 290.55L185.307 243.504C185.215 243.274 185.353 242.998 185.583 242.906C185.814 242.814 186.09 242.952 186.182 243.182L204.054 289.906H221.788L206.357 240.236C203.594 230.431 194.519 223.618 184.34 223.618H165.362C165.086 223.618 164.902 223.434 164.902 223.157C164.902 222.881 165.086 222.697 165.362 222.697H184.248C194.842 222.697 204.239 229.786 207.14 239.96L222.755 290.228C222.801 290.366 222.755 290.504 222.709 290.642C222.617 290.78 222.479 290.826 222.341 290.826Z" fill="#2C163A"/>
<path d="M187.564 243.78H137.771C132.612 243.78 127.822 241.433 124.689 237.336C121.557 233.239 120.544 228.037 121.926 223.019C121.972 222.789 122.248 222.651 122.479 222.697C122.709 222.743 122.847 223.019 122.801 223.25C121.511 227.945 122.479 232.871 125.426 236.737C128.374 240.604 132.889 242.814 137.771 242.814H187.564C187.84 242.814 188.025 242.998 188.025 243.274C188.025 243.55 187.794 243.78 187.564 243.78Z" fill="#2C163A"/>
<path d="M181.576 290.826H163.382C163.243 290.826 163.105 290.734 163.013 290.642C162.921 290.504 162.921 290.366 162.967 290.228L180.24 243.182C180.332 242.952 180.609 242.814 180.839 242.906C181.069 242.998 181.208 243.274 181.115 243.504L164.073 289.906H181.3L193.644 264.91C193.736 264.679 194.013 264.587 194.243 264.679C194.473 264.772 194.566 265.048 194.473 265.278L181.945 290.596C181.899 290.734 181.714 290.826 181.576 290.826Z" fill="#2C163A"/>
<path d="M241.503 305.097H204.1C203.824 305.097 203.64 304.912 203.64 304.636V294.693C203.64 293.542 204.607 292.576 205.759 292.576C206.035 292.576 206.265 292.622 206.542 292.714C206.91 292.852 207.232 293.082 207.463 293.45L209.397 296.12C209.904 296.811 210.687 297.225 211.562 297.225H214.971C215.892 297.225 216.721 296.765 217.228 295.982L218.748 293.542C219.116 292.944 219.807 292.576 220.544 292.576H220.959C221.512 292.576 222.018 292.806 222.433 293.174L224.552 295.153C226.118 296.673 228.237 297.547 230.402 297.685L234.179 297.915C236.62 298.054 238.877 299.388 240.167 301.46L241.963 304.36C242.055 304.498 242.055 304.682 241.963 304.82C241.825 305.005 241.641 305.097 241.503 305.097ZM204.561 304.176H240.673L239.292 301.966C238.14 300.125 236.159 298.974 234.041 298.836L230.263 298.606C227.868 298.468 225.565 297.455 223.815 295.798L221.696 293.818C221.466 293.588 221.189 293.496 220.867 293.496H220.452C220.038 293.496 219.669 293.68 219.439 294.049L217.919 296.488C217.274 297.547 216.122 298.146 214.925 298.146H211.516C210.365 298.146 209.305 297.593 208.614 296.673L206.68 294.003C206.542 293.818 206.357 293.68 206.173 293.588C205.344 293.266 204.561 293.911 204.561 294.693V304.176Z" fill="#2C163A"/>
<path d="M241.503 309.654H204.1C203.824 309.654 203.64 309.47 203.64 309.194V304.59C203.64 304.314 203.824 304.13 204.1 304.13C204.377 304.13 204.561 304.314 204.561 304.59V308.733H241.042V304.59C241.042 304.314 241.226 304.13 241.503 304.13C241.779 304.13 241.963 304.314 241.963 304.59V309.194C241.963 309.47 241.733 309.654 241.503 309.654Z" fill="#2C163A"/>
<path d="M220.498 293.496C220.268 293.496 220.084 293.358 220.038 293.128L219.577 290.458C219.531 290.228 219.715 289.952 219.945 289.906C220.176 289.86 220.452 290.044 220.498 290.274L220.959 292.944C221.005 293.174 220.821 293.45 220.59 293.496C220.544 293.496 220.498 293.496 220.498 293.496Z" fill="#2C163A"/>
<path d="M206.403 293.496C206.173 293.496 205.989 293.358 205.943 293.128L205.436 290.458C205.39 290.228 205.528 289.952 205.804 289.906C206.035 289.86 206.311 289.998 206.357 290.274L206.864 292.944C206.91 293.174 206.772 293.45 206.495 293.496C206.449 293.496 206.403 293.496 206.403 293.496Z" fill="#2C163A"/>
<path d="M200.277 305.097H162.875C162.599 305.097 162.414 304.912 162.414 304.636V294.693C162.414 293.542 163.336 292.576 164.533 292.576C164.81 292.576 165.04 292.622 165.316 292.714C165.685 292.852 166.007 293.082 166.237 293.45L168.172 296.12C168.679 296.811 169.462 297.225 170.337 297.225H173.746C174.667 297.225 175.496 296.765 176.003 295.982L177.523 293.542C177.891 292.944 178.582 292.576 179.319 292.576H179.734C180.286 292.576 180.793 292.76 181.208 293.174L183.326 295.153C184.939 296.673 187.011 297.547 189.176 297.685L192.953 297.915C195.395 298.054 197.652 299.388 198.941 301.46L200.738 304.36C200.83 304.498 200.83 304.682 200.738 304.82C200.554 305.005 200.415 305.097 200.277 305.097ZM163.336 304.176H199.448L198.066 301.966C196.915 300.125 194.934 298.974 192.815 298.836L189.038 298.606C186.643 298.468 184.34 297.455 182.589 295.798L180.471 293.818C180.24 293.588 179.964 293.496 179.641 293.496H179.227C178.812 293.496 178.444 293.726 178.214 294.049L176.694 296.488C176.049 297.501 174.897 298.146 173.699 298.146H170.291C169.139 298.146 168.08 297.593 167.389 296.673L165.454 294.003C165.316 293.818 165.132 293.68 164.948 293.588C164.119 293.266 163.336 293.911 163.336 294.693V304.176Z" fill="#2C163A"/>
<path d="M200.277 309.654H162.875C162.599 309.654 162.414 309.47 162.414 309.194V304.59C162.414 304.314 162.599 304.13 162.875 304.13C163.151 304.13 163.336 304.314 163.336 304.59V308.733H199.817V304.59C199.817 304.314 200.001 304.13 200.277 304.13C200.554 304.13 200.738 304.314 200.738 304.59V309.194C200.738 309.47 200.508 309.654 200.277 309.654Z" fill="#2C163A"/>
<path d="M179.227 293.496C178.95 293.496 178.766 293.312 178.766 293.036V290.366C178.766 290.09 178.95 289.906 179.227 289.906C179.503 289.906 179.687 290.09 179.687 290.366V293.036C179.687 293.266 179.503 293.496 179.227 293.496Z" fill="#2C163A"/>
<path d="M165.132 293.496C164.856 293.496 164.671 293.266 164.671 293.036L164.81 290.366C164.81 290.09 165.04 289.906 165.27 289.906C165.547 289.906 165.731 290.136 165.731 290.366L165.593 293.036C165.593 293.312 165.408 293.496 165.132 293.496Z" fill="#2C163A"/>
<path d="M325.105 270.848H278.444C276.602 270.848 275.128 269.375 275.128 267.533C275.128 265.692 276.602 264.219 278.444 264.219H325.059C326.901 264.219 328.375 265.692 328.375 267.533C328.422 269.329 326.901 270.848 325.105 270.848ZM278.444 265.14C277.109 265.14 276.049 266.198 276.049 267.533C276.049 268.868 277.109 269.927 278.444 269.927H325.059C326.395 269.927 327.454 268.868 327.454 267.533C327.454 266.198 326.395 265.14 325.059 265.14H278.444Z" fill="#2C163A"/>
<path d="M312.116 174.592H232.106C226.44 174.592 221.88 169.989 221.88 164.373V74.7464C221.88 69.0843 226.487 64.527 232.106 64.527H312.116C317.781 64.527 322.341 69.1304 322.341 74.7464V164.327C322.341 169.989 317.735 174.592 312.116 174.592ZM232.106 65.4477C226.947 65.4477 222.802 69.6367 222.802 74.7464V164.327C222.802 169.483 226.993 173.626 232.106 173.626H312.116C317.275 173.626 321.42 169.437 321.42 164.327V74.7464C321.42 69.5907 317.229 65.4477 312.116 65.4477H232.106Z" fill="#2C163A"/>
<path d="M317.873 310.022H285.676C283.834 310.022 282.268 308.641 282.083 306.8L277.984 270.388C277.984 270.25 278.03 270.111 278.076 270.019C278.168 269.927 278.306 269.881 278.398 269.881H325.013C325.151 269.881 325.289 269.927 325.336 270.019C325.428 270.111 325.474 270.25 325.428 270.388L321.328 306.8C321.236 308.641 319.716 310.022 317.873 310.022ZM278.997 270.848L283.005 306.754C283.143 308.135 284.294 309.148 285.676 309.148H317.873C319.255 309.148 320.407 308.135 320.545 306.754L324.552 270.848H278.997Z" fill="#2C163A"/>
<path d="M301.706 264.679C299.817 251.238 304.792 230.293 312.76 219.291C319.255 210.268 327.869 203.041 337.311 197.057C341.227 194.571 346.432 197.241 346.57 201.89C346.616 203.225 346.478 204.514 346.155 205.803C345.142 210.084 342.148 213.859 338.233 215.838C335.377 217.265 331.784 218.14 330.494 221.086C329.251 223.894 330.909 227.116 330.586 230.201C330.264 233.055 328.191 235.402 325.98 237.244C320.038 242.169 310.826 245.207 303.134 244.977L301.706 264.679Z" fill="#FFA385"/>
<path d="M301.706 265.14C301.476 265.14 301.291 264.956 301.245 264.725C299.311 250.961 304.423 230.016 312.346 218.968C318.288 210.728 326.579 203.225 337.035 196.642C339.062 195.353 341.503 195.307 343.622 196.412C345.695 197.517 346.939 199.542 347.031 201.844C347.077 203.225 346.939 204.56 346.616 205.895C345.557 210.314 342.517 214.181 338.463 216.206C337.772 216.529 337.081 216.851 336.39 217.173C334.041 218.186 331.876 219.153 330.955 221.224C330.31 222.743 330.541 224.446 330.817 226.242C331.001 227.531 331.232 228.866 331.047 230.201C330.771 232.732 329.205 235.126 326.257 237.52C320.269 242.445 311.01 245.622 303.088 245.345H303.042C301.752 252.158 301.337 258.971 302.12 264.587C302.166 264.817 301.982 265.094 301.706 265.094C301.752 265.14 301.706 265.14 301.706 265.14ZM303.226 244.425C310.872 244.655 319.9 241.617 325.658 236.829C328.376 234.574 329.85 232.364 330.126 230.108C330.264 228.912 330.08 227.623 329.896 226.38C329.619 224.538 329.343 222.651 330.08 220.856C331.139 218.462 333.581 217.357 335.976 216.345C336.667 216.068 337.358 215.746 338.003 215.424C341.826 213.49 344.682 209.854 345.695 205.711C345.971 204.468 346.109 203.179 346.063 201.89C346.017 199.911 344.912 198.161 343.162 197.241C341.365 196.274 339.246 196.366 337.496 197.425C327.178 203.962 318.933 211.373 313.083 219.521C308.661 225.689 305.114 235.034 303.226 244.425Z" fill="#2C163A"/>
<path d="M302.535 245.622C302.443 245.622 302.396 245.622 302.304 245.576C302.074 245.438 301.982 245.161 302.12 244.977C309.951 229.648 321.512 216.206 335.469 206.171C335.653 206.033 335.976 206.079 336.114 206.263C336.252 206.447 336.206 206.77 336.022 206.908C322.157 216.897 310.734 230.201 302.949 245.392C302.857 245.53 302.673 245.622 302.535 245.622Z" fill="#2C163A"/>
<path d="M301.199 259.017C299.909 252.849 294.474 244.425 289.269 240.834C285.031 237.888 280.102 236.047 275.035 234.896C272.917 234.436 271.074 236.415 271.719 238.44C271.903 239.039 272.18 239.591 272.502 240.098C273.608 241.801 275.496 242.998 277.523 243.274C278.997 243.458 280.701 243.274 281.714 244.379C282.682 245.438 282.451 247.095 283.096 248.384C283.695 249.58 284.985 250.271 286.229 250.731C289.591 251.974 294.105 251.882 297.468 250.547L301.199 259.017Z" fill="#FFA385"/>
<path d="M301.199 259.478C300.969 259.478 300.785 259.34 300.738 259.109C300.232 256.624 299.034 253.77 297.468 251.054C294.013 252.343 289.453 252.389 286.091 251.146C284.386 250.501 283.281 249.673 282.728 248.568C282.452 247.969 282.314 247.325 282.175 246.727C282.037 245.944 281.899 245.207 281.392 244.655C280.748 243.965 279.688 243.873 278.537 243.826C278.168 243.78 277.8 243.78 277.477 243.734C275.312 243.458 273.286 242.169 272.134 240.374C271.765 239.822 271.489 239.223 271.305 238.625C270.936 237.52 271.213 236.323 271.996 235.448C272.825 234.574 273.976 234.206 275.174 234.436C280.794 235.725 285.63 237.704 289.591 240.42C294.843 244.057 300.416 252.527 301.706 258.925C301.752 259.155 301.614 259.432 301.337 259.478C301.245 259.478 301.199 259.478 301.199 259.478ZM274.391 235.31C273.746 235.31 273.101 235.587 272.641 236.093C272.088 236.691 271.904 237.566 272.134 238.349C272.318 238.901 272.549 239.407 272.871 239.914C273.93 241.525 275.681 242.63 277.569 242.86C277.892 242.906 278.214 242.906 278.583 242.952C279.826 243.044 281.116 243.136 282.037 244.103C282.682 244.793 282.866 245.714 283.051 246.634C283.143 247.233 283.281 247.785 283.511 248.246C283.972 249.12 284.893 249.857 286.367 250.363C289.499 251.514 293.737 251.468 296.961 250.317C294.704 246.634 291.802 243.228 288.947 241.249C285.123 238.625 280.379 236.645 274.852 235.402C274.713 235.31 274.575 235.31 274.391 235.31Z" fill="#2C163A"/>
<path d="M297.791 251.053C297.698 251.053 297.56 251.007 297.468 250.915C291.71 245.483 284.663 241.433 277.063 239.223C276.832 239.131 276.694 238.901 276.74 238.671C276.832 238.44 277.063 238.302 277.293 238.348C285.031 240.604 292.217 244.701 298.067 250.225C298.251 250.409 298.251 250.685 298.067 250.869C298.021 251.007 297.883 251.053 297.791 251.053Z" fill="#2C163A"/>
<path d="M301.936 249.857C301.706 241.985 300.692 234.113 298.896 226.426C298.021 222.743 296.961 219.014 295.027 215.792C291.434 209.762 285.308 205.849 279.412 202.074C277.753 201.015 276.003 199.957 274.022 199.634C272.042 199.312 269.785 200.003 268.863 201.752C267.85 203.639 268.725 206.079 270.199 207.644C271.673 209.209 273.654 210.176 275.404 211.419C277.155 212.662 278.813 214.365 279.043 216.483C279.366 219.291 277.201 222.375 278.629 224.861C279.734 226.702 282.221 227.024 284.386 227.116C286.551 227.208 289.085 227.53 290.144 229.418C290.927 230.845 290.605 232.64 291.388 234.067C292.954 236.921 298.988 237.197 301.015 239.775L301.936 249.857Z" fill="#FFA385"/>
<path d="M301.936 250.317C301.706 250.317 301.475 250.133 301.475 249.857C301.383 246.588 301.153 243.366 300.784 240.144C300.692 240.098 300.646 240.052 300.554 240.006C299.679 238.901 297.882 238.21 296.132 237.52C294.013 236.691 291.802 235.863 290.881 234.205C290.467 233.423 290.328 232.548 290.236 231.72C290.144 230.937 290.006 230.154 289.683 229.556C288.762 227.899 286.459 227.577 284.34 227.485C281.945 227.392 279.366 227.024 278.214 224.999C277.293 223.388 277.707 221.592 278.122 219.889C278.398 218.738 278.675 217.541 278.583 216.483C278.398 214.825 277.201 213.214 275.128 211.741C274.621 211.373 274.022 211.005 273.47 210.682C272.18 209.9 270.89 209.071 269.831 207.92C268.357 206.355 267.297 203.685 268.449 201.522C269.554 199.45 272.134 198.852 274.069 199.174C276.141 199.496 277.984 200.647 279.642 201.66C285.308 205.25 291.71 209.255 295.441 215.516C297.468 218.922 298.527 222.697 299.403 226.288C301.245 233.975 302.258 241.939 302.489 249.811C302.397 250.087 302.212 250.317 301.936 250.317ZM273.055 200.003C271.581 200.003 269.969 200.555 269.186 201.936C268.219 203.685 269.186 205.941 270.43 207.276C271.397 208.335 272.641 209.071 273.884 209.9C274.437 210.268 274.99 210.59 275.542 211.005C277.892 212.616 279.181 214.457 279.412 216.391C279.55 217.633 279.227 218.922 278.951 220.119C278.536 221.73 278.168 223.295 278.951 224.538C279.872 226.15 282.083 226.472 284.34 226.564C286.736 226.656 289.315 227.07 290.467 229.096C290.927 229.878 291.019 230.753 291.157 231.581C291.25 232.364 291.388 233.101 291.71 233.745C292.447 235.126 294.52 235.909 296.455 236.645C297.975 237.244 299.541 237.796 300.6 238.717C300.093 234.62 299.356 230.523 298.389 226.472C297.56 222.973 296.501 219.245 294.566 215.93C290.973 209.9 284.663 205.895 279.089 202.396C277.523 201.43 275.773 200.325 273.884 200.003C273.654 200.049 273.378 200.003 273.055 200.003Z" fill="#2C163A"/>
<path d="M301.383 241.663C301.199 241.663 301.015 241.525 300.923 241.341C298.021 230.569 290.881 219.199 281.438 210.222C281.254 210.038 281.254 209.762 281.438 209.578C281.623 209.394 281.899 209.394 282.083 209.578C291.664 218.692 298.85 230.201 301.798 241.11C301.844 241.341 301.706 241.617 301.475 241.663C301.429 241.663 301.429 241.663 301.383 241.663Z" fill="#2C163A"/>
<path d="M260.48 99.052H235.469C233.166 99.052 231.323 97.2107 231.323 94.909V87.2215C231.323 84.9198 233.166 83.0785 235.469 83.0785H260.48C262.784 83.0785 264.626 84.9198 264.626 87.2215V94.909C264.626 97.1646 262.738 99.052 260.48 99.052ZM235.423 83.9992C233.626 83.9992 232.198 85.4262 232.198 87.2215V94.909C232.198 96.7043 233.626 98.1313 235.423 98.1313H260.434C262.231 98.1313 263.659 96.7043 263.659 94.909V87.2215C263.659 85.4262 262.231 83.9992 260.434 83.9992H235.423Z" fill="#2C163A"/>
<path d="M308.845 120.826H235.422C233.119 120.826 231.277 118.984 231.277 116.683V108.995C231.277 106.693 233.119 104.852 235.422 104.852H308.799C311.102 104.852 312.945 106.693 312.945 108.995V116.683C312.991 118.938 311.102 120.826 308.845 120.826ZM235.422 105.773C233.626 105.773 232.198 107.2 232.198 108.995V116.683C232.198 118.478 233.626 119.905 235.422 119.905H308.799C310.596 119.905 312.023 118.478 312.023 116.683V108.995C312.023 107.2 310.596 105.773 308.799 105.773H235.422Z" fill="#2C163A"/>
<path d="M308.845 142.599H235.422C233.119 142.599 231.277 140.758 231.277 138.456V130.769C231.277 128.467 233.119 126.626 235.422 126.626H308.799C311.102 126.626 312.945 128.467 312.945 130.769V138.456C312.991 140.758 311.102 142.599 308.845 142.599ZM235.422 127.593C233.626 127.593 232.198 129.02 232.198 130.815V138.502C232.198 140.298 233.626 141.725 235.422 141.725H308.799C310.596 141.725 312.023 140.298 312.023 138.502V130.815C312.023 129.02 310.596 127.593 308.799 127.593H235.422Z" fill="#2C163A"/>
<path d="M245.418 95.5995C245.326 95.5995 245.28 95.5995 245.188 95.5535C244.957 95.4154 244.911 95.1392 245.003 94.909L249.61 86.9913C249.748 86.7611 250.024 86.7151 250.255 86.8072C250.485 86.9453 250.531 87.2214 250.439 87.4516L245.833 95.3693C245.74 95.5074 245.602 95.5995 245.418 95.5995Z" fill="#2C163A"/>
<path d="M238.509 114.611C239.221 114.611 239.799 114.034 239.799 113.322C239.799 112.611 239.221 112.033 238.509 112.033C237.797 112.033 237.219 112.611 237.219 113.322C237.219 114.034 237.797 114.611 238.509 114.611Z" fill="#2C163A"/>
<path d="M243.115 114.611C243.827 114.611 244.405 114.034 244.405 113.322C244.405 112.611 243.827 112.033 243.115 112.033C242.403 112.033 241.825 112.611 241.825 113.322C241.825 114.034 242.403 114.611 243.115 114.611Z" fill="#2C163A"/>
<path d="M247.721 114.611C248.433 114.611 249.011 114.034 249.011 113.322C249.011 112.611 248.433 112.033 247.721 112.033C247.009 112.033 246.431 112.611 246.431 113.322C246.431 114.034 247.009 114.611 247.721 114.611Z" fill="#2C163A"/>
<path d="M252.327 114.611C253.04 114.611 253.617 114.034 253.617 113.322C253.617 112.611 253.04 112.033 252.327 112.033C251.615 112.033 251.038 112.611 251.038 113.322C251.038 114.034 251.615 114.611 252.327 114.611Z" fill="#2C163A"/>
<path d="M256.933 114.611C257.646 114.611 258.223 114.034 258.223 113.322C258.223 112.611 257.646 112.033 256.933 112.033C256.221 112.033 255.644 112.611 255.644 113.322C255.644 114.034 256.221 114.611 256.933 114.611Z" fill="#2C163A"/>
<path d="M261.54 114.611C262.252 114.611 262.829 114.034 262.829 113.322C262.829 112.611 262.252 112.033 261.54 112.033C260.827 112.033 260.25 112.611 260.25 113.322C260.25 114.034 260.827 114.611 261.54 114.611Z" fill="#2C163A"/>
<path d="M305.805 164.419H287.472C283.511 164.419 280.333 161.197 280.333 157.284C280.333 153.371 283.557 150.149 287.472 150.149H305.805C309.766 150.149 312.945 153.371 312.945 157.284C312.945 161.197 309.766 164.419 305.805 164.419ZM287.518 151.024C284.064 151.024 281.3 153.832 281.3 157.238C281.3 160.644 284.11 163.453 287.518 163.453H305.851C309.306 163.453 312.069 160.644 312.069 157.238C312.069 153.832 309.26 151.024 305.851 151.024H287.518Z" fill="#2C163A"/>
<path d="M293.138 157.79C293.277 157.974 293.323 158.159 293.323 158.389C293.323 158.711 293.184 158.987 292.954 159.171C292.724 159.355 292.355 159.447 291.849 159.447H290.006V155.581H291.71C292.171 155.581 292.493 155.673 292.724 155.857C292.954 156.041 293.092 156.271 293.092 156.593C293.092 156.778 293.046 156.962 292.954 157.1C292.862 157.238 292.724 157.376 292.586 157.422C292.862 157.514 293.046 157.606 293.138 157.79ZM290.605 156.041V157.284H291.71C291.987 157.284 292.217 157.238 292.355 157.146C292.493 157.054 292.586 156.87 292.586 156.685C292.586 156.501 292.493 156.317 292.355 156.225C292.217 156.133 291.987 156.087 291.71 156.087H290.605V156.041ZM292.54 158.849C292.678 158.757 292.77 158.573 292.77 158.389C292.77 157.974 292.447 157.744 291.849 157.744H290.605V159.033H291.849C292.171 158.987 292.401 158.941 292.54 158.849Z" fill="#2C163A"/>
<path d="M295.672 159.033C295.396 158.757 295.257 158.343 295.257 157.79V155.581H295.81V157.744C295.81 158.573 296.179 158.987 296.87 158.987C297.238 158.987 297.468 158.895 297.699 158.665C297.883 158.481 297.975 158.159 297.975 157.744V155.581H298.528V157.744C298.528 158.297 298.39 158.711 298.113 158.987C297.837 159.263 297.422 159.401 296.916 159.401C296.363 159.447 295.994 159.309 295.672 159.033Z" fill="#2C163A"/>
<path d="M302.12 158.112V159.447H301.567V158.112L300.047 155.627H300.646L301.89 157.652L303.133 155.627H303.686L302.12 158.112Z" fill="#2C163A"/>
<path d="M312.53 76.5416C312.392 76.5416 312.3 76.4956 312.208 76.4035L307.97 72.1685C307.786 71.9844 307.786 71.7082 307.97 71.524C308.154 71.3399 308.431 71.3399 308.615 71.524L312.853 75.7591C313.037 75.9432 313.037 76.2194 312.853 76.4035C312.761 76.4956 312.623 76.5416 312.53 76.5416Z" fill="#2C163A"/>
<path d="M308.246 76.5416C308.108 76.5416 308.016 76.4956 307.924 76.4035C307.74 76.2194 307.74 75.9432 307.924 75.7591L312.162 71.524C312.346 71.3399 312.622 71.3399 312.806 71.524C312.991 71.7082 312.991 71.9844 312.806 72.1685L308.569 76.4035C308.477 76.4956 308.384 76.5416 308.246 76.5416Z" fill="#2C163A"/>
<path d="M56.7943 78.7054H48.4571C46.5225 78.7054 45.0024 77.1402 45.0024 75.2529V66.9209C45.0024 64.9875 46.5685 63.4684 48.4571 63.4684H56.7943C58.7289 63.4684 60.249 65.0335 60.249 66.9209V75.2529C60.249 77.1402 58.6828 78.7054 56.7943 78.7054Z" fill="#FFA385"/>
<path d="M53.7544 74.0099H45.4172C43.2523 74.0099 41.502 72.2607 41.502 70.0971V61.7651C41.502 59.6016 43.2523 57.8523 45.4172 57.8523H53.7544C55.9193 57.8523 57.6697 59.6016 57.6697 61.7651V70.0971C57.6697 72.2607 55.9193 74.0099 53.7544 74.0099ZM45.4172 58.773C43.759 58.773 42.4232 60.1079 42.4232 61.7651V70.0971C42.4232 71.7543 43.759 73.0893 45.4172 73.0893H53.7544C55.4127 73.0893 56.7485 71.7543 56.7485 70.0971V61.7651C56.7485 60.1079 55.4127 58.773 53.7544 58.773H45.4172Z" fill="#2C163A"/>
<path d="M181.115 45.1932H171.719C169.554 45.1932 167.803 43.4439 167.803 41.2804V31.8896C167.803 29.7261 169.554 27.9768 171.719 27.9768H181.115C183.28 27.9768 185.031 29.7261 185.031 31.8896V41.2804C185.031 43.4439 183.28 45.1932 181.115 45.1932Z" fill="#FFA385"/>
<path d="M172.963 50.7172H163.566C161.171 50.7172 159.19 48.7377 159.19 46.344V36.9532C159.19 34.5595 161.171 32.5801 163.566 32.5801H172.963C175.358 32.5801 177.339 34.5595 177.339 36.9532V46.344C177.339 48.7377 175.358 50.7172 172.963 50.7172ZM163.566 33.5007C161.678 33.5007 160.111 35.0659 160.111 36.9532V46.344C160.111 48.2314 161.678 49.7965 163.566 49.7965H172.963C174.851 49.7965 176.417 48.2314 176.417 46.344V36.9532C176.417 35.0659 174.851 33.5007 172.963 33.5007H163.566Z" fill="#2C163A"/>
<path d="M344.497 62.0874H340.858C339.753 62.0874 338.877 61.2128 338.877 60.108V56.4714C338.877 55.3666 339.753 54.4919 340.858 54.4919H344.497C345.602 54.4919 346.478 55.3666 346.478 56.4714V60.108C346.432 61.1667 345.556 62.0874 344.497 62.0874ZM340.858 55.4126C340.259 55.4126 339.799 55.8729 339.799 56.4714V60.108C339.799 60.7064 340.259 61.1667 340.858 61.1667H344.497C345.096 61.1667 345.556 60.7064 345.556 60.108V56.4714C345.556 55.8729 345.096 55.4126 344.497 55.4126H340.858Z" fill="#2C163A"/>
<path d="M346.985 156.363H345.004C344.313 156.363 343.714 155.811 343.714 155.074V153.095C343.714 152.404 344.267 151.806 345.004 151.806H346.985C347.676 151.806 348.274 152.358 348.274 153.095V155.074C348.274 155.811 347.676 156.363 346.985 156.363ZM345.004 152.773C344.82 152.773 344.636 152.957 344.636 153.141V155.12C344.636 155.304 344.82 155.489 345.004 155.489H346.985C347.169 155.489 347.353 155.304 347.353 155.12V153.141C347.353 152.957 347.169 152.773 346.985 152.773H345.004Z" fill="#2C163A"/>
<path d="M194.796 73.3654H192.815C192.124 73.3654 191.525 72.813 191.525 72.0765V70.097C191.525 69.4065 192.078 68.8081 192.815 68.8081H194.796C195.487 68.8081 196.086 69.3605 196.086 70.097V72.0765C196.086 72.767 195.487 73.3654 194.796 73.3654ZM192.815 69.7288C192.631 69.7288 192.447 69.9129 192.447 70.097V72.0765C192.447 72.2606 192.631 72.4447 192.815 72.4447H194.796C194.98 72.4447 195.164 72.2606 195.164 72.0765V70.097C195.164 69.9129 194.98 69.7288 194.796 69.7288H192.815Z" fill="#2C163A"/>
<path d="M20.4516 190.198H18.4709C17.78 190.198 17.1812 189.645 17.1812 188.909V186.929C17.1812 186.239 17.7339 185.64 18.4709 185.64H20.4516C21.1425 185.64 21.7413 186.193 21.7413 186.929V188.909C21.6952 189.645 21.1425 190.198 20.4516 190.198ZM18.4709 186.607C18.2866 186.607 18.1024 186.791 18.1024 186.975V188.955C18.1024 189.139 18.2866 189.323 18.4709 189.323H20.4516C20.6358 189.323 20.82 189.139 20.82 188.955V186.975C20.82 186.791 20.6358 186.607 20.4516 186.607H18.4709Z" fill="#2C163A"/>
<path d="M30.3548 224.584H26.1631C24.9194 224.584 23.9521 223.572 23.9521 222.375V218.186C23.9521 216.943 24.9655 215.976 26.1631 215.976H30.3548C31.5984 215.976 32.5657 216.989 32.5657 218.186V222.375C32.5657 223.618 31.5984 224.584 30.3548 224.584ZM26.1631 216.897C25.4261 216.897 24.8734 217.495 24.8734 218.186V222.375C24.8734 223.111 25.4722 223.664 26.1631 223.664H30.3548C31.0917 223.664 31.6445 223.065 31.6445 222.375V218.186C31.6445 217.449 31.0457 216.897 30.3548 216.897H26.1631Z" fill="#2C163A"/>
<path d="M24.3668 126.811C24.2746 126.811 24.1825 126.811 24.1365 126.765C22.4322 125.707 20.7739 124.556 19.2078 123.313C19.0236 123.175 18.9775 122.853 19.1157 122.668C19.2539 122.484 19.5763 122.438 19.7606 122.576C21.3267 123.819 22.9388 124.97 24.5971 125.983C24.8274 126.121 24.8734 126.397 24.7353 126.627C24.6431 126.765 24.5049 126.811 24.3668 126.811ZM15.6611 120.045C15.5229 120.045 15.4307 119.999 15.3386 119.906C13.9107 118.525 12.5749 117.006 11.2852 115.395C11.147 115.211 11.147 114.889 11.3773 114.751C11.5615 114.613 11.884 114.613 12.0222 114.843C13.2658 116.408 14.6016 117.881 15.9835 119.262C16.1677 119.446 16.1677 119.722 15.9835 119.906C15.8914 119.999 15.7992 120.045 15.6611 120.045ZM8.7057 111.482C8.56752 111.482 8.42933 111.39 8.33721 111.252C7.23172 109.549 6.26442 107.8 5.34318 106.004C5.25106 105.774 5.34318 105.498 5.57349 105.406C5.8038 105.314 6.08017 105.406 6.1723 105.636C7.04748 107.385 8.01478 109.135 9.12026 110.792C9.25845 111.022 9.21239 111.298 8.98208 111.436C8.88995 111.436 8.79783 111.482 8.7057 111.482ZM3.73102 101.631C3.54677 101.631 3.36252 101.539 3.31646 101.355C2.62553 99.4678 1.98066 97.5344 1.52004 95.601C1.47398 95.3708 1.61217 95.0946 1.84248 95.0486C2.07279 95.0025 2.34916 95.1406 2.39522 95.3708C2.85584 97.2582 3.45464 99.1916 4.19164 101.033C4.28376 101.263 4.14557 101.539 3.91526 101.631C3.8692 101.631 3.77708 101.631 3.73102 101.631ZM0.9673 90.9516C0.736991 90.9516 0.552743 90.7675 0.506681 90.5373C0.23031 88.5579 0.0460619 86.5324 0 84.507C0 84.2308 0.184248 84.0466 0.460619 84.0466C0.690929 84.0466 0.921239 84.2308 0.921239 84.507C0.967301 86.4404 1.15155 88.4658 1.42792 90.3992C1.47398 90.6294 1.28973 90.9056 1.05942 90.9056C1.01336 90.9516 0.9673 90.9516 0.9673 90.9516ZM0.644867 79.9497C0.598805 79.9497 0.598805 79.9497 0.644867 79.9497C0.368495 79.9037 0.184248 79.7195 0.184248 79.4433L0.23031 79.1671C0.414557 77.2798 0.690929 75.3464 1.10549 73.459C1.15155 73.2289 1.42792 73.0447 1.65823 73.0908C1.88854 73.1368 2.07279 73.413 2.02673 73.6432C1.61217 75.4845 1.3358 77.3718 1.15155 79.2132L1.10549 79.4894C1.05942 79.7656 0.875177 79.9497 0.644867 79.9497ZM2.85584 69.1319C2.80978 69.1319 2.76372 69.1319 2.71765 69.0859C2.48734 68.9938 2.34916 68.7636 2.44128 68.4874C3.08615 66.6001 3.82314 64.7127 4.69832 62.8714C4.79044 62.6412 5.06681 62.5492 5.29712 62.6412C5.52743 62.7333 5.61956 63.0095 5.52743 63.2397C4.69832 65.0349 3.96133 66.8763 3.31646 68.7636C3.2704 69.0398 3.08615 69.1319 2.85584 69.1319ZM7.46203 59.1427C7.36991 59.1427 7.27778 59.1427 7.23172 59.0967C7.00141 58.9586 6.95535 58.6824 7.09354 58.4522C8.1069 56.749 9.25845 55.0458 10.5021 53.4806C10.6403 53.2965 10.9627 53.2505 11.147 53.3886C11.3312 53.5267 11.3773 53.8489 11.2391 54.033C10.0415 55.5982 8.93602 57.2553 7.92265 58.9586C7.78447 59.0506 7.64628 59.1427 7.46203 59.1427ZM14.095 50.3043C14.0028 50.3043 13.8646 50.2583 13.7725 50.1662C13.5883 49.9821 13.5883 49.7059 13.7265 49.5218C15.1083 48.0487 16.5823 46.6677 18.1023 45.3328C18.2866 45.1486 18.609 45.1947 18.7472 45.3788C18.9315 45.5629 18.8854 45.8852 18.7011 46.0233C17.2272 47.3122 15.7532 48.6932 14.4174 50.1202C14.3713 50.2583 14.2331 50.3043 14.095 50.3043ZM22.4322 43.0771C22.294 43.0771 22.1558 42.9851 22.0637 42.893C21.9255 42.6628 21.9715 42.3866 22.2019 42.2485C23.8601 41.0977 25.6104 40.0389 27.3608 39.1183C27.5911 38.9802 27.8675 39.0722 27.9596 39.3024C28.0978 39.5326 28.0057 39.8088 27.7753 39.9008C26.025 40.8215 24.3207 41.8342 22.7085 42.939C22.6164 43.0771 22.5243 43.0771 22.4322 43.0771ZM243.161 41.9723C243.069 41.9723 242.977 41.9263 242.885 41.8803C242.608 41.6961 242.286 41.466 242.009 41.2818C241.779 41.1437 241.733 40.8675 241.917 40.6374C242.055 40.4072 242.332 40.3612 242.562 40.5453C242.838 40.7294 243.161 40.9596 243.437 41.1437C243.668 41.2818 243.714 41.558 243.575 41.7882C243.483 41.8803 243.345 41.9723 243.161 41.9723ZM238.186 38.3817C238.094 38.3817 238.002 38.3357 237.91 38.2897C236.436 37.1849 234.87 35.942 233.165 34.607C232.981 34.4689 232.935 34.1467 233.073 33.9626C233.212 33.7784 233.534 33.7324 233.718 33.8705C235.423 35.2055 236.943 36.4023 238.417 37.5532C238.601 37.6912 238.647 38.0135 238.509 38.1976C238.463 38.2897 238.324 38.3817 238.186 38.3817ZM32.1973 37.9214C32.013 37.9214 31.8288 37.8293 31.7827 37.6452C31.6906 37.4151 31.8288 37.1389 32.0591 37.0468C32.2434 37.0008 32.3815 36.9087 32.5658 36.8627C34.224 36.2182 36.0204 35.6658 37.8168 35.2055C38.0472 35.1594 38.3235 35.2975 38.3696 35.5277C38.4156 35.7579 38.2775 36.0341 38.0472 36.0801C36.2968 36.5404 34.5464 37.0928 32.8882 37.7373C32.704 37.7833 32.5658 37.8754 32.3815 37.9214C32.2894 37.8754 32.2434 37.9214 32.1973 37.9214ZM42.8376 34.9753C42.6073 34.9753 42.423 34.8372 42.377 34.607C42.3309 34.3769 42.5152 34.1007 42.7455 34.0546C44.634 33.7324 46.6607 33.4562 48.7335 33.2721C48.9638 33.226 49.1941 33.4562 49.2402 33.6864C49.2863 33.9165 49.056 34.1467 48.8256 34.1927C46.7989 34.3769 44.8183 34.6531 42.9297 34.9753C42.8837 34.9753 42.8376 34.9753 42.8376 34.9753ZM89.0838 34.7912C88.3928 34.7912 87.6559 34.7912 86.9649 34.7912C86.6886 34.7912 86.5043 34.561 86.5043 34.3308C86.5043 34.0546 86.6886 33.8705 86.9649 33.8705C88.9917 33.9165 91.0644 33.8705 92.953 33.8245C93.1833 33.8245 93.4136 34.0086 93.4136 34.2848C93.4136 34.561 93.2293 34.7451 92.953 34.7451C91.7093 34.7451 90.4196 34.7912 89.0838 34.7912ZM81.8981 34.607C79.7793 34.515 77.6604 34.4229 75.9101 34.3308C75.6337 34.3308 75.4494 34.1007 75.4955 33.8705C75.4955 33.5943 75.7258 33.4102 75.9561 33.4562C77.7525 33.5483 79.8714 33.6403 81.9442 33.7324C82.2205 33.7324 82.4048 33.9626 82.4048 34.1927C82.3587 34.4229 82.1284 34.607 81.8981 34.607ZM98.0198 34.4229C97.7895 34.4229 97.5592 34.2388 97.5592 34.0086C97.5592 33.7324 97.7434 33.5483 97.9737 33.5022C100.047 33.3181 102.027 33.0879 103.87 32.8117C104.1 32.7657 104.376 32.9498 104.376 33.18C104.422 33.4102 104.238 33.6864 104.008 33.6864C102.119 34.0086 100.139 34.2848 98.0198 34.4229ZM70.8432 34.1007C68.448 33.9626 66.6056 33.9165 64.8552 33.8705C64.5788 33.8705 64.3946 33.6403 64.3946 33.4102C64.3946 33.134 64.6249 32.9498 64.8552 32.9498C66.6056 32.9959 68.448 33.0879 70.8432 33.18C71.1196 33.18 71.3039 33.4102 71.3039 33.6403C71.3039 33.9165 71.0736 34.1007 70.8432 34.1007ZM53.8003 33.8705C53.57 33.8705 53.3397 33.6864 53.3397 33.4102C53.3397 33.134 53.524 32.9498 53.8003 32.9498C55.4125 32.9038 57.1168 32.8578 58.9132 32.8578C59.2356 32.8578 59.512 32.8578 59.8344 32.8578C60.1108 32.8578 60.2951 33.0879 60.2951 33.3181C60.2951 33.5943 60.1108 33.7784 59.8344 33.7784C59.512 33.7784 59.2356 33.7784 58.9132 33.7784C57.1168 33.7324 55.4586 33.7784 53.8003 33.8705C53.8003 33.8245 53.8003 33.8705 53.8003 33.8705ZM108.89 32.7197C108.706 32.7197 108.476 32.5816 108.43 32.3514C108.384 32.1212 108.522 31.845 108.752 31.799C110.687 31.2926 112.621 30.7402 114.418 30.0497C114.648 29.9577 114.925 30.0958 115.017 30.3259C115.109 30.5561 114.971 30.8323 114.74 30.9244C112.898 31.6149 110.963 32.2133 108.983 32.7197C108.983 32.7197 108.936 32.7197 108.89 32.7197ZM229.527 31.5228C229.434 31.5228 229.342 31.4768 229.25 31.4307C227.868 30.3259 226.533 29.1751 225.151 28.0243L224.644 27.61C224.46 27.4259 224.414 27.1497 224.598 26.9655C224.782 26.7814 225.059 26.7354 225.243 26.9195L225.75 27.3338C227.131 28.4846 228.467 29.5894 229.849 30.6942C230.033 30.8783 230.079 31.1545 229.895 31.3387C229.803 31.4307 229.665 31.5228 229.527 31.5228ZM119.254 28.8989C119.07 28.8989 118.932 28.8068 118.84 28.6687C118.748 28.4386 118.794 28.1624 119.024 28.0703C120.728 27.2417 122.387 26.229 124.137 25.0782C124.367 24.9401 124.644 24.9861 124.782 25.2163C124.92 25.4464 124.874 25.7226 124.644 25.8607C122.847 27.0576 121.143 28.0243 119.439 28.8989C119.393 28.8989 119.346 28.8989 119.254 28.8989ZM221.005 24.4797C220.913 24.4797 220.821 24.4337 220.729 24.3877C218.978 22.9606 217.504 21.7638 216.077 20.659C215.892 20.5209 215.846 20.1986 215.984 20.0145C216.123 19.8304 216.445 19.7843 216.629 19.9224C218.057 21.0272 219.531 22.2241 221.282 23.6972C221.466 23.8813 221.512 24.1575 221.328 24.3416C221.282 24.4337 221.143 24.4797 221.005 24.4797ZM128.559 22.9606C128.421 22.9606 128.282 22.9146 128.19 22.7765C128.052 22.5924 128.098 22.2701 128.282 22.132C129.664 21.0733 131.138 19.9224 132.935 18.4034C133.119 18.2192 133.441 18.2653 133.58 18.4494C133.764 18.6335 133.718 18.9558 133.534 19.0938C131.691 20.6129 130.217 21.7638 128.835 22.8225C128.743 22.9146 128.651 22.9606 128.559 22.9606ZM212.346 17.6208C212.253 17.6208 212.161 17.5748 212.069 17.5287C210.365 16.2858 208.799 15.135 207.233 14.0302C207.002 13.8921 206.956 13.6159 207.094 13.3857C207.233 13.1556 207.509 13.1095 207.739 13.2476C209.305 14.3524 210.918 15.4572 212.622 16.7462C212.806 16.8843 212.852 17.2065 212.714 17.3906C212.622 17.5748 212.484 17.6208 212.346 17.6208ZM137.126 16.0096C136.988 16.0096 136.85 15.9636 136.758 15.8255C136.574 15.6414 136.62 15.3191 136.804 15.181C138.278 13.9381 139.844 12.6492 141.456 11.4063C141.64 11.2682 141.963 11.2682 142.101 11.4984C142.239 11.6825 142.239 12.0047 142.009 12.1428C140.397 13.3857 138.831 14.7207 137.357 15.9176C137.357 15.9636 137.218 16.0096 137.126 16.0096ZM203.225 11.3603C203.133 11.3603 203.041 11.3603 202.995 11.3142C201.291 10.2555 199.54 9.28878 197.836 8.36812C197.606 8.23002 197.514 7.95382 197.652 7.76969C197.79 7.53952 198.066 7.44746 198.251 7.58556C200.001 8.50622 201.751 9.51895 203.502 10.5777C203.732 10.7158 203.778 10.992 203.64 11.2222C203.548 11.3142 203.363 11.3603 203.225 11.3603ZM145.832 9.15068C145.694 9.15068 145.556 9.10465 145.464 8.96655C145.325 8.73639 145.371 8.46019 145.556 8.32209C147.352 7.07919 149.01 6.02043 150.669 5.09977C150.899 4.96167 151.175 5.05373 151.313 5.2839C151.452 5.51407 151.36 5.79026 151.129 5.92836C149.517 6.84903 147.859 7.86176 146.108 9.10465C146.016 9.15068 145.924 9.15068 145.832 9.15068ZM193.46 6.20456C193.414 6.20456 193.322 6.20456 193.276 6.15853C191.433 5.32993 189.591 4.63943 187.748 3.99497C187.518 3.9029 187.38 3.67274 187.472 3.39654C187.564 3.16637 187.794 3.02827 188.071 3.12034C189.913 3.7648 191.802 4.50134 193.69 5.32993C193.921 5.422 194.013 5.6982 193.921 5.92836C193.783 6.1125 193.644 6.20456 193.46 6.20456ZM155.459 3.7648C155.275 3.7648 155.091 3.67274 155.044 3.48861C154.952 3.25844 155.044 2.98224 155.275 2.89017C155.643 2.75207 156.058 2.56794 156.426 2.42984C157.9 1.87744 159.466 1.41711 161.033 1.04885C161.263 1.00281 161.539 1.14091 161.585 1.37108C161.631 1.60125 161.493 1.87744 161.263 1.92348C159.743 2.29174 158.223 2.75207 156.795 3.25844C156.426 3.39654 156.012 3.53464 155.643 3.71877C155.551 3.76481 155.505 3.7648 155.459 3.7648ZM183.05 2.56794C183.004 2.56794 182.958 2.56794 182.958 2.56794C181.023 2.06158 179.043 1.69331 177.154 1.41711C176.924 1.37108 176.74 1.14091 176.786 0.910748C176.832 0.680582 177.062 0.49645 177.292 0.542483C179.227 0.818682 181.208 1.23298 183.188 1.73935C183.419 1.78538 183.603 2.06158 183.511 2.29174C183.419 2.42984 183.234 2.56794 183.05 2.56794ZM166.145 1.14091C165.915 1.14091 165.731 0.956781 165.685 0.726616C165.639 0.49645 165.823 0.266284 166.099 0.220251C168.034 0.0361181 170.061 -0.0559483 172.133 0.0361181C172.41 0.0361181 172.594 0.266284 172.594 0.49645C172.594 0.772649 172.364 0.956781 172.133 0.956781C170.107 0.864715 168.126 0.956781 166.238 1.14091C166.145 1.14091 166.145 1.14091 166.145 1.14091Z" fill="#2C163A"/>
<path d="M353.571 105.589C353.433 105.589 353.341 105.543 353.249 105.451C353.065 105.267 353.065 104.99 353.249 104.806C354.677 103.425 356.013 101.952 357.21 100.433C357.348 100.249 357.671 100.203 357.855 100.341C358.039 100.479 358.085 100.801 357.947 100.986C356.703 102.551 355.322 104.07 353.894 105.451C353.802 105.543 353.709 105.589 353.571 105.589ZM360.527 97.0267C360.435 97.0267 360.342 97.0267 360.296 96.9346C360.066 96.7965 360.02 96.5203 360.158 96.2901C361.218 94.6329 362.139 92.8837 362.968 91.0884C363.06 90.8582 363.336 90.7662 363.567 90.8582C363.797 90.9503 363.889 91.2265 363.797 91.4566C362.968 93.298 362.001 95.0472 360.895 96.7505C360.849 96.9346 360.711 97.0267 360.527 97.0267ZM365.271 87.0375C365.225 87.0375 365.179 87.0375 365.133 86.9914C364.903 86.8994 364.764 86.6692 364.856 86.393C365.501 84.5056 365.962 82.5723 366.33 80.6849C366.377 80.4547 366.607 80.2706 366.883 80.3166C367.113 80.3627 367.298 80.5928 367.252 80.869C366.883 82.8484 366.377 84.7818 365.732 86.7152C365.64 86.9454 365.455 87.0375 365.271 87.0375ZM367.344 76.2197C367.067 76.2197 366.883 75.9895 366.883 75.7133C366.929 74.8847 366.975 74.0561 366.975 73.2735C366.975 72.1227 366.929 70.9719 366.837 69.8211C366.837 69.5449 367.021 69.3607 367.252 69.3147C367.528 69.3147 367.712 69.4988 367.758 69.729C367.85 70.8798 367.897 72.0767 367.897 73.2735C367.897 74.1021 367.85 74.9307 367.804 75.7593C367.804 76.0355 367.62 76.2197 367.344 76.2197ZM366.469 65.2638C366.238 65.2638 366.054 65.1257 366.008 64.8955C365.593 63.0082 364.995 61.0748 364.258 59.2334C364.166 59.0033 364.258 58.7271 364.534 58.635C364.764 58.5429 365.041 58.635 365.133 58.9112C365.87 60.7986 366.469 62.732 366.929 64.6653C366.975 64.8955 366.837 65.1717 366.561 65.2177C366.561 65.2638 366.515 65.2638 366.469 65.2638ZM362.553 54.9524C362.369 54.9524 362.231 54.8603 362.139 54.7222C361.172 53.019 360.112 51.3157 358.914 49.7506C358.776 49.5665 358.822 49.2442 359.007 49.1061C359.191 48.968 359.513 49.0141 359.651 49.1982C360.849 50.8094 362.001 52.5126 362.968 54.2619C363.106 54.492 363.014 54.7682 362.784 54.9063C362.692 54.9524 362.645 54.9524 362.553 54.9524ZM302.489 49.9347C302.397 49.9347 302.304 49.8887 302.212 49.8427C301.982 49.7046 301.936 49.4284 302.074 49.1982C303.18 47.541 304.469 45.9759 305.943 44.5028C306.128 44.3187 306.404 44.3187 306.588 44.5028C306.772 44.687 306.772 44.9632 306.588 45.1473C305.206 46.5283 303.917 48.0934 302.857 49.7046C302.811 49.8887 302.627 49.9347 302.489 49.9347ZM355.967 46.114C355.828 46.114 355.736 46.0679 355.644 45.9759C354.262 44.5489 352.742 43.2599 351.176 42.1091C350.992 41.971 350.946 41.6488 351.084 41.4646C351.222 41.2805 351.545 41.2345 351.729 41.3726C353.341 42.5694 354.861 43.9044 356.289 45.3314C356.473 45.5155 356.473 45.7917 356.289 45.9759C356.197 46.0679 356.105 46.114 355.967 46.114ZM310.135 42.0631C309.997 42.0631 309.859 42.017 309.766 41.8789C309.628 41.6948 309.674 41.3726 309.859 41.2345C311.471 40.0836 313.221 39.0249 315.064 38.1502C315.294 38.0582 315.57 38.1502 315.662 38.3804C315.754 38.6106 315.662 38.8868 315.432 38.9788C313.636 39.8535 311.931 40.8662 310.365 42.017C310.319 42.017 310.227 42.0631 310.135 42.0631ZM347.215 39.4852C347.123 39.4852 347.077 39.4852 346.984 39.4392C345.234 38.4725 343.438 37.6899 341.595 37.0915C341.365 36.9994 341.227 36.7692 341.319 36.4931C341.411 36.2629 341.641 36.1248 341.918 36.2168C343.806 36.8613 345.695 37.6899 347.491 38.6566C347.721 38.7947 347.814 39.0709 347.675 39.3011C347.537 39.3931 347.353 39.4852 347.215 39.4852ZM319.992 37.0915C319.808 37.0915 319.624 36.9534 319.532 36.7692C319.439 36.5391 319.578 36.2629 319.808 36.1708C321.743 35.5724 323.723 35.1121 325.704 34.7898C325.934 34.7438 326.211 34.9279 326.211 35.1581C326.257 35.3883 326.072 35.6645 325.842 35.6645C323.907 35.9407 321.973 36.401 320.084 36.9994C320.084 37.0915 320.038 37.0915 319.992 37.0915ZM336.805 35.8486C336.759 35.8486 336.759 35.8486 336.713 35.8486C334.87 35.5264 332.936 35.3883 331.047 35.3883H330.863C330.632 35.3883 330.402 35.2041 330.402 34.9279C330.402 34.6517 330.586 34.4676 330.863 34.4676H331.047C333.028 34.4676 334.962 34.6517 336.897 34.974C337.127 35.02 337.311 35.2502 337.265 35.5264C337.219 35.7105 337.035 35.8486 336.805 35.8486Z" fill="#2C163A"/>
<path d="M98.6651 164.373C99.8166 162.992 101.843 162.486 103.548 163.268L123.769 172.521C125.842 173.488 126.763 175.928 125.796 177.999L120.222 190.336C119.255 192.407 116.813 193.328 114.741 192.361L94.5195 183.109C92.631 182.234 91.7097 180.117 92.2625 178.137C94.5195 179.104 97.0069 179.656 99.5863 179.748C100.369 179.748 101.152 179.748 101.843 179.426C102.949 178.874 103.548 177.585 102.396 176.572C102.534 176.526 102.719 176.526 102.857 176.48C104.146 176.204 108.384 175.007 106.956 172.153C107.325 171.692 107.463 171.14 107.279 170.634C107.094 170.081 106.542 169.759 105.989 169.575C105.436 169.437 104.837 169.483 104.285 169.483C101.751 169.529 99.2178 169.069 96.8226 168.148L98.1123 165.386C98.2505 164.972 98.4348 164.649 98.6651 164.373Z" fill="#FFFEFF"/>
<path d="M123.631 303.255L125.427 306.155H88.0249V296.212C88.0249 295.292 88.7619 294.555 89.6831 294.555C89.8674 294.555 90.0977 294.601 90.2819 294.647C90.5583 294.739 90.8347 294.969 91.0189 295.2L92.9535 297.869C93.5523 298.652 94.4736 299.158 95.4869 299.158H98.8955C99.9549 299.158 100.968 298.606 101.521 297.685L103.041 295.246C103.317 294.785 103.87 294.463 104.423 294.463H104.838C105.252 294.463 105.667 294.647 105.989 294.923L108.108 296.903C109.766 298.514 111.977 299.435 114.28 299.573L118.057 299.803C120.268 300.033 122.387 301.276 123.631 303.255Z" fill="#2C163A"/>
<path d="M112.576 86.8073C107.094 86.4851 101.705 84.8739 97.0528 82.0198L97.0067 82.0659C95.5788 84.3215 94.3351 86.7152 93.3678 89.247C92.769 88.5565 91.8017 88.2343 90.9266 88.4645C90.5581 88.5566 90.1896 88.7867 89.9132 89.0169L89.8211 88.9248C88.6695 86.0247 88.4392 82.7564 89.4526 79.8103C90.4659 76.8641 92.723 74.3323 95.6709 73.2275C97.2831 72.6291 98.9874 72.491 100.646 72.3529C103.548 72.1227 106.772 71.9846 109.075 73.7799C110.088 74.6085 110.825 75.7593 111.977 76.4498C113.267 77.1864 114.833 77.2324 116.168 77.7848C118.011 78.5674 118.932 80.5928 119.393 82.5722C120.222 86.393 117.274 90.7201 112.345 90.1677L111.977 90.0756C112.253 88.8327 112.437 87.774 112.576 86.9914V86.8073Z" fill="#2C163A"/>
<path d="M98.0201 142.646L90.7884 163.453C89.6829 163.222 88.6235 162.67 87.7483 161.98L59.8809 140.206L60.2954 139.7L62.5985 135.879C60.8942 135.603 58.1305 134.912 55.2286 133.071C51.7279 130.861 49.7472 128.007 48.8721 126.488L56.7487 112.54C58.499 109.456 61.6312 107.43 65.178 107.108L82.5894 105.589H82.6355C82.7736 105.635 82.9118 105.681 83.05 105.681C82.4973 108.489 82.8658 111.527 84.4319 113.875C86.0441 116.269 88.946 117.88 91.8018 117.604C94.6576 117.327 97.3292 114.934 97.5595 112.034L97.882 111.665C98.0662 111.988 98.2965 112.264 98.5729 112.54L107.048 123.818C108.66 125.982 109.812 128.467 110.457 131.091L112.668 140.252C112.391 140.942 110.825 144.763 106.588 146.512C103.179 147.939 100.093 147.157 99.1717 146.881L98.0201 142.646Z" fill="#FFA385"/>
<path d="M110.917 94.4949C111.009 94.633 111.102 94.8171 111.102 95.0473C111.102 95.4155 110.871 95.7838 110.549 95.9219C110.687 95.4616 110.779 95.0012 110.917 94.4949Z" fill="#2C163A"/>
<path d="M110.918 94.4949C110.779 94.9552 110.687 95.4616 110.549 95.9219C110.411 95.9679 110.273 96.014 110.135 96.014C109.582 96.014 109.167 95.5997 109.167 95.0473C109.167 94.4949 109.582 94.0806 110.135 94.0806C110.457 94.0806 110.733 94.2647 110.918 94.4949Z" fill="#2C163A"/>
<path d="M102.442 92.6536C102.995 92.6536 103.409 93.0679 103.409 93.6203C103.409 94.1727 102.995 94.587 102.442 94.587C101.889 94.587 101.475 94.1727 101.475 93.6203C101.475 93.0679 101.889 92.6536 102.442 92.6536Z" fill="#2C163A"/>
<path d="M83.096 171.554L83.0499 171.6L46.2925 170.173L52.9254 154.108L83.096 171.554Z" fill="#FFA385"/>
<path d="M65.7308 298.238H65.6847C64.7635 302.197 63.5659 306.109 62.0919 309.884C61.3549 311.725 60.5719 313.567 59.3742 315.178C58.2227 316.789 56.7027 318.17 54.8141 318.907C52.9716 319.597 50.7607 319.551 49.1024 318.492C47.3981 317.434 46.4308 315.408 46.1084 313.429C45.832 311.449 46.1545 309.378 46.569 307.398C46.6612 307.03 46.7072 306.662 46.7993 306.293C46.8454 306.109 46.8915 305.925 46.9375 305.741C47.6745 302.519 48.6879 299.296 49.9316 296.212L50.1158 296.258C50.0237 296.857 50.254 297.455 50.6225 297.593C51.3134 297.869 52.0965 297.547 52.6492 297.041C53.202 296.534 53.6165 295.89 54.1232 295.384C55.7354 293.819 58.5451 293.865 60.1573 295.43C60.8022 296.074 61.2167 296.903 61.8155 297.639C62.4143 298.33 63.1974 298.974 64.1186 298.928C64.6714 298.882 65.4544 298.606 65.4084 297.639H65.6387C65.6847 297.593 65.7308 297.823 65.7308 298.238Z" fill="#2C163A"/>
<path d="M84.2934 172.659C84.2013 172.659 84.1552 172.659 84.0631 172.613L47.0293 151.208C41.7782 148.17 39.9357 141.357 42.9298 136.063L56.3338 112.264C58.1302 109.041 61.4467 106.924 65.1316 106.602L82.543 105.082C82.7733 105.036 83.0036 105.267 83.0497 105.497C83.0497 105.773 82.8655 105.957 82.6351 106.003L65.2237 107.522C61.8612 107.798 58.8211 109.732 57.1629 112.724L43.7589 136.523C41.0412 141.357 42.7455 147.617 47.536 150.425L84.5698 171.831C84.8001 171.969 84.8461 172.245 84.754 172.475C84.6158 172.613 84.4776 172.659 84.2934 172.659Z" fill="#2C163A"/>
<path d="M126.256 151.3C126.164 151.3 126.071 151.3 126.025 151.254L112.898 143.152C112.806 143.106 112.714 142.968 112.714 142.876L109.904 131.275C109.305 128.698 108.153 126.304 106.587 124.186L97.6052 112.172C97.4671 111.988 97.5131 111.665 97.6974 111.527C97.8816 111.389 98.2041 111.435 98.3422 111.619L98.8489 112.31L107.324 123.588C108.983 125.797 110.18 128.283 110.825 130.999L113.589 142.415L126.532 150.425C126.762 150.563 126.808 150.84 126.67 151.07C126.578 151.254 126.44 151.3 126.256 151.3Z" fill="#2C163A"/>
<path d="M87.7479 162.394C87.6558 162.394 87.5636 162.348 87.4715 162.302L58.3143 139.515C58.1301 139.377 58.084 139.055 58.2222 138.871C58.3604 138.687 58.6828 138.641 58.8671 138.779L60.1568 139.791L88.0243 161.565C88.2085 161.703 88.2546 162.025 88.1164 162.21C88.0243 162.348 87.8861 162.394 87.7479 162.394Z" fill="#2C163A"/>
<path d="M60.2492 140.16C60.1571 140.16 60.065 140.16 60.0189 140.114C59.7886 139.976 59.7425 139.699 59.8807 139.469L67.573 126.902C67.7112 126.672 67.9876 126.626 68.2179 126.764C68.4482 126.902 68.4943 127.178 68.3561 127.409L60.6638 139.93C60.5716 140.068 60.3874 140.16 60.2492 140.16Z" fill="#2C163A"/>
<path d="M62.5983 136.339C62.5522 136.339 62.5522 136.339 62.5061 136.339C59.8346 135.925 57.2551 134.912 54.9981 133.485C51.6355 131.367 49.6088 128.651 48.4573 126.764C48.3191 126.534 48.4112 126.258 48.6415 126.12C48.8718 125.981 49.1482 126.074 49.2864 126.304C50.3458 128.099 52.3265 130.723 55.5047 132.748C57.6696 134.129 60.157 135.05 62.6904 135.464C62.9207 135.51 63.1049 135.741 63.0589 135.971C63.0128 136.201 62.7825 136.339 62.5983 136.339Z" fill="#2C163A"/>
<path d="M83.0498 172.061L46.2463 170.634C46.1081 170.634 45.97 170.542 45.8778 170.403C45.7857 170.265 45.7857 170.127 45.8318 169.989L52.4647 153.924C52.5568 153.693 52.8332 153.555 53.0635 153.693C53.2938 153.785 53.432 154.062 53.2938 154.292L46.9833 169.759L83.0959 171.186C83.3722 171.186 83.5565 171.416 83.5565 171.646C83.5104 171.877 83.3262 172.061 83.0498 172.061Z" fill="#2C163A"/>
<path d="M90.7881 163.913C90.7421 163.913 90.696 163.913 90.65 163.867C90.4196 163.775 90.2815 163.498 90.3736 163.268L100.231 134.912C100.323 134.682 100.599 134.544 100.83 134.636C101.06 134.728 101.198 135.004 101.106 135.234L91.2488 163.59C91.1566 163.775 90.9724 163.913 90.7881 163.913Z" fill="#2C163A"/>
<path d="M120.682 163.913C120.636 163.913 120.544 163.913 120.498 163.867L103.639 155.489C101.475 154.338 99.9084 152.312 99.3557 149.965L97.5132 142.507C97.4672 142.277 97.6053 142.001 97.8357 141.955C98.066 141.909 98.3423 142.047 98.3884 142.277L98.4345 142.553L100.185 149.735C100.691 151.852 102.073 153.647 104.008 154.66L120.867 163.038C121.097 163.13 121.189 163.406 121.051 163.637C121.051 163.821 120.867 163.913 120.682 163.913Z" fill="#2C163A"/>
<path d="M102.258 147.893C100.876 147.893 99.7242 147.663 98.9411 147.433C98.7108 147.341 98.5726 147.111 98.6187 146.88C98.7108 146.65 98.9411 146.512 99.1714 146.558C100.553 146.973 103.271 147.433 106.265 146.19C110.134 144.579 111.7 141.172 112.115 140.16C112.207 139.929 112.483 139.791 112.714 139.883C112.944 139.976 113.082 140.252 112.99 140.482C112.575 141.587 110.825 145.269 106.633 147.019C105.067 147.663 103.547 147.893 102.258 147.893Z" fill="#2C163A"/>
<path d="M57.6695 291.471C55.3664 291.471 53.0633 291.057 50.8984 290.228C50.1614 289.952 49.4244 289.63 48.7334 289.261C48.5953 289.169 48.5031 289.031 48.5031 288.847L45.8315 170.173C45.8315 169.897 46.0158 169.713 46.2922 169.713C46.5225 169.713 46.7528 169.897 46.7528 170.173L49.4244 288.571C50.0232 288.847 50.622 289.123 51.2669 289.353C53.4318 290.136 55.6427 290.55 57.9458 290.504C60.1107 290.504 62.2296 290.09 64.2103 289.353C64.9933 289.077 65.6382 288.755 66.0988 288.525C67.2504 271.953 68.448 256.302 69.5534 241.111C70.3826 229.878 71.2577 218.278 72.1329 206.402C72.4554 202.12 72.7317 197.747 73.0542 193.328C73.0542 193.052 73.2845 192.868 73.5608 192.914C73.8372 192.914 74.0215 193.144 73.9754 193.42C73.653 197.839 73.3766 202.213 73.0542 206.494C72.179 218.37 71.3499 229.971 70.4747 241.203C69.3231 256.44 68.1716 272.229 66.974 288.893C66.974 289.031 66.8819 289.215 66.7437 289.261C66.237 289.491 65.5 289.906 64.5327 290.228C62.4138 291.011 60.2029 291.425 57.9458 291.471C57.8077 291.425 57.7155 291.471 57.6695 291.471Z" fill="#2C163A"/>
<path d="M96.3615 291.839C93.4596 291.839 91.0183 291.011 89.3601 290.182C88.577 289.814 88.0243 289.445 87.6558 289.215C87.5637 289.123 87.4715 289.031 87.4255 288.893C84.846 274.393 82.2666 260.813 79.7331 247.693C77.1997 234.574 74.6203 220.994 72.0408 206.494C71.9947 206.263 72.179 205.987 72.4093 205.941C72.6396 205.895 72.916 206.079 72.962 206.309C75.5415 220.81 78.121 234.39 80.6544 247.509C83.1417 260.583 85.7673 274.07 88.3007 288.479C88.6692 288.709 89.1298 288.985 89.7746 289.261C91.7092 290.182 94.7493 291.195 98.3422 290.642C100.046 290.412 101.705 289.86 103.271 288.985C103.547 288.847 103.87 288.663 104.146 288.479L87.9322 175.882C87.8861 175.651 88.0703 175.375 88.3007 175.375C88.531 175.329 88.8073 175.513 88.8073 175.743L105.067 288.617C105.113 288.801 105.021 288.985 104.883 289.077C104.514 289.307 104.1 289.584 103.731 289.768C102.073 290.688 100.323 291.241 98.4803 291.517C97.7434 291.793 97.0524 291.839 96.3615 291.839Z" fill="#2C163A"/>
<path d="M50.484 188.402C50.3458 188.402 50.1616 188.31 50.0695 188.172C49.9313 187.942 50.0234 187.666 50.2077 187.528C54.4914 184.996 57.0709 179.932 56.7024 175.007C56.7024 174.731 56.8866 174.546 57.1169 174.5C57.3933 174.5 57.5776 174.684 57.6236 174.915C58.0382 180.208 55.2745 185.594 50.7143 188.31C50.6222 188.402 50.5761 188.402 50.484 188.402Z" fill="#2C163A"/>
<path d="M116.445 193.19C115.8 193.19 115.155 193.052 114.51 192.776L94.2888 183.523C92.2161 182.556 91.1566 180.209 91.8015 178.045C91.8936 177.815 92.1239 177.677 92.3542 177.723C92.5845 177.815 92.7227 178.045 92.6767 178.275C92.17 180.025 92.9991 181.912 94.6573 182.694L114.879 191.947C115.754 192.361 116.767 192.407 117.688 192.039C118.61 191.717 119.347 191.026 119.761 190.106L125.381 177.815C126.21 175.974 125.427 173.764 123.584 172.935L103.363 163.683C101.843 162.992 100.093 163.407 99.0332 164.649C98.8029 164.88 98.6187 165.156 98.4805 165.478L97.1907 168.24C97.0986 168.47 96.8222 168.562 96.5919 168.47C96.3616 168.378 96.2695 168.102 96.3616 167.872L97.6514 165.11C97.8356 164.695 98.0659 164.373 98.3423 164.051C99.6781 162.486 101.889 161.98 103.778 162.854L123.999 172.107C126.302 173.166 127.315 175.928 126.256 178.229L120.636 190.52C120.13 191.625 119.208 192.5 118.057 192.914C117.504 193.098 116.997 193.19 116.445 193.19Z" fill="#2C163A"/>
<path d="M98.6647 164.879C98.4344 164.879 98.2502 164.741 98.2041 164.511C98.0199 163.821 97.2368 163.452 96.5459 163.452C95.9932 163.452 95.4404 163.591 94.8416 163.729C94.5192 163.821 94.2428 163.867 93.9204 163.959C92.8609 164.143 91.7555 164.143 90.696 163.913C89.4984 163.637 88.3929 163.084 87.4717 162.302C87.2875 162.117 87.2414 161.841 87.4256 161.657C87.6099 161.473 87.8863 161.427 88.0705 161.611C88.8996 162.302 89.8669 162.762 90.9263 162.992C91.8476 163.222 92.8609 163.222 93.7822 163.038C94.0586 162.992 94.381 162.9 94.6574 162.808C95.3022 162.624 95.9471 162.486 96.592 162.486C97.6514 162.486 98.8951 163.084 99.1714 164.235V164.327C99.2175 164.557 99.0793 164.833 98.8029 164.879C98.7569 164.879 98.7108 164.879 98.6647 164.879Z" fill="#2C163A"/>
<path d="M101.428 173.856C98.9872 173.856 96.4998 173.488 94.1507 172.705C93.9204 172.613 93.7822 172.383 93.8743 172.107C93.9664 171.877 94.1968 171.738 94.4731 171.83C97.6514 172.843 101.106 173.165 104.376 172.751C105.021 172.659 105.758 172.567 106.265 172.153C106.403 172.061 106.495 171.969 106.587 171.83C106.864 171.462 106.956 171.048 106.864 170.726C106.726 170.357 106.357 170.081 105.896 169.989C105.436 169.897 104.975 169.897 104.469 169.897H104.284C101.705 169.943 99.0793 169.437 96.6841 168.516C96.3156 168.378 95.9932 168.24 95.6247 168.056C95.3944 167.964 95.3022 167.688 95.3944 167.457C95.4865 167.227 95.7629 167.135 95.9932 167.227C96.3156 167.365 96.638 167.503 97.0065 167.641C99.3096 168.516 101.843 168.976 104.284 168.93H104.469C105.021 168.93 105.574 168.93 106.127 169.069C106.91 169.253 107.509 169.759 107.739 170.403C107.969 171.048 107.831 171.784 107.37 172.383C107.232 172.567 107.048 172.751 106.864 172.889C106.173 173.396 105.298 173.534 104.561 173.626C103.455 173.764 102.442 173.856 101.428 173.856Z" fill="#2C163A"/>
<path d="M98.9871 177.309C96.8682 177.309 94.8876 176.894 92.999 176.02C92.7687 175.928 92.6766 175.651 92.7687 175.421C92.8608 175.191 93.1372 175.099 93.3675 175.191C96.0391 176.434 98.941 176.71 102.257 176.066L102.718 175.974C104.284 175.651 106.081 174.869 106.587 173.81C106.818 173.35 106.772 172.889 106.495 172.291C106.495 172.245 106.449 172.245 106.449 172.199L106.679 172.153L106.864 172.015L107.278 171.831C107.278 171.831 107.324 171.877 107.324 171.923C107.739 172.751 107.785 173.488 107.416 174.224C106.633 175.882 104.008 176.618 102.902 176.894L102.396 176.986C101.244 177.17 100.093 177.309 98.9871 177.309Z" fill="#2C163A"/>
<path d="M100.001 180.163C99.8623 180.163 99.6781 180.163 99.5399 180.163C96.9144 180.071 94.427 179.564 92.0318 178.552C90.65 177.953 89.3142 177.217 88.0705 176.342C86.5504 175.283 85.1686 173.994 83.9249 172.521C83.7407 172.337 83.7867 172.015 83.971 171.877C84.1552 171.693 84.4777 171.739 84.6158 171.923C85.8134 173.35 87.1492 174.593 88.5772 175.605C89.7748 176.434 91.0184 177.171 92.3542 177.723C94.6113 178.69 97.0065 179.196 99.4938 179.288C100.185 179.288 100.968 179.288 101.567 179.012C102.073 178.736 102.442 178.321 102.488 177.861C102.534 177.493 102.396 177.171 102.027 176.894L102.304 176.526L102.626 176.204C103.179 176.71 103.455 177.309 103.363 177.999C103.271 178.736 102.718 179.426 101.935 179.84C101.382 180.117 100.691 180.163 100.001 180.163Z" fill="#2C163A"/>
<path d="M91.0646 118.156C88.347 118.156 85.5833 116.637 83.9711 114.197C82.405 111.849 81.8983 108.719 82.4971 105.635L82.5432 105.497C82.5892 105.266 82.8195 105.082 83.0959 105.128C83.3262 105.174 83.5105 105.405 83.4644 105.681L83.4184 105.819C82.8656 108.673 83.3262 111.527 84.7541 113.691C86.3203 116.084 89.13 117.465 91.7095 117.235C94.4271 116.959 96.8224 114.657 97.0527 112.079C97.0527 111.803 97.283 111.619 97.5594 111.665C97.8357 111.665 98.02 111.895 97.9739 112.171C97.7436 115.21 95.0259 117.834 91.8016 118.156C91.5713 118.156 91.2949 118.156 91.0646 118.156Z" fill="#2C163A"/>
<path d="M83.1881 106.187C83.0959 106.187 83.0499 106.187 82.9578 106.187C82.7735 106.187 82.5893 106.141 82.405 106.049C82.1747 105.957 82.0826 105.681 82.1747 105.451C82.2668 105.221 82.5432 105.129 82.7735 105.221C82.8656 105.267 82.9578 105.267 83.0499 105.313C83.7408 105.405 84.8924 104.99 86.873 102.597C88.6694 100.479 89.2682 97.349 89.9592 92.8837C90.0052 92.6536 90.2355 92.4694 90.4658 92.5155C90.6962 92.5615 90.8804 92.7917 90.8343 93.0218C90.0973 97.6712 89.4525 100.894 87.5179 103.195C85.8597 105.221 84.3857 106.187 83.1881 106.187Z" fill="#2C163A"/>
<path d="M99.1711 113.691C99.079 113.691 98.9869 113.645 98.8947 113.599C98.6184 113.414 98.3881 113.184 98.1578 112.908C97.8814 112.632 97.6511 112.31 97.4208 111.987C96.4995 110.514 96.1771 108.719 96.5917 107.108C96.6377 106.878 96.9141 106.694 97.1444 106.786C97.3747 106.832 97.559 107.108 97.4668 107.338C97.1444 108.719 97.3747 110.238 98.2038 111.527C98.3881 111.803 98.6184 112.08 98.8026 112.356C98.9869 112.54 99.2172 112.77 99.4475 112.908C99.6317 113.046 99.6778 113.368 99.5396 113.553C99.4475 113.645 99.3093 113.691 99.1711 113.691Z" fill="#2C163A"/>
<path d="M110.917 94.9552C110.871 94.9552 110.825 94.9552 110.779 94.9552C110.549 94.9092 110.364 94.633 110.457 94.4028C110.779 93.0678 111.148 91.6408 111.47 90.0757C111.746 88.8328 111.931 87.774 112.069 87.0375C112.115 86.8073 112.345 86.6232 112.575 86.6692C112.806 86.7152 112.99 86.9454 112.944 87.1756C112.852 87.9121 112.622 89.0169 112.345 90.2598C112.023 91.8249 111.654 93.298 111.286 94.633C111.286 94.8171 111.101 94.9552 110.917 94.9552Z" fill="#2C163A"/>
<path d="M100.415 107.66C99.3095 107.66 98.1579 107.43 97.1446 106.924C95.7627 106.279 94.7493 105.312 94.1505 104.07C94.0584 103.839 94.1505 103.563 94.3808 103.471C94.6112 103.379 94.8875 103.471 94.9797 103.701C95.4863 104.76 96.3615 105.589 97.5591 106.141C99.0331 106.832 100.783 106.97 102.35 106.509C104.883 105.773 107.14 103.609 108.522 100.617C108.982 99.6964 109.489 98.0392 110.134 95.8296C110.18 95.5995 110.456 95.4614 110.687 95.5074C110.917 95.5534 111.055 95.8296 111.009 96.0598C110.595 97.6249 109.95 99.7425 109.351 100.985C107.831 104.208 105.39 106.555 102.58 107.384C101.889 107.568 101.152 107.66 100.415 107.66Z" fill="#2C163A"/>
<path d="M104.561 98.96C104.33 98.96 104.1 98.914 103.87 98.8679C103.639 98.7759 103.501 98.5457 103.547 98.3155C103.639 98.0854 103.87 97.9473 104.1 97.9933C104.883 98.2235 105.896 97.7171 106.127 96.8885C106.265 96.3821 106.219 95.8758 106.127 95.2773C106.081 94.863 106.035 94.4487 106.035 93.9884C106.127 92.2391 107.601 90.674 109.351 90.5359C109.581 90.4899 109.812 90.674 109.858 90.9502C109.904 91.1804 109.719 91.4106 109.443 91.4566C108.153 91.5947 107.048 92.7455 106.956 94.0805C106.956 94.4487 107.002 94.817 107.048 95.1853C107.14 95.8297 107.232 96.5202 107.002 97.1647C106.725 98.2695 105.62 98.96 104.561 98.96Z" fill="#2C163A"/>
<path d="M106.219 90.8581C106.127 90.8581 106.035 90.8121 105.943 90.766C104.146 89.385 101.567 89.0628 99.494 89.9835C99.2637 90.0755 98.9873 89.9835 98.8952 89.7533C98.803 89.5231 98.8952 89.2469 99.1255 89.1549C101.521 88.0961 104.469 88.4644 106.495 90.0755C106.68 90.2136 106.726 90.5359 106.588 90.72C106.495 90.8121 106.357 90.8581 106.219 90.8581Z" fill="#2C163A"/>
<path d="M92.9993 90.72C92.9533 90.72 92.9072 90.72 92.8611 90.674C92.6308 90.5819 92.4926 90.3517 92.5848 90.0755C92.6769 89.8454 92.769 89.6152 92.8611 89.339L92.9533 89.0628C93.9206 86.531 95.1642 84.0912 96.6382 81.7896C96.7764 81.5594 97.0528 81.5134 97.2831 81.6515C97.5134 81.7896 97.5594 82.0658 97.4213 82.2959C95.9933 84.5055 94.7957 86.8992 93.8284 89.385L93.7363 89.6612C93.6442 89.8914 93.5521 90.1216 93.506 90.3517C93.3678 90.5819 93.1836 90.72 92.9993 90.72Z" fill="#2C163A"/>
<path d="M114.372 87.3136C113.773 87.3136 113.128 87.3136 112.529 87.2676C106.956 86.9453 101.521 85.2882 96.7762 82.4341L96.4999 82.25C96.2695 82.1119 96.2235 81.8357 96.3617 81.6055C96.4999 81.3753 96.7762 81.3293 97.0065 81.4674L97.2829 81.6515C101.889 84.4135 107.186 86.0707 112.622 86.3469C113.497 86.3929 114.372 86.3929 115.247 86.3929C115.523 86.3929 115.708 86.5771 115.708 86.8533C115.708 87.1295 115.523 87.3136 115.247 87.3136C114.971 87.3136 114.694 87.3136 114.372 87.3136Z" fill="#2C163A"/>
<path d="M91.0645 93.6202C91.0185 93.6202 91.0185 93.6202 90.9724 93.6202C90.696 93.5742 90.4197 93.4821 90.1433 93.298C89.2681 92.7916 88.6693 91.8709 88.6233 90.9042C88.5772 90.1217 88.9457 89.2931 89.5445 88.6946C89.8669 88.3724 90.2815 88.1422 90.7421 88.0041C91.7555 87.7279 92.9531 88.0962 93.644 88.8788C93.7822 89.0169 93.9204 89.201 94.0125 89.3851C94.1507 89.6153 94.0586 89.8915 93.8283 90.0296C93.5979 90.1677 93.3216 90.0756 93.1834 89.8455C93.1373 89.7074 93.0452 89.6153 92.9531 89.5232C92.4464 88.9708 91.6173 88.6946 90.9724 88.8788C90.696 88.9708 90.4197 89.1089 90.1894 89.3391C89.7748 89.7534 89.5445 90.3058 89.5445 90.8122C89.5906 91.4566 89.9591 92.1011 90.6039 92.4694C90.7882 92.5614 90.9724 92.6535 91.1567 92.6535C91.387 92.6995 91.5712 92.9297 91.5252 93.2059C91.4791 93.4821 91.2949 93.6202 91.0645 93.6202Z" fill="#2C163A"/>
<path d="M113.128 90.7661C112.852 90.7661 112.529 90.7661 112.253 90.7201C112.022 90.674 111.838 90.4439 111.838 90.2137C111.884 89.9835 112.115 89.7994 112.345 89.7994C114.372 90.0296 116.214 89.3851 117.458 87.9581C118.701 86.5771 119.254 84.5516 118.886 82.7103C118.563 81.0991 117.734 79.0276 115.938 78.2911C115.385 78.0609 114.786 77.9228 114.187 77.7847C113.358 77.6006 112.483 77.3704 111.7 76.9561C110.963 76.5418 110.41 75.9434 109.858 75.345C109.489 74.9307 109.121 74.5624 108.706 74.2402C106.587 72.537 103.547 72.629 100.599 72.9052C98.9409 73.0433 97.2366 73.1814 95.7165 73.7338C92.9989 74.7465 90.7879 77.0942 89.7745 79.9943C88.8533 82.7103 88.9915 85.8866 90.143 88.8327C90.2352 89.0629 90.143 89.3391 89.8667 89.4311C89.6364 89.5232 89.36 89.4311 89.2679 89.1549C88.0242 86.0247 87.886 82.6643 88.8533 79.7181C89.9127 76.4958 92.354 73.964 95.348 72.8592C97.0063 72.2608 98.7566 72.1227 100.461 71.9846C103.593 71.7084 106.864 71.6623 109.213 73.5497C109.673 73.918 110.042 74.3322 110.456 74.7465C110.963 75.2989 111.47 75.8053 112.068 76.1736C112.713 76.5418 113.496 76.726 114.279 76.9101C114.924 77.0482 115.569 77.1863 116.214 77.4625C117.918 78.199 119.116 79.9483 119.715 82.5722C120.175 84.6897 119.531 86.9914 118.103 88.6025C116.905 89.9835 115.109 90.7661 113.128 90.7661Z" fill="#2C163A"/>
<path d="M55.8273 285.901C55.5509 285.901 55.3667 285.716 55.3667 285.44V194.939C55.3667 194.663 55.5509 194.479 55.8273 194.479C56.1037 194.479 56.2879 194.663 56.2879 194.939V285.486C56.2879 285.717 56.1037 285.901 55.8273 285.901Z" fill="#2C163A"/>
<path d="M51.0368 295.43C50.7604 295.43 50.5762 295.245 50.5762 294.969V289.767C50.5762 289.491 50.7604 289.307 51.0368 289.307C51.3132 289.307 51.4974 289.491 51.4974 289.767V294.969C51.4974 295.245 51.2671 295.43 51.0368 295.43Z" fill="#2C163A"/>
<path d="M64.3024 295.43C64.026 295.43 63.8418 295.245 63.8418 294.969V289.767C63.8418 289.491 64.026 289.307 64.3024 289.307C64.5788 289.307 64.763 289.491 64.763 289.767V294.969C64.763 295.245 64.5788 295.43 64.3024 295.43Z" fill="#2C163A"/>
<path d="M64.0723 299.342C63.1972 299.342 62.2759 298.836 61.4929 297.869C61.2626 297.593 61.0323 297.271 60.848 296.949C60.5256 296.488 60.2492 296.074 59.8807 295.706C58.4988 294.325 55.9194 294.325 54.4915 295.66C54.2611 295.89 54.0769 296.12 53.8466 296.396C53.5702 296.718 53.3399 297.041 53.0175 297.317C52.4187 297.869 51.4053 298.33 50.4841 297.961C49.9313 297.731 49.5628 296.949 49.701 296.12C49.7931 295.383 50.2077 294.785 50.8526 294.509C51.0829 294.417 51.3592 294.509 51.4514 294.739C51.5435 294.969 51.4514 295.245 51.2211 295.337C50.7604 295.568 50.6223 295.982 50.5762 296.212C50.5301 296.672 50.7144 297.041 50.8065 297.087C51.3132 297.317 51.958 296.995 52.3726 296.626C52.649 296.396 52.8793 296.12 53.1096 295.798C53.3399 295.522 53.5702 295.245 53.8466 294.969C55.643 293.266 58.7291 293.266 60.5256 295.015C60.9401 295.429 61.2626 295.936 61.585 296.396C61.7692 296.718 61.9995 296.995 62.1838 297.225C62.5523 297.639 63.2432 298.376 64.1184 298.33C64.4408 298.33 64.9936 298.191 64.9936 297.547C64.9936 297.179 64.8093 296.442 63.8881 295.199C63.7499 295.015 63.796 294.693 63.9802 294.555C64.2105 294.417 64.4869 294.463 64.6251 294.647C65.4542 295.798 65.8687 296.764 65.8687 297.547C65.8687 298.744 64.9475 299.25 64.1184 299.296C64.1645 299.342 64.1184 299.342 64.0723 299.342Z" fill="#2C163A"/>
<path d="M52.3265 319.827C51.0828 319.827 49.8852 319.505 48.8719 318.861C47.1676 317.802 46.016 315.822 45.6936 313.475C45.3711 311.357 45.7396 309.286 46.1542 307.306C46.2463 306.938 46.2924 306.57 46.3845 306.201L46.5227 305.695C46.5688 305.465 46.8451 305.281 47.0754 305.327C47.3057 305.373 47.49 305.603 47.4439 305.879V305.925L47.3057 306.432C47.2136 306.8 47.1676 307.168 47.0754 307.49C46.6609 309.378 46.3384 311.403 46.6148 313.337C46.9372 315.454 47.9506 317.157 49.3785 318.078C50.8525 318.999 52.8792 319.137 54.6756 318.446C56.2878 317.848 57.8079 316.605 59.0055 314.902C60.157 313.291 60.9401 311.449 61.631 309.7C63.105 305.971 64.3026 302.058 65.2238 298.146C65.2699 297.915 65.5463 297.731 65.7766 297.777C66.0069 297.823 66.1911 298.1 66.1451 298.33C65.2238 302.335 64.0262 306.247 62.5062 310.022C61.8152 311.817 60.9861 313.705 59.7425 315.408C58.4067 317.249 56.7484 318.584 54.9981 319.275C54.1229 319.643 53.2017 319.827 52.3265 319.827Z" fill="#2C163A"/>
<path d="M46.9373 306.201C46.8913 306.201 46.8452 306.201 46.8452 306.201C46.6149 306.155 46.4306 305.879 46.5228 305.649C47.2598 302.38 48.2731 299.158 49.5168 296.074C49.6089 295.844 49.8853 295.706 50.1156 295.798C50.3459 295.89 50.4841 296.166 50.392 296.396C49.1944 299.48 48.181 302.657 47.444 305.833C47.3519 306.063 47.1676 306.201 46.9373 306.201Z" fill="#2C163A"/>
<path d="M52.6029 324.338C51.5435 324.338 50.5301 324.154 49.6088 323.832C47.5821 323.095 46.2003 321.576 45.6015 319.505C44.2657 314.809 45.4172 310.16 46.1542 307.122C46.2463 306.8 46.2924 306.523 46.3845 306.201C46.4306 306.017 46.4766 305.833 46.5227 305.649C46.5688 305.419 46.753 305.281 46.9833 305.281C47.2597 305.281 47.4439 305.465 47.4439 305.741C47.4439 305.787 47.4439 305.833 47.4439 305.833C47.3979 306.017 47.3518 306.201 47.3058 306.385C47.2597 306.662 47.1676 306.984 47.0754 307.306C46.3385 310.252 45.233 314.763 46.5227 319.229C47.0294 321.024 48.227 322.313 49.9773 322.957C52.6029 323.924 55.7811 323.187 57.5776 321.991C61.7692 319.137 64.8553 309.976 65.2699 306.063C65.5463 303.347 65.4081 300.033 65.316 298.284C65.2699 297.869 65.2699 297.639 65.2699 297.639C65.2699 297.363 65.4542 297.179 65.6845 297.133C65.9148 297.133 66.1451 297.317 66.1911 297.547C66.1911 297.547 66.1911 297.777 66.2372 298.237C66.3293 300.033 66.4675 303.393 66.1911 306.155C65.7766 310.206 62.5062 319.781 58.0842 322.773C56.5181 323.786 54.5375 324.338 52.6029 324.338Z" fill="#2C163A"/>
<path d="M125.427 306.616H88.0243C87.748 306.616 87.5637 306.432 87.5637 306.155V296.212C87.5637 295.061 88.531 294.095 89.6826 294.095C89.9589 294.095 90.1892 294.141 90.4656 294.233C90.8341 294.371 91.1565 294.601 91.3869 294.969L93.3215 297.685C93.8281 298.376 94.6112 298.79 95.4864 298.79H98.895C99.8162 298.79 100.645 298.33 101.152 297.547L102.672 295.107C103.041 294.509 103.731 294.141 104.468 294.141H104.883C105.436 294.141 105.942 294.371 106.357 294.739L108.476 296.719C110.042 298.238 112.161 299.112 114.326 299.25L118.103 299.481C120.544 299.619 122.801 300.954 124.091 303.025L125.887 305.925C125.979 306.063 125.979 306.247 125.887 306.386C125.749 306.524 125.565 306.616 125.427 306.616ZM88.485 305.695H124.598L123.216 303.485C122.064 301.644 120.083 300.493 117.965 300.355L114.188 300.125C111.792 299.987 109.489 299.02 107.739 297.317L105.62 295.338C105.39 295.107 105.113 295.015 104.791 295.015H104.376C103.962 295.015 103.593 295.2 103.363 295.568L101.843 298.008C101.198 299.066 100.047 299.665 98.8489 299.665H95.4403C94.2888 299.665 93.2293 299.112 92.5384 298.192L90.6038 295.476C90.4656 295.292 90.2814 295.153 90.0971 295.061C89.268 294.739 88.485 295.384 88.485 296.166V305.695Z" fill="#2C163A"/>
<path d="M125.427 311.219H88.0243C87.748 311.219 87.5637 311.035 87.5637 310.759V306.155C87.5637 305.879 87.748 305.695 88.0243 305.695C88.3007 305.695 88.485 305.879 88.485 306.155V310.298H124.966V306.155C124.966 305.879 125.15 305.695 125.427 305.695C125.703 305.695 125.887 305.879 125.887 306.155V310.759C125.887 310.989 125.657 311.219 125.427 311.219Z" fill="#2C163A"/>
<path d="M104.422 295.015C104.192 295.015 104.008 294.877 103.962 294.647L103.087 289.675C103.041 289.445 103.225 289.169 103.455 289.123C103.686 289.077 103.962 289.261 104.008 289.491L104.883 294.463C104.929 294.693 104.745 294.969 104.515 295.015C104.469 295.015 104.422 295.015 104.422 295.015Z" fill="#2C163A"/>
<path d="M90.3274 295.015C90.0971 295.015 89.9129 294.831 89.8668 294.647L89.0838 289.675C89.0377 289.445 89.222 289.169 89.4523 289.169C89.6826 289.123 89.9589 289.307 89.9589 289.537V289.675L90.6959 294.463C90.742 294.693 90.5577 294.969 90.3274 294.969C90.3735 295.015 90.3274 295.015 90.3274 295.015Z" fill="#2C163A"/>
<path d="M100.922 104.024C100.876 104.024 100.876 104.024 100.83 104.024C99.9084 103.839 99.0793 103.241 98.7108 102.366C98.2962 101.538 98.3884 100.479 98.849 99.6965C98.9411 99.5584 99.0793 99.4664 99.2635 99.4664C99.4478 99.4664 99.586 99.5584 99.6781 99.7426C100.277 100.939 101.336 101.906 102.626 102.32C102.856 102.412 102.995 102.643 102.902 102.919C102.81 103.149 102.58 103.287 102.304 103.195C101.152 102.781 100.093 102.044 99.4017 101.078C99.4017 101.4 99.4478 101.722 99.586 102.044C99.8623 102.597 100.415 103.057 101.06 103.149C101.29 103.195 101.475 103.425 101.428 103.701C101.29 103.886 101.106 104.024 100.922 104.024Z" fill="#2C163A"/>
<path d="M118.61 179.84L117.136 179.15C116.583 178.92 116.352 178.229 116.583 177.677L117.274 176.204C117.504 175.651 118.195 175.421 118.748 175.651L120.222 176.342C120.774 176.572 121.005 177.262 120.774 177.815L120.083 179.288C119.853 179.84 119.162 180.07 118.61 179.84Z" fill="#FFFEFF"/>
<path d="M119.07 180.393C118.84 180.393 118.656 180.347 118.426 180.255L116.952 179.564C116.583 179.38 116.261 179.104 116.122 178.689C115.984 178.321 115.984 177.861 116.168 177.493L116.859 176.02C117.044 175.651 117.32 175.329 117.735 175.191C118.103 175.053 118.564 175.053 118.932 175.237L120.406 175.927C121.189 176.296 121.558 177.216 121.189 177.999L120.498 179.472C120.314 179.84 120.038 180.163 119.623 180.301C119.439 180.347 119.255 180.393 119.07 180.393ZM118.287 176.066C118.195 176.066 118.149 176.066 118.057 176.112C117.919 176.158 117.781 176.296 117.689 176.434L116.998 177.907C116.905 178.045 116.905 178.229 116.998 178.413C117.044 178.551 117.182 178.689 117.32 178.782L118.794 179.472C118.932 179.564 119.116 179.564 119.301 179.472C119.439 179.426 119.577 179.288 119.669 179.15L120.36 177.677C120.452 177.539 120.452 177.355 120.36 177.17C120.314 177.032 120.176 176.894 120.038 176.802L118.564 176.112C118.426 176.066 118.333 176.066 118.287 176.066Z" fill="#2C163A"/>
<path d="M116.813 299.895C116.537 299.895 116.352 299.71 116.352 299.434V253.125C116.352 247.463 120.958 242.906 126.578 242.906H161.125C166.79 242.906 171.35 247.509 171.35 253.125V269.697C171.35 269.973 171.166 270.157 170.89 270.157C170.613 270.157 170.429 269.973 170.429 269.697V253.125C170.429 247.969 166.237 243.826 161.125 243.826H126.578C121.419 243.826 117.274 248.015 117.274 253.125V299.434C117.274 299.664 117.089 299.895 116.813 299.895Z" fill="#2C163A"/>
<path d="M161.171 309.654H126.624C126.21 309.654 125.795 309.608 125.381 309.562C125.15 309.516 124.966 309.285 124.966 309.055C125.012 308.825 125.242 308.641 125.473 308.641C125.841 308.687 126.256 308.733 126.624 308.733H161.171C161.677 308.733 162.23 308.687 162.737 308.595C162.967 308.549 163.244 308.733 163.29 308.963C163.336 309.193 163.151 309.47 162.921 309.516C162.322 309.608 161.77 309.654 161.171 309.654Z" fill="#2C163A"/>
</svg>
