<svg width="364" height="77" viewBox="0 0 364 77" fill="none" xmlns="http://www.w3.org/2000/svg">
<path d="M81.3858 26.544H92.6504C93.2208 26.544 93.6486 26.9717 93.7199 27.4708L100.921 59.0546L109.69 27.4708C109.761 26.9004 110.189 26.544 110.759 26.544H119.457C120.028 26.544 120.527 26.9004 120.741 27.4708L129.439 60.4092L136.568 27.3282C136.64 26.8291 137.067 26.4727 137.638 26.4727H148.902C149.544 26.4727 149.758 26.9004 149.615 27.3995L136.354 74.6682C136.212 75.1673 135.713 75.5238 135.214 75.5238H124.519C123.949 75.5238 123.45 75.2386 123.236 74.6682L115.108 43.1557L106.838 74.6682C106.696 75.2386 106.125 75.5951 105.555 75.5238H95.2884C94.718 75.5238 94.2189 75.2386 94.0051 74.6682L80.6015 27.3995C80.459 27.043 80.6728 26.6152 81.0293 26.4727C81.1719 26.544 81.2432 26.4727 81.3858 26.544Z" fill="#151522"/>
<path d="M162.092 2.16211C166.797 2.16211 169.721 5.15651 169.721 9.7907C169.721 14.4249 166.797 17.5619 162.092 17.5619C157.386 17.5619 154.321 14.4249 154.321 9.7907C154.321 5.15651 157.529 2.16211 162.092 2.16211Z" fill="#151522"/>
<path d="M168.08 74.5257C168.08 75.096 167.724 75.5238 167.153 75.5951C167.082 75.5951 167.082 75.5951 167.011 75.5951H157.172C156.602 75.5951 156.174 75.2386 156.103 74.6682C156.103 74.5969 156.103 74.5969 156.103 74.5257V27.5421C156.031 26.9717 156.459 26.544 156.958 26.4727C157.029 26.4727 157.172 26.4727 157.243 26.4727H166.939C167.581 26.4727 168.009 26.7578 168.009 27.3995L168.08 74.5257Z" fill="#151522"/>
<path d="M181.413 0.0224507H191.323C191.822 -0.0488445 192.321 0.378927 192.392 0.877994C192.392 0.877994 192.392 0.877994 192.392 0.949289V46.2218L207.721 27.1146C207.934 26.6869 208.362 26.473 208.861 26.473H222.122C223.263 26.473 223.406 26.9721 222.621 27.8276L204.441 49.5727L225.972 74.1695C226.828 75.0964 226.614 75.5241 225.331 75.5241H212.426C211.927 75.5954 211.428 75.3815 211.071 75.0251L192.463 53.4939V74.5973C192.463 75.0964 192.036 75.5241 191.537 75.5241H181.484C180.985 75.5241 180.557 75.0964 180.557 74.5973V1.02058C180.486 0.450222 180.914 0.0224507 181.413 0.0224507Z" fill="#151522"/>
<path d="M253.92 65.5425C258.911 65.3999 262.832 63.9027 265.114 61.6926C265.399 61.4074 265.755 61.2648 266.183 61.2648C266.468 61.2648 266.682 61.4074 266.896 61.55L273.099 67.9666C273.526 68.3943 273.598 69.036 273.17 69.5351C268.536 74.4544 261.763 76.6646 253.279 76.6646C237.736 76.7359 227.256 66.3268 227.256 51.0696C227.256 35.8124 237.522 25.5459 252.637 25.5459C268.037 25.5459 278.161 34.743 278.018 54.7057C278.089 55.2047 277.733 55.7038 277.163 55.7751C277.091 55.7751 277.02 55.7751 276.949 55.7751H239.804C241.444 61.55 246.363 65.5425 253.92 65.5425ZM265.613 46.9345C264.329 40.8744 259.838 36.8105 252.637 36.8105C245.436 36.8105 240.945 40.8744 239.661 46.9345H265.613Z" fill="#151522"/>
<path d="M307.748 37.5245C304.397 37.5245 301.046 39.7346 299.264 43.5133V74.598C299.335 75.0971 298.979 75.5962 298.408 75.6674C298.337 75.6674 298.266 75.6674 298.194 75.6674H288.356C287.785 75.6674 287.357 75.311 287.286 74.7406C287.286 74.6693 287.286 74.6693 287.286 74.598V27.5432C287.286 26.9728 287.643 26.545 288.213 26.4737C288.284 26.4737 288.284 26.4737 288.356 26.4737H295.129C295.77 26.4024 296.341 26.9015 296.483 27.5432L297.553 30.7514C300.832 27.4006 305.324 25.4756 310.029 25.4043C312.596 25.4756 315.091 25.9034 317.587 26.6876C318.157 26.8302 318.442 27.4006 318.371 27.8996C318.371 27.9709 318.371 27.9709 318.3 28.0422L315.804 38.3087C315.733 38.7365 315.305 39.0217 314.877 39.0217C314.664 39.0217 314.592 38.8791 314.378 38.8791C312.239 38.0236 310.029 37.5958 307.748 37.5245Z" fill="#151522"/>
<path d="M345.606 37.5245C342.255 37.5245 338.904 39.7346 337.122 43.5133V74.598C337.193 75.0971 336.836 75.5962 336.266 75.6674C336.195 75.6674 336.124 75.6674 336.052 75.6674H326.213C325.643 75.6674 325.215 75.311 325.144 74.7406C325.144 74.6693 325.144 74.6693 325.144 74.598V27.5432C325.144 26.9728 325.501 26.545 326.071 26.4737C326.142 26.4737 326.142 26.4737 326.213 26.4737H332.987C333.628 26.4024 334.199 26.9015 334.341 27.5432L335.411 30.7514C338.69 27.4006 343.182 25.4756 347.887 25.4043C350.454 25.4756 352.949 25.9034 355.445 26.6876C356.015 26.8302 356.3 27.4006 356.157 27.9709V28.0422L353.662 38.3087C353.591 38.7365 353.163 39.0217 352.735 39.0217C352.521 39.0217 352.45 38.8791 352.236 38.8791C350.097 38.0236 347.887 37.5958 345.606 37.5245Z" fill="#151522"/>
<path d="M66.5556 63.76L57.7863 55.062L42.03 39.377C41.3884 38.7354 40.4615 38.3076 39.5347 38.3076H27.1293C26.3451 38.3789 25.7034 39.0206 25.7747 39.8048C25.7747 40.1613 25.9173 40.4465 26.1312 40.6604L47.7336 62.3341L56.9307 71.5312L60.7094 75.3098C60.852 75.4524 60.9946 75.5237 61.2084 75.5237H76.5369C76.9647 75.5237 77.2499 75.2386 77.2499 74.8108C77.2499 74.5969 77.1786 74.4543 77.036 74.3117L66.5556 63.76Z" fill="#FF6F3D"/>
<path d="M36.5408 0.022577C15.4374 0.949415 -0.889251 18.7732 0.037587 39.8766C0.964425 60.98 18.7882 77.3066 39.8916 76.4511C42.1731 76.3798 44.4545 76.0233 46.6647 75.5242C48.7322 75.0252 50.7285 74.4548 52.6535 73.5993C53.01 73.4567 53.1525 73.0289 53.01 72.6724C52.9387 72.6011 52.9387 72.5298 52.8674 72.4585L44.1693 63.7605C44.0268 63.6179 43.7416 63.5466 43.5277 63.5466C29.5538 66.4697 15.7938 57.5578 12.8707 43.584C10.6606 33.0323 15.1522 22.1954 24.278 16.4205C28.8409 13.4974 34.188 12.1428 39.6064 12.428C52.7248 13.2122 63.2052 23.6926 63.9894 36.7396C64.2746 41.9442 62.9913 47.1487 60.2821 51.569C60.1395 51.8542 60.1395 52.2107 60.3534 52.4246L68.2671 60.2671C68.5523 60.5522 68.9801 60.5522 69.2653 60.2671L69.3366 60.1958C81.4568 42.9423 77.3216 19.0584 60.0682 6.86692C53.1525 2.16143 44.9536 -0.262604 36.5408 0.022577Z" fill="#151522"/>
<path d="M356.371 60.624C361.077 60.624 364 63.6184 364 68.2526C364 72.8868 361.077 76.0238 356.371 76.0238C351.666 76.0238 348.6 72.8868 348.6 68.2526C348.6 63.6184 351.808 60.624 356.371 60.624Z" fill="#151522"/>
</svg>
