<svg width="48" height="48" viewBox="0 0 48 48" fill="none" xmlns="http://www.w3.org/2000/svg">
<path d="M0 24C0 10.7452 10.7452 0 24 0C37.2548 0 48 10.7452 48 24C48 37.2548 37.2548 48 24 48C10.7452 48 0 37.2548 0 24Z" fill="white"/>
<path d="M20.2125 36.1233L20.6309 33.4657L19.6989 33.4441H15.2485L18.3413 13.8337C18.3509 13.7745 18.3821 13.7193 18.4277 13.6801C18.4733 13.6409 18.5317 13.6193 18.5925 13.6193H26.0965C28.5877 13.6193 30.3069 14.1377 31.2045 15.1609C31.6253 15.6409 31.8933 16.1425 32.0229 16.6945C32.1589 17.2737 32.1613 17.9657 32.0285 18.8097L32.0189 18.8713V19.4121L32.4397 19.6505C32.7941 19.8385 33.0757 20.0537 33.2917 20.3001C33.6517 20.7105 33.8845 21.2321 33.9829 21.8505C34.0845 22.4865 34.0509 23.2433 33.8845 24.1001C33.6925 25.0857 33.3821 25.9441 32.9629 26.6465C32.5773 27.2937 32.0861 27.8305 31.5029 28.2465C30.9461 28.6417 30.2845 28.9417 29.5365 29.1337C28.8117 29.3225 27.9853 29.4177 27.0789 29.4177H26.4949C26.0773 29.4177 25.6717 29.5681 25.3533 29.8377C25.0341 30.1129 24.8229 30.4889 24.7581 30.9001L24.7141 31.1393L23.9749 35.8233L23.9413 35.9953C23.9325 36.0497 23.9173 36.0769 23.8949 36.0953C23.8749 36.1121 23.8461 36.1233 23.8181 36.1233H20.2125Z" fill="#253B80"/>
<path d="M32.8383 18.9336C32.8159 19.0768 32.7903 19.2232 32.7615 19.3736C31.7719 24.4544 28.3863 26.2096 24.0623 26.2096H21.8607C21.3319 26.2096 20.8863 26.5936 20.8039 27.1152L19.6767 34.264L19.3575 36.2904C19.3039 36.6328 19.5679 36.9416 19.9135 36.9416H23.8183C24.2807 36.9416 24.6735 36.6056 24.7463 36.1496L24.7847 35.9512L25.5199 31.2856L25.5671 31.0296C25.6391 30.572 26.0327 30.236 26.4951 30.236H27.0791C30.8623 30.236 33.8239 28.7 34.6895 24.2552C35.0511 22.3984 34.8639 20.848 33.9071 19.7576C33.6175 19.4288 33.2583 19.156 32.8383 18.9336Z" fill="#179BD7"/>
<path d="M31.8029 18.5208C31.6517 18.4768 31.4957 18.4368 31.3357 18.4008C31.1749 18.3656 31.0101 18.3344 30.8405 18.3072C30.2469 18.2112 29.5965 18.1656 28.8997 18.1656H23.0181C22.8733 18.1656 22.7357 18.1984 22.6125 18.2576C22.3413 18.388 22.1397 18.6448 22.0909 18.9592L20.8397 26.884L20.8037 27.1152C20.8861 26.5936 21.3317 26.2096 21.8605 26.2096H24.0621C28.3861 26.2096 31.7717 24.4536 32.7613 19.3736C32.7909 19.2232 32.8157 19.0768 32.8381 18.9336C32.5877 18.8008 32.3165 18.6872 32.0245 18.5904C31.9525 18.5664 31.8781 18.5432 31.8029 18.5208Z" fill="#222D65"/>
<path d="M22.6127 18.2584C22.7367 18.1992 22.8735 18.1664 23.0183 18.1664H28.8999C29.5967 18.1664 30.2471 18.212 30.8407 18.308C31.0103 18.3352 31.1751 18.3664 31.3359 18.4016C31.4959 18.4376 31.6519 18.4776 31.8031 18.5216C31.8783 18.544 31.9527 18.5672 32.0255 18.5904C32.3175 18.6872 32.5887 18.8016 32.8391 18.9336C33.1335 17.056 32.8367 15.7776 31.8215 14.62C30.7023 13.3456 28.6823 12.8 26.0975 12.8H18.5935C18.0655 12.8 17.6151 13.184 17.5335 13.7064L14.4079 33.5184C14.3463 33.9104 14.6487 34.264 15.0439 34.264H19.6767L20.8399 26.884L22.0911 18.9592C22.1399 18.6448 22.3415 18.388 22.6127 18.2584Z" fill="#253B80"/>
</svg>
